<svg width="16" height="17" viewBox="0 0 16 17" fill="none" xmlns="http://www.w3.org/2000/svg">
<path fill-rule="evenodd" clip-rule="evenodd" d="M8 12.5C9.06087 12.5 10.0783 12.0786 10.8284 11.3284C11.5786 10.5783 12 9.56087 12 8.5C12 7.43913 11.5786 6.42172 10.8284 5.67157C10.0783 4.92143 9.06087 4.5 8 4.5C6.93913 4.5 5.92172 4.92143 5.17157 5.67157C4.42143 6.42172 4 7.43913 4 8.5C4 9.56087 4.42143 10.5783 5.17157 11.3284C5.92172 12.0786 6.93913 12.5 8 12.5ZM10.61 8.5C10.61 9.19221 10.335 9.85608 9.84555 10.3455C9.35608 10.835 8.69221 11.11 8 11.11C7.30779 11.11 6.64392 10.835 6.15445 10.3455C5.66498 9.85608 5.39 9.19221 5.39 8.5C5.39 7.80779 5.66498 7.14392 6.15445 6.65445C6.64392 6.16498 7.30779 5.89 8 5.89C8.69221 5.89 9.35608 6.16498 9.84555 6.65445C10.335 7.14392 10.61 7.80779 10.61 8.5Z" fill="black"/>
</svg>
