<svg width="42" height="38" viewBox="0 0 42 38" fill="none" xmlns="http://www.w3.org/2000/svg">
<path d="M18.0469 30.2812C18.0469 28.5 19.5562 27.0156 21.3281 27.0156H21.7219L34.1906 28.2031C35.5031 28.3813 36.4219 29.2125 36.4219 30.2812C36.4219 31.35 35.5031 32.1813 34.1906 32.3594L21.7219 33.5469H21.3281C19.5562 33.5469 18.0469 32.0625 18.0469 30.2812ZM18.7031 30.2812C18.7031 31.7063 19.95 32.9531 21.3281 32.9531H21.6562L34.125 31.7656C34.9781 31.6469 35.8312 31.1719 35.8312 30.2812C35.8312 29.3906 34.9781 28.9156 34.125 28.7969L21.6562 27.6094H21.3937C19.95 27.6094 18.7031 28.8562 18.7031 30.2812Z" fill="#62727A"/>
<path d="M26.25 30.2812C26.25 26.3625 29.7938 23.1562 34.125 23.1562C38.4562 23.1562 42 26.3625 42 30.2812C42 34.2 38.4562 37.4062 34.125 37.4062C29.7938 37.4062 26.25 34.2 26.25 30.2812ZM27.5625 30.2812C27.5625 33.5469 30.5156 36.2188 34.125 36.2188C37.7344 36.2188 40.6875 33.5469 40.6875 30.2812C40.6875 27.0156 37.7344 24.3438 34.125 24.3438C30.5156 24.3438 27.5625 27.0156 27.5625 30.2812ZM0 30.2812C0 26.3625 3.54375 23.1562 7.875 23.1562C12.2063 23.1562 15.75 26.3625 15.75 30.2812C15.75 34.2 12.2063 37.4062 7.875 37.4062C3.54375 37.4062 0 34.2 0 30.2812ZM1.3125 30.2812C1.3125 33.5469 4.26562 36.2188 7.875 36.2188C11.4844 36.2188 14.4375 33.5469 14.4375 30.2812C14.4375 27.0156 11.4844 24.3438 7.875 24.3438C4.26562 24.3438 1.3125 27.0156 1.3125 30.2812Z" fill="#62727A"/>
<path d="M27.5625 30.2812C27.5625 27.0156 30.5156 24.3438 34.125 24.3438C37.7344 24.3438 40.6875 27.0156 40.6875 30.2812C40.6875 33.5469 37.7344 36.2188 34.125 36.2188C30.5156 36.2188 27.5625 33.5469 27.5625 30.2812ZM28.875 30.2812C28.875 32.8938 31.2375 35.0312 34.125 35.0312C37.0125 35.0312 39.375 32.8938 39.375 30.2812C39.375 27.6688 37.0125 25.5312 34.125 25.5312C31.2375 25.5312 28.875 27.6688 28.875 30.2812ZM1.3125 30.2812C1.3125 27.0156 4.26562 24.3438 7.875 24.3438C11.4844 24.3438 14.4375 27.0156 14.4375 30.2812C14.4375 33.5469 11.4844 36.2188 7.875 36.2188C4.26562 36.2188 1.3125 33.5469 1.3125 30.2812ZM2.625 30.2812C2.625 32.8938 4.9875 35.0312 7.875 35.0312C10.7625 35.0312 13.125 32.8938 13.125 30.2812C13.125 27.6688 10.7625 25.5312 7.875 25.5312C4.9875 25.5312 2.625 27.6688 2.625 30.2812Z" fill="#42ADE2"/>
<path d="M40.2281 24.7593C34.7812 20.0093 25.8562 23.3937 25.5937 30.2812C25.5937 31.0531 24.2812 31.0531 24.2812 30.2812C24.5437 22.325 34.8469 18.4656 41.1469 23.9281C41.7375 24.4625 40.8187 25.2937 40.2281 24.7593ZM1.77188 24.7593C7.21875 20.0093 16.1437 23.3937 16.4062 30.2812C16.4062 31.0531 17.7187 31.0531 17.7187 30.2812C17.4562 22.325 7.15313 18.4656 0.853126 23.9281C0.262501 24.4625 1.18125 25.2937 1.77188 24.7593Z" fill="#FF9D27"/>
<path d="M33.4687 29.6875C33.0094 26.2437 30.7125 23.3344 27.2344 21.85C26.4469 21.4937 27.1687 20.4844 27.8906 20.8406C31.8281 22.5625 34.2562 25.8281 34.7812 29.6875C34.9125 30.4594 33.6 30.4594 33.4687 29.6875Z" fill="#42ADE2"/>
<path d="M10.1719 13.1218C11.6156 12.2312 13.5844 11.9343 15.2906 11.9343C16.1437 11.9343 16.1437 13.1218 15.2906 13.1218C14.0437 13.1218 12.7312 13.3 11.55 13.775L12.9281 15.0218C13.0594 15.1406 13.1906 15.3781 13.125 15.6156C12.7969 16.3875 12.4687 17.2187 12.1406 17.9906C11.8781 18.7031 10.5656 18.4062 10.8937 17.6937C11.1562 16.9812 11.4844 16.3281 11.7469 15.6156L10.1062 14.1312C9.7125 13.775 9.84375 13.3593 10.1719 13.1218Z" fill="#B2C1C0"/>
<path d="M22.9989 30.102L26.9417 19.3997L28.1866 19.7749L24.2438 30.4778L22.9989 30.102Z" fill="#42ADE2"/>
<path d="M8.26875 30.7563C11.4188 28.3813 10.5656 24.1063 10.3031 23.1563L11.8781 18.4657C13.8469 18.7032 21.1313 20.0094 24.7406 25.8282L25.8563 25.2344C21.4594 17.9313 11.9438 17.2188 11.55 17.2188L11.025 17.1594L8.99063 23.0969L9.05625 23.275C9.05625 23.3344 10.2375 27.7282 7.48125 29.8063L8.26875 30.7563Z" fill="#42ADE2"/>
<path d="M18.375 11.9343H15.4219V13.1218H18.375C18.5719 13.1218 18.7031 13.0031 18.7031 12.825V12.2312C18.7031 12.0531 18.5719 11.9343 18.375 11.9343Z" fill="#62727A"/>
<path d="M7.875 30.875C8.23744 30.875 8.53125 30.6092 8.53125 30.2812C8.53125 29.9533 8.23744 29.6875 7.875 29.6875C7.51256 29.6875 7.21875 29.9533 7.21875 30.2812C7.21875 30.6092 7.51256 30.875 7.875 30.875Z" fill="#62727A"/>
<path d="M10.8281 18.4656C12.6656 19.2968 14.1094 20.8406 15.2906 22.5031C17.1937 25.1156 18.6375 29.1531 22.7062 29.5687H34.1906C35.0437 29.5687 35.0437 30.7562 34.1906 30.7562H22.8375C16.2094 30.7562 15.6187 22.2656 10.8938 19.7125L10.8281 18.4656Z" fill="#42ADE2"/>
<path d="M34.125 31.4688C34.8499 31.4688 35.4375 30.9371 35.4375 30.2812C35.4375 29.6254 34.8499 29.0938 34.125 29.0938C33.4001 29.0938 32.8125 29.6254 32.8125 30.2812C32.8125 30.9371 33.4001 31.4688 34.125 31.4688Z" fill="#62727A"/>
<path d="M26.9325 19.4275L28.2398 15.8787L29.4853 16.2539L28.1774 19.8028L26.9325 19.4275Z" fill="#B2C1C0"/>
<path d="M26.6437 15.4969C29.1375 15.4969 29.1375 14.25 31.3031 14.25C31.8281 14.25 32.6156 14.8437 32.7469 15.3187C32.9438 15.7937 32.2219 16.7437 31.8937 17.1594C31.4344 17.6937 30.7781 17.9906 30.1875 17.6937C29.3344 17.2187 28.4813 16.6844 26.1844 17.6937C25.6594 17.9312 24.8063 17.3375 24.8719 15.9719C24.9375 15.5562 25.5937 15.4969 26.6437 15.4969ZM23.625 30.7563H25.3312C25.6594 30.7563 25.9875 30.9937 25.9875 31.35C25.9875 31.7062 25.6594 31.9438 25.3312 31.9438H23.625C23.2969 31.9438 22.9688 31.7062 22.9688 31.35C22.9688 30.9937 23.2312 30.7563 23.625 30.7563Z" fill="#62727A"/>
<path d="M21.6562 32.6562C23.106 32.6562 24.2812 31.5929 24.2812 30.2812C24.2812 28.9696 23.106 27.9062 21.6562 27.9062C20.2065 27.9062 19.0312 28.9696 19.0312 30.2812C19.0312 31.5929 20.2065 32.6562 21.6562 32.6562Z" fill="#B2C1C0"/>
<path d="M21.4594 30.875C20.3438 30.4593 19.2938 30.1031 18.1781 29.6875C17.3906 29.3906 17.7188 28.2625 18.5063 28.5593C19.6219 28.975 20.6719 29.3312 21.7875 29.7468C22.575 29.9843 22.2469 31.1125 21.4594 30.875Z" fill="#E8E8E8"/>
<path d="M17.5875 28.5H19.2281C19.6219 28.5 19.8844 28.7375 19.8844 29.0938C19.8844 29.45 19.6219 29.6875 19.2281 29.6875H17.5875C17.1937 29.6875 16.9312 29.45 16.9312 29.0938C16.9312 28.7375 17.1937 28.5 17.5875 28.5ZM16.0781 13.3594C16.0781 13.5375 15.9469 13.6562 15.75 13.6562C15.5531 13.6562 15.4219 13.5375 15.4219 13.3594V11.5781C15.4219 11.4 15.5531 11.2812 15.75 11.2812C15.9469 11.2812 16.0781 11.4 16.0781 11.5781V13.3594Z" fill="#62727A"/>
</svg>
