<svg width="62" height="52" viewBox="0 0 62 52" fill="none" xmlns="http://www.w3.org/2000/svg">
<path d="M22.8964 20.1378C22.8964 20.1378 23.032 19.374 23.1143 18.8581C23.1967 18.3462 23.3614 16.64 24.4221 16.5384C25.4829 16.4369 37.8975 16.5384 38.8807 16.5384C39.8592 16.5384 40.1062 17.4281 40.1886 17.9075C40.2709 18.3869 40.4937 20.2434 40.4065 20.2434C40.0723 20.2475 22.8964 20.1378 22.8964 20.1378Z" fill="#3E717A"/>
<path d="M19.6802 19.6219C19.6802 19.6219 19.1086 18.6956 18.7017 18.4925C18.2948 18.2853 8.53469 17.6881 5.84641 21.1534C3.15813 24.6188 2.54782 30.9319 2.29594 33.7147C2.04407 36.4975 2.04407 38.3338 2.04407 38.3338L35.1608 39.5403L60.6438 38.4394L60.3434 27.5925C60.2805 25.3338 60.203 21.5841 58.7644 20.6416C57.3258 19.6991 56.4491 19.9063 53.9449 19.8534C51.4406 19.8006 19.6802 19.6219 19.6802 19.6219Z" fill="#6BA4AB"/>
<path d="M2.05381 37.9113L60.7019 38.0941C60.7019 38.0941 60.9199 44.46 60.9199 45.0491C60.9199 45.6381 60.7019 46.3206 59.6169 46.3694C58.5319 46.4141 12.1337 46.6863 12.1337 46.6863L2.26694 46.2759C2.26694 46.2759 1.12865 45.9103 0.857405 45.0938C0.586155 44.2772 1.18194 40.0034 1.18194 40.0034L2.05381 37.9113Z" fill="#E0E0E0"/>
<path d="M0.83795 42.9528C0.83795 42.9528 2.34436 43.0625 2.60592 42.705C3.10483 42.0265 3.32764 38.8903 2.93529 38.5328C2.68342 38.3012 1.81154 38.4028 1.81154 38.4028C1.81154 38.4028 1.28357 39.3656 1.03654 40.6209C0.774981 41.9656 0.83795 42.9528 0.83795 42.9528Z" fill="#FF8D02"/>
<path d="M15.4709 46.6903C15.4709 46.6903 15.6598 45.2156 15.3353 43.8993C15.0059 42.5831 13.8095 39.6622 8.89793 39.6093C4.37872 39.5606 2.64465 42.6034 2.32012 44.1106C2.03918 45.4147 2.27653 46.2759 2.27653 46.2759C2.27653 46.2759 4.5434 46.5806 8.80106 46.7187C13.0587 46.8568 15.4709 46.6903 15.4709 46.6903ZM41.54 46.5237C41.54 46.5237 41.6029 43.9847 42.3779 42.6887C43.4484 40.8972 45.105 39.8247 48.2486 39.8247C51.3922 39.8247 53.3297 41.3725 54.0611 42.449C55.3204 44.3015 54.9136 46.3897 54.9136 46.3897L41.54 46.5237Z" fill="#868486"/>
<path d="M3.11942 45.8332C3.15332 47.6857 4.91645 50.3588 8.75754 50.3791C12.5986 50.3994 14.5894 47.9335 14.4683 45.4066C14.3472 42.8391 11.9641 41.0232 8.53957 41.1085C5.32817 41.1816 3.07098 43.2616 3.11942 45.8332Z" fill="#4E433D"/>
<path d="M5.78832 45.6747C5.80769 46.6538 6.75223 48.0594 8.81566 48.0716C10.8791 48.0838 11.8769 46.8569 11.8139 45.5244C11.7461 44.1716 10.4286 43.16 8.69941 43.1804C6.97988 43.2047 5.7641 44.3219 5.78832 45.6747Z" fill="#B2B1B2"/>
<path d="M42.7073 45.8656C42.7412 47.7059 44.4656 50.3547 48.2243 50.375C51.9831 50.3953 53.9303 47.9497 53.814 45.439C53.6929 42.8919 51.3631 41.0922 48.0112 41.1734C44.8725 41.2465 42.6637 43.3144 42.7073 45.8656Z" fill="#4E433D"/>
<path d="M45.2164 45.7194C45.2358 46.6985 46.1803 48.1041 48.2438 48.1163C50.3072 48.1285 51.305 46.9016 51.242 45.5691C51.1742 44.2163 49.8567 43.2047 48.1275 43.225C46.4031 43.2453 45.1922 44.3625 45.2164 45.7194Z" fill="#B2B1B2"/>
<path d="M25.667 35.9491C25.667 35.9491 55.3156 35.9978 56.2408 35.9491C57.1659 35.9003 58.3817 34.7832 58.4398 33.1825C58.4979 31.5819 58.2073 24.83 58.0911 24.0541C57.9748 23.2782 57.4033 21.7222 54.56 21.7222C52.3028 21.7222 10.8984 21.5272 9.85701 21.5272C8.81561 21.5272 7.26076 22.0432 6.56811 23.4488C5.87545 24.8544 4.60154 27.4422 4.29639 30.3591C3.98639 33.3572 4.01061 34.9782 4.24311 35.7541C4.47561 36.53 4.70811 37.4035 6.84904 37.4035H16.8659L16.987 46.6416L25.6622 46.6091L25.667 35.9491Z" fill="#454C52"/>
<path d="M60.6389 37.6756C60.6389 37.6756 59.4232 37.509 59.118 38.0656C58.8128 38.6221 58.7499 42.3434 59.2052 42.5059C59.6605 42.6684 60.8424 42.5424 60.8424 42.5424C60.8424 42.5424 60.8811 41.0718 60.7891 40.0034C60.668 38.5856 60.6389 37.6756 60.6389 37.6756Z" fill="#FF2A23"/>
<path d="M57.5777 38.0819L54.2597 38.0657C53.9255 38.0657 53.6543 37.8341 53.6591 37.5538C53.6591 37.2735 53.9304 37.05 54.2646 37.05H54.2694L57.5825 37.0663C57.9168 37.0663 58.188 37.2979 58.1832 37.5782C58.1783 37.8544 57.9119 38.0819 57.5777 38.0819ZM57.5341 39.9141L54.2161 39.8979C53.8819 39.8979 53.6107 39.6663 53.6155 39.386C53.6155 39.1057 53.8868 38.8822 54.221 38.8822H54.2258L57.5389 38.8985C57.8732 38.8985 58.1444 39.1301 58.1396 39.4104C58.1396 39.6866 57.8683 39.9141 57.5341 39.9141ZM57.5147 41.7544C57.5099 41.7544 57.5099 41.7544 57.5147 41.7544L54.1968 41.7382C53.8625 41.7382 53.5913 41.5066 53.5961 41.2263C53.5961 40.946 53.8674 40.7225 54.2016 40.7225H54.2064L57.5196 40.7388C57.8538 40.7388 58.125 40.9704 58.1202 41.2507C58.1154 41.531 57.8441 41.7544 57.5147 41.7544Z" fill="#454C52"/>
<path d="M16.7303 23.9606C16.7303 23.9606 9.45495 23.9606 8.86886 23.9971C8.28276 24.0337 7.7112 24.6349 7.20745 26.1056C6.67464 27.6534 5.72526 30.5906 5.94808 34.2428C5.99167 34.9212 6.75698 35.1081 7.38667 35.1081H16.7739L16.7303 23.9606Z" fill="#AFE3FB"/>
<path d="M8.82532 31.6103L8.6897 36.3553C8.6897 36.3553 11.068 36.7331 11.4749 36.205C11.8769 35.6769 11.8817 32.3659 11.5669 31.9475C10.9372 31.1187 8.82532 31.6103 8.82532 31.6103Z" fill="#868486"/>
<path d="M18.4353 25.1307H24.1848V45.3213H18.4837L18.4353 25.1307ZM25.9819 33.4913V24.0378H40.8037V33.4547L25.9819 33.4913ZM42.6008 24.0744V33.4182H54.9959C56.2505 33.4182 56.7106 32.7885 56.8462 31.6591C56.9819 30.5297 56.8269 26.256 56.7058 25.4719C56.5701 24.6066 55.9017 24.1719 54.7198 24.1272C53.4798 24.0785 42.6492 24.0378 42.6008 24.0744Z" fill="#AFE3FB"/>
</svg>
