<svg width="30" height="30" viewBox="0 0 30 30" fill="none" xmlns="http://www.w3.org/2000/svg">
<path d="M24.1008 22.7742C24.1879 22.8613 24.257 22.9647 24.3042 23.0785C24.3513 23.1923 24.3756 23.3143 24.3756 23.4375C24.3756 23.5607 24.3513 23.6826 24.3042 23.7964C24.257 23.9102 24.1879 24.0137 24.1008 24.1008C24.0137 24.1879 23.9103 24.257 23.7965 24.3041C23.6827 24.3512 23.5607 24.3755 23.4375 24.3755C23.3144 24.3755 23.1924 24.3512 23.0786 24.3041C22.9648 24.257 22.8614 24.1879 22.7743 24.1008L15 16.3254L7.22581 24.1008C7.0499 24.2767 6.81131 24.3755 6.56253 24.3755C6.31375 24.3755 6.07516 24.2767 5.89925 24.1008C5.72334 23.9248 5.62451 23.6863 5.62451 23.4375C5.62451 23.1887 5.72334 22.9501 5.89925 22.7742L13.6746 15L5.89925 7.22575C5.72334 7.04984 5.62451 6.81125 5.62451 6.56247C5.62451 6.31369 5.72334 6.0751 5.89925 5.89919C6.07516 5.72328 6.31375 5.62445 6.56253 5.62445C6.81131 5.62445 7.0499 5.72328 7.22581 5.89919L15 13.6746L22.7743 5.89919C22.9502 5.72328 23.1888 5.62445 23.4375 5.62445C23.6863 5.62445 23.9249 5.72328 24.1008 5.89919C24.2767 6.0751 24.3756 6.31369 24.3756 6.56247C24.3756 6.81125 24.2767 7.04984 24.1008 7.22575L16.3254 15L24.1008 22.7742Z" fill="black"/>
</svg>
