<svg width="37" height="38" viewBox="0 0 37 38" fill="none" xmlns="http://www.w3.org/2000/svg">
<path opacity="0.5" d="M33.5 15.8333H3.5V30.0833C3.5 31.3431 3.97411 32.5513 4.81802 33.442C5.66193 34.3328 6.80653 34.8333 8 34.8333H29C30.1935 34.8333 31.3381 34.3328 32.182 33.442C33.0259 32.5513 33.5 31.3431 33.5 30.0833V15.8333ZM11 12.6666C10.6022 12.6666 10.2206 12.4998 9.93934 12.2029C9.65804 11.9059 9.5 11.5032 9.5 11.0833V4.74996C9.5 4.33003 9.65804 3.92731 9.93934 3.63037C10.2206 3.33344 10.6022 3.16663 11 3.16663C11.3978 3.16663 11.7794 3.33344 12.0607 3.63037C12.342 3.92731 12.5 4.33003 12.5 4.74996V11.0833C12.5 11.5032 12.342 11.9059 12.0607 12.2029C11.7794 12.4998 11.3978 12.6666 11 12.6666ZM26 12.6666C25.6022 12.6666 25.2206 12.4998 24.9393 12.2029C24.658 11.9059 24.5 11.5032 24.5 11.0833V4.74996C24.5 4.33003 24.658 3.92731 24.9393 3.63037C25.2206 3.33344 25.6022 3.16663 26 3.16663C26.3978 3.16663 26.7794 3.33344 27.0607 3.63037C27.342 3.92731 27.5 4.33003 27.5 4.74996V11.0833C27.5 11.5032 27.342 11.9059 27.0607 12.2029C26.7794 12.4998 26.3978 12.6666 26 12.6666Z" fill="#699BF7"/>
<path d="M29 6.33337H27.5V11.0834C27.5 11.5033 27.342 11.906 27.0607 12.203C26.7794 12.4999 26.3978 12.6667 26 12.6667C25.6022 12.6667 25.2206 12.4999 24.9393 12.203C24.658 11.906 24.5 11.5033 24.5 11.0834V6.33337H12.5V11.0834C12.5 11.5033 12.342 11.906 12.0607 12.203C11.7794 12.4999 11.3978 12.6667 11 12.6667C10.6022 12.6667 10.2206 12.4999 9.93934 12.203C9.65804 11.906 9.5 11.5033 9.5 11.0834V6.33337H8C6.80653 6.33337 5.66193 6.83382 4.81802 7.72462C3.97411 8.61541 3.5 9.8236 3.5 11.0834V15.8334H33.5V11.0834C33.5 9.8236 33.0259 8.61541 32.182 7.72462C31.3381 6.83382 30.1935 6.33337 29 6.33337Z" fill="#699BF7"/>
</svg>
