<svg width="8" height="9" viewBox="0 0 8 9" fill="none" xmlns="http://www.w3.org/2000/svg">
<path d="M4.00002 0.500015C4.36702 0.500015 4.72102 0.548015 5.06302 0.645015C5.73068 0.828041 6.33838 1.18363 6.82502 1.67602C7.31701 2.1628 7.67224 2.77048 7.85502 3.43802C7.95202 3.77802 8.00002 4.13301 8.00002 4.50001C8.00002 4.86701 7.95202 5.22101 7.85502 5.56301C7.6729 6.2317 7.31761 6.84051 6.82502 7.32801C6.33627 7.81768 5.72934 8.17282 5.06302 8.35901C4.72002 8.45301 4.36702 8.50002 4.00002 8.50002C3.63302 8.50002 3.27902 8.45301 2.93702 8.36001C2.27022 8.17238 1.66258 7.81709 1.17202 7.32801C0.682769 6.83721 0.327465 6.2292 0.140024 5.56202C0.0458589 5.21591 -0.00123153 4.8587 2.44752e-05 4.50001C2.44752e-05 4.13301 0.0470243 3.77901 0.140024 3.43701C0.234007 3.10312 0.370811 2.78279 0.547024 2.48402C0.896215 1.89184 1.38907 1.39727 1.98002 1.04601C2.27995 0.870744 2.60174 0.735908 2.93702 0.645015C3.28296 0.547817 3.64069 0.49902 4.00002 0.500015Z" fill="#CB1515"/>
</svg>
