<svg width="8" height="8" viewBox="0 0 8 8" fill="none" xmlns="http://www.w3.org/2000/svg">
<path d="M4.00002 1.49112e-05C4.36702 1.49112e-05 4.72102 0.0480149 5.06302 0.145015C5.73068 0.328041 6.33838 0.683626 6.82502 1.17602C7.31701 1.6628 7.67224 2.27048 7.85502 2.93802C7.95202 3.27802 8.00002 3.63301 8.00002 4.00001C8.00002 4.36701 7.95202 4.72101 7.85502 5.06301C7.6729 5.7317 7.31761 6.34051 6.82502 6.82801C6.33627 7.31768 5.72934 7.67282 5.06302 7.85901C4.72002 7.95301 4.36702 8.00002 4.00002 8.00002C3.63302 8.00002 3.27902 7.95301 2.93702 7.86001C2.27022 7.67238 1.66258 7.31709 1.17202 6.82801C0.682769 6.33721 0.327465 5.7292 0.140024 5.06202C0.0458589 4.71591 -0.00123153 4.3587 2.44752e-05 4.00001C2.44752e-05 3.63301 0.0470243 3.27901 0.140024 2.93701C0.234007 2.60312 0.370811 2.28279 0.547024 1.98402C0.896215 1.39184 1.38907 0.897266 1.98002 0.546015C2.27995 0.370744 2.60174 0.235908 2.93702 0.145015C3.28296 0.0478173 3.64069 -0.000980003 4.00002 1.49112e-05Z" fill="#CB1515"/>
</svg>
