<svg width="20" height="20" viewBox="0 0 20 20" fill="none" xmlns="http://www.w3.org/2000/svg">
<g clip-path="url(#clip0_25_736)">
<path d="M3.05288 17.1929C2.09778 16.2704 1.33596 15.167 0.811868 13.9469C0.287778 12.7269 0.0119157 11.4147 0.000377568 10.0869C-0.0111606 8.7591 0.241856 7.44231 0.744665 6.21334C1.24747 4.98438 1.99001 3.86786 2.92893 2.92893C3.86786 1.99001 4.98438 1.24747 6.21334 0.744665C7.44231 0.241856 8.7591 -0.0111606 10.0869 0.000377568C11.4147 0.0119157 12.7269 0.287778 13.9469 0.811868C15.167 1.33596 16.2704 2.09778 17.1929 3.05288C19.0145 4.9389 20.0224 7.46493 19.9996 10.0869C19.9768 12.7089 18.9251 15.217 17.0711 17.0711C15.217 18.9251 12.7089 19.9768 10.0869 19.9996C7.46493 20.0224 4.9389 19.0145 3.05288 17.1929ZM11.5229 10.1229L14.3529 7.29288L12.9429 5.88288L10.1229 8.71288L7.29288 5.88288L5.88288 7.29288L8.71288 10.1229L5.88288 12.9529L7.29288 14.3629L10.1229 11.5329L12.9529 14.3629L14.3629 12.9529L11.5329 10.1229H11.5229Z" fill="black"/>
</g>
<defs>
<clipPath id="clip0_25_736">
<rect width="20" height="20" fill="white"/>
</clipPath>
</defs>
</svg>
