<svg width="36" height="36" viewBox="0 0 36 36" fill="none" xmlns="http://www.w3.org/2000/svg">
<path d="M23.625 29.25H4.5C3.90326 29.25 3.33097 29.0129 2.90901 28.591C2.48705 28.169 2.25 27.5967 2.25 27V9C2.25 8.40326 2.48705 7.83097 2.90901 7.40901C3.33097 6.98705 3.90326 6.75 4.5 6.75H23.625C24.2217 6.75 24.794 6.98705 25.216 7.40901C25.6379 7.83097 25.875 8.40326 25.875 9V13.5675L31.9725 9.21375C32.1404 9.0942 32.3379 9.02307 32.5435 9.00814C32.7491 8.99321 32.9548 9.03504 33.1382 9.12907C33.3217 9.22311 33.4757 9.36572 33.5836 9.54136C33.6915 9.71699 33.7491 9.91888 33.75 10.125V25.875C33.7491 26.0811 33.6915 26.283 33.5836 26.4586C33.4757 26.6343 33.3217 26.7769 33.1382 26.8709C32.9548 26.965 32.7491 27.0068 32.5435 26.9919C32.3379 26.9769 32.1404 26.9058 31.9725 26.7862L25.875 22.4325V27C25.875 27.5967 25.6379 28.169 25.216 28.591C24.794 29.0129 24.2217 29.25 23.625 29.25ZM4.5 9V27H23.625V20.25C23.6259 20.0439 23.6835 19.842 23.7914 19.6664C23.8993 19.4907 24.0533 19.3481 24.2368 19.2541C24.4202 19.16 24.6259 19.1182 24.8315 19.1331C25.0371 19.1481 25.2346 19.2192 25.4025 19.3388L31.5 23.6925V12.3075L25.4025 16.6613C25.2346 16.7808 25.0371 16.8519 24.8315 16.8669C24.6259 16.8818 24.4202 16.84 24.2368 16.7459C24.0533 16.6519 23.8993 16.5093 23.7914 16.3336C23.6835 16.158 23.6259 15.9561 23.625 15.75V9H4.5Z" fill="#444444"/>
</svg>
