<svg width="22" height="18" viewBox="0 0 22 18" fill="none" xmlns="http://www.w3.org/2000/svg">
<g clip-path="url(#clip0_108_7461)">
<path fill-rule="evenodd" clip-rule="evenodd" d="M12.8022 0.762585C13.0992 0.684384 13.41 0.64286 13.73 0.64286C15.833 0.64286 17.5377 2.43619 17.5377 4.64836C17.5377 6.86054 15.833 8.65385 13.73 8.65385C13.2359 8.65385 12.7638 8.55486 12.3306 8.3747C13.5083 7.47311 14.2739 6.01172 14.2739 4.36225C14.2739 2.94485 13.7086 1.66635 12.8022 0.762585ZM14.0556 9.54398H13.7061C15.4555 10.619 16.631 12.6153 16.631 14.9005V17.9311C16.631 17.9542 16.6306 17.9771 16.6299 18H18.3334C19.3459 18 20.1667 17.1365 20.1667 16.0714V15.9726C20.1667 12.4222 17.4307 9.54398 14.0556 9.54398Z" fill="#4A90E2"/>
<path d="M8.68996 9.54399H9.34138C12.7165 9.54399 15.4525 12.4222 15.4525 15.9726V16.0714C15.4525 17.1365 14.6317 18 13.6192 18H9.01567H4.41218C3.39967 18 2.57886 17.1365 2.57886 16.0714V15.9726C2.57886 12.4222 5.31489 9.54399 8.68996 9.54399Z" fill="#79B7FF"/>
<path d="M9.01579 8.65386C6.91285 8.65386 5.20809 6.86054 5.20809 4.64836C5.20809 2.43618 6.91285 0.64286 9.01579 0.64286C11.1187 0.64286 12.8235 2.43618 12.8235 4.64836C12.8235 6.86054 11.1187 8.65386 9.01579 8.65386Z" fill="#79B7FF"/>
</g>
<defs>
<clipPath id="clip0_108_7461">
<rect width="22" height="18" fill="white"/>
</clipPath>
</defs>
</svg>
