<svg width="38" height="35" viewBox="0 0 38 35" fill="none" xmlns="http://www.w3.org/2000/svg">
<path d="M19.1833 29.0083L19 29.1917L18.7983 29.0083C10.09 21.1067 4.33333 15.8817 4.33333 10.5833C4.33333 6.91667 7.08333 4.16667 10.75 4.16667C13.5733 4.16667 16.3233 6 17.295 8.49333H20.705C21.6767 6 24.4267 4.16667 27.25 4.16667C30.9167 4.16667 33.6667 6.91667 33.6667 10.5833C33.6667 15.8817 27.91 21.1067 19.1833 29.0083ZM27.25 0.5C24.06 0.5 20.9983 1.985 19 4.31333C17.0017 1.985 13.94 0.5 10.75 0.5C5.10333 0.5 0.666666 4.91833 0.666666 10.5833C0.666666 17.495 6.9 23.16 16.3417 31.7217L19 34.1417L21.6583 31.7217C31.1 23.16 37.3333 17.495 37.3333 10.5833C37.3333 4.91833 32.8967 0.5 27.25 0.5Z" fill="#F24E1E"/>
</svg>
