<svg xmlns="http://www.w3.org/2000/svg" xmlns:xlink="http://www.w3.org/1999/xlink" width="40" zoomAndPan="magnify" viewBox="0 0 30 30.000001" height="40" preserveAspectRatio="xMidYMid meet" version="1.0"><defs><clipPath id="48afc6c7c1"><path d="M 0.484375 1.714844 L 29.515625 1.714844 L 29.515625 27.21875 L 0.484375 27.21875 Z M 0.484375 1.714844 " clip-rule="nonzero"/></clipPath><clipPath id="421ecf1b49"><path d="M 1.636719 5.871094 C -0.71875 9.75 0.9375 13.523438 3.023438 15.527344 L 15.207031 27.21875 L 27.136719 15.570312 C 29.074219 13.414062 29.820312 11.128906 29.40625 8.582031 C 28.835938 5.0625 25.933594 2.328125 22.347656 1.9375 C 20.152344 1.703125 18.027344 2.324219 16.371094 3.703125 C 15.921875 4.070312 15.523438 4.488281 15.175781 4.9375 C 14.765625 4.425781 14.28125 3.953125 13.734375 3.539062 C 11.828125 2.089844 9.402344 1.515625 7.070312 1.960938 C 4.863281 2.390625 2.882812 3.8125 1.636719 5.871094 Z M 1.636719 5.871094 " clip-rule="nonzero"/></clipPath><clipPath id="06aa2f147d"><path d="M 0.484375 1.816406 L 29.515625 1.816406 L 29.515625 27.21875 L 0.484375 27.21875 Z M 0.484375 1.816406 " clip-rule="nonzero"/></clipPath><clipPath id="6cdd7d4307"><path d="M 1.636719 5.871094 C -0.71875 9.75 0.9375 13.523438 3.023438 15.527344 L 15.207031 27.21875 L 27.136719 15.570312 C 29.074219 13.414062 29.820312 11.128906 29.40625 8.582031 C 28.835938 5.0625 25.933594 2.328125 22.347656 1.9375 C 20.152344 1.703125 18.027344 2.324219 16.371094 3.703125 C 15.921875 4.070312 15.523438 4.488281 15.175781 4.9375 C 14.765625 4.425781 14.28125 3.953125 13.734375 3.539062 C 11.828125 2.089844 9.402344 1.515625 7.070312 1.960938 C 4.863281 2.390625 2.882812 3.8125 1.636719 5.871094 Z M 1.636719 5.871094 " clip-rule="nonzero"/></clipPath></defs><g clip-path="url(#48afc6c7c1)"><g clip-path="url(#421ecf1b49)"><path fill="#fdfffc" d="M 0.484375 1.816406 L 29.558594 1.816406 L 29.558594 27.21875 L 0.484375 27.21875 Z M 0.484375 1.816406 " fill-opacity="1" fill-rule="nonzero"/></g></g><g clip-path="url(#06aa2f147d)"><g clip-path="url(#6cdd7d4307)"><path stroke-linecap="butt" transform="matrix(0.725806, 0, 0, 0.725806, 0.48387, 1.814518)" fill="none" stroke-linejoin="miter" d="M 1.588369 5.58906 C -1.656944 10.933331 0.625001 16.132289 3.498959 18.893227 L 20.285244 35.001387 L 36.721702 18.952428 C 39.391147 15.981595 40.419098 12.833157 39.848612 9.324129 C 39.062848 4.474997 35.064063 0.707636 30.123438 0.169442 C 27.098786 -0.153475 24.171008 0.702254 21.889063 2.602081 C 21.27014 3.107983 20.721181 3.683852 20.242188 4.302775 C 19.677084 3.59774 19.009723 2.946525 18.256251 2.376039 C 15.629862 0.379338 12.287674 -0.411808 9.074654 0.201733 C 6.033855 0.793747 3.305209 2.752775 1.588369 5.58906 Z M 1.588369 5.58906 " stroke="#000000" stroke-width="1" stroke-opacity="1" stroke-miterlimit="4"/></g></g></svg>