<svg width="36" height="36" viewBox="0 0 36 36" fill="none" xmlns="http://www.w3.org/2000/svg">
<path d="M29.475 4.5H6.525C5.98794 4.5 5.47287 4.71335 5.09311 5.09311C4.71335 5.47287 4.5 5.98794 4.5 6.525V29.475C4.5 30.0121 4.71335 30.5271 5.09311 30.9069C5.47287 31.2867 5.98794 31.5 6.525 31.5H29.475C30.0121 31.5 30.5271 31.2867 30.9069 30.9069C31.2867 30.5271 31.5 30.0121 31.5 29.475V6.525C31.5 5.98794 31.2867 5.47287 30.9069 5.09311C30.5271 4.71335 30.0121 4.5 29.475 4.5Z" stroke="#444444" stroke-width="3"/>
<path d="M13.5 4.5V31.5M22.5 4.5V31.5M4.5 13.5H31.5M4.5 22.5H31.5" stroke="#444444" stroke-width="3" stroke-linecap="round"/>
</svg>
