<svg width="36" height="36" viewBox="0 0 36 36" fill="none" xmlns="http://www.w3.org/2000/svg">
<path d="M15 19.5C15.6442 20.3612 16.466 21.0738 17.4098 21.5894C18.3536 22.105 19.3973 22.4117 20.47 22.4885C21.5427 22.5653 22.6194 22.4105 23.627 22.0347C24.6347 21.6588 25.5497 21.0706 26.31 20.31L30.81 15.81C32.1762 14.3955 32.9321 12.501 32.9151 10.5345C32.898 8.56801 32.1092 6.68692 30.7186 5.29635C29.3281 3.90579 27.447 3.11703 25.4805 3.09994C23.514 3.08285 21.6195 3.83881 20.205 5.20499L17.625 7.76999" stroke="#444444" stroke-width="3" stroke-linecap="round" stroke-linejoin="round"/>
<path d="M21.0001 16.5C20.3559 15.6388 19.534 14.9262 18.5902 14.4106C17.6464 13.895 16.6028 13.5883 15.5301 13.5115C14.4574 13.4347 13.3807 13.5895 12.373 13.9653C11.3654 14.3412 10.4504 14.9294 9.69006 15.69L5.19006 20.19C3.82387 21.6045 3.06791 23.499 3.085 25.4655C3.10209 27.432 3.89086 29.3131 5.28142 30.7036C6.67198 32.0942 8.55307 32.883 10.5195 32.9001C12.486 32.9171 14.3805 32.1612 15.7951 30.795L18.3601 28.23" stroke="#444444" stroke-width="3" stroke-linecap="round" stroke-linejoin="round"/>
</svg>
