<svg width="36" height="36" viewBox="0 0 36 36" fill="none" xmlns="http://www.w3.org/2000/svg">
<path d="M18 15V24M13.5 19.5H22.5M30 30C30.7956 30 31.5587 29.6839 32.1213 29.1213C32.6839 28.5587 33 27.7956 33 27V12C33 11.2044 32.6839 10.4413 32.1213 9.87868C31.5587 9.31607 30.7956 9 30 9H18.15C17.6483 9.00492 17.1533 8.88392 16.7105 8.64807C16.2676 8.41222 15.8909 8.06906 15.615 7.65L14.4 5.85C14.1268 5.4352 13.755 5.09472 13.3177 4.85909C12.8805 4.62347 12.3917 4.50008 11.895 4.5H6C5.20435 4.5 4.44129 4.81607 3.87868 5.37868C3.31607 5.94129 3 6.70435 3 7.5V27C3 27.7956 3.31607 28.5587 3.87868 29.1213C4.44129 29.6839 5.20435 30 6 30H30Z" stroke="#444444" stroke-width="3" stroke-linecap="round" stroke-linejoin="round"/>
</svg>
