<svg width="36" height="36" viewBox="0 0 36 36" fill="none" xmlns="http://www.w3.org/2000/svg">
<path d="M18 8.4375C16.7762 8.4375 15.5799 8.80039 14.5624 9.48028C13.5449 10.1602 12.7518 11.1265 12.2835 12.2571C11.8152 13.3878 11.6926 14.6319 11.9314 15.8321C12.1701 17.0324 12.7594 18.1349 13.6248 19.0002C14.4901 19.8656 15.5926 20.4549 16.7929 20.6936C17.9931 20.9324 19.2372 20.8098 20.3679 20.3415C21.4985 19.8732 22.4648 19.0801 23.1447 18.0626C23.8246 17.0451 24.1875 15.8488 24.1875 14.625C24.1856 12.9845 23.5331 11.4118 22.3732 10.2518C21.2132 9.09185 19.6405 8.43936 18 8.4375ZM18 17.4375C17.4437 17.4375 16.9 17.2725 16.4375 16.9635C15.9749 16.6545 15.6145 16.2152 15.4016 15.7013C15.1887 15.1874 15.133 14.6219 15.2415 14.0763C15.3501 13.5307 15.6179 13.0296 16.0113 12.6363C16.4046 12.2429 16.9057 11.9751 17.4513 11.8665C17.9969 11.758 18.5624 11.8137 19.0763 12.0266C19.5902 12.2395 20.0295 12.5999 20.3385 13.0625C20.6475 13.525 20.8125 14.0687 20.8125 14.625C20.8125 15.3709 20.5162 16.0863 19.9887 16.6137C19.4613 17.1412 18.7459 17.4375 18 17.4375ZM18 1.6875C14.5699 1.69122 11.2814 3.05547 8.85592 5.48092C6.43047 7.90636 5.06622 11.1949 5.0625 14.625C5.0625 25.5037 16.5431 33.6656 17.0325 34.0073C17.3161 34.2058 17.6539 34.3122 18 34.3122C18.3461 34.3122 18.6839 34.2058 18.9675 34.0073C21.1419 32.4048 23.1314 30.5654 24.8991 28.523C28.8492 23.9864 30.9375 19.177 30.9375 14.625C30.9338 11.1949 29.5695 7.90636 27.1441 5.48092C24.7186 3.05547 21.4301 1.69122 18 1.6875ZM22.4016 26.2561C21.0607 27.7962 19.5879 29.2163 18 30.5002C16.4121 29.2163 14.9393 27.7962 13.5984 26.2561C11.25 23.5364 8.4375 19.3092 8.4375 14.625C8.4375 12.0889 9.44497 9.65661 11.2383 7.86329C13.0316 6.06997 15.4639 5.0625 18 5.0625C20.5361 5.0625 22.9684 6.06997 24.7617 7.86329C26.555 9.65661 27.5625 12.0889 27.5625 14.625C27.5625 19.3092 24.75 23.5364 22.4016 26.2561Z" fill="#444444"/>
</svg>
