<svg width="36" height="36" viewBox="0 0 36 36" fill="none" xmlns="http://www.w3.org/2000/svg">
<g clip-path="url(#clip0_100_1950)">
<path d="M30 4.5C30.7569 4.49976 31.4858 4.78561 32.0408 5.30025C32.5958 5.81488 32.9357 6.52027 32.9925 7.275L33 7.5V28.5C33.0002 29.2569 32.7144 29.9858 32.1998 30.5408C31.6851 31.0958 30.9797 31.4357 30.225 31.4925L30 31.5H6C5.24314 31.5002 4.51415 31.2144 3.95918 30.6998C3.40421 30.1851 3.06427 29.4797 3.0075 28.725L3 28.5V7.5C2.99976 6.74314 3.28561 6.01415 3.80025 5.45918C4.31488 4.90421 5.02027 4.56427 5.775 4.5075L6 4.5H30ZM14.8185 18.075L6.333 26.5605C6.23427 26.6596 6.12219 26.7444 6 26.8125V28.5H30V26.8125C29.8778 26.7444 29.7657 26.6596 29.667 26.5605L25.425 22.32L24.3645 23.3805L24.675 23.691C24.8143 23.8304 24.9247 23.9958 25.0001 24.1778C25.0754 24.3599 25.1141 24.555 25.1141 24.752C25.114 24.9491 25.0751 25.1441 24.9996 25.3261C24.9242 25.5081 24.8136 25.6735 24.6742 25.8127C24.5349 25.952 24.3695 26.0625 24.1874 26.1378C24.0054 26.2131 23.8102 26.2519 23.6132 26.2518C23.4162 26.2517 23.2211 26.2129 23.0391 26.1374C22.8571 26.0619 22.6918 25.9514 22.5525 25.812L14.82 18.075H14.8185ZM30 7.5H6V22.65L13.4925 15.159C13.8191 14.8325 14.2547 14.638 14.7159 14.6128C15.177 14.5876 15.6313 14.7335 15.9915 15.0225L16.143 15.1575L22.242 21.258L24.099 19.401C24.4256 19.0745 24.8612 18.88 25.3224 18.8548C25.7835 18.8296 26.2378 18.9755 26.598 19.2645L26.751 19.401L30 22.6515V7.5ZM23.25 10.5C23.8467 10.5 24.419 10.7371 24.841 11.159C25.2629 11.581 25.5 12.1533 25.5 12.75C25.5 13.3467 25.2629 13.919 24.841 14.341C24.419 14.7629 23.8467 15 23.25 15C22.6533 15 22.081 14.7629 21.659 14.341C21.2371 13.919 21 13.3467 21 12.75C21 12.1533 21.2371 11.581 21.659 11.159C22.081 10.7371 22.6533 10.5 23.25 10.5Z" fill="#444444"/>
</g>
<defs>
<clipPath id="clip0_100_1950">
<rect width="36" height="36" fill="white"/>
</clipPath>
</defs>
</svg>
