<svg width="80" height="80" viewBox="0 0 80 80" fill="none" xmlns="http://www.w3.org/2000/svg">
<path d="M53.3333 6.66699H26.6667C24.8986 6.66699 23.2029 7.36937 21.9526 8.61961C20.7024 9.86986 20 11.5655 20 13.3337V66.667C20 68.4351 20.7024 70.1308 21.9526 71.381C23.2029 72.6313 24.8986 73.3337 26.6667 73.3337H53.3333C55.1014 73.3337 56.7971 72.6313 58.0474 71.381C59.2976 70.1308 60 68.4351 60 66.667V13.3337C60 11.5655 59.2976 9.86986 58.0474 8.61961C56.7971 7.36937 55.1014 6.66699 53.3333 6.66699ZM43.3333 70.0003H36.6667V66.667H43.3333V70.0003ZM53.3333 63.3337H26.6667V16.667H53.3333V63.3337Z" fill="black"/>
</svg>
