<svg width="523" height="644" viewBox="0 0 523 644" fill="none" xmlns="http://www.w3.org/2000/svg">
<path d="M154.5 287L257.5 214M154.5 287L305.5 346.5M154.5 287L400 269.5M154.5 287L366.5 144.5M154.5 287L499 201M154.5 287L522.5 320.5M154.5 287L452.5 393M154.5 287L318.5 461.5M154.5 287L452.5 519.5M154.5 287L185 415M154.5 287L318.5 581M154.5 287L174.5 549M154.5 287L174.5 643.5M154.5 287L343.5 42.5M154.5 287L219.5 102M154.5 287L185 1.5M154.5 287L1.5 1.5M154.5 287L63.5 109.5" stroke="#858585" stroke-width="3"/>
</svg>
