<svg width="24" height="24" viewBox="0 0 24 24" fill="none" xmlns="http://www.w3.org/2000/svg">
<path d="M14.049 22.5214C14.7724 22.5214 15.2846 21.8991 15.6561 20.9349L22.2356 3.74829C22.4164 3.28629 22.527 2.87443 22.527 2.53286C22.527 1.88015 22.1151 1.47858 21.462 1.47858C21.1204 1.47858 20.7086 1.57886 20.2466 1.75972L2.97 8.37858C2.12571 8.7 1.473 9.21215 1.473 9.94543C1.473 10.8694 2.17629 11.181 3.14057 11.4724L10.3929 13.6016L12.5023 20.7634C12.8036 21.7779 13.1151 22.5214 14.0494 22.5214M10.8454 12.0754L3.91414 9.95572C3.75343 9.90515 3.70329 9.86486 3.70329 9.79458C3.70329 9.72429 3.74314 9.67458 3.894 9.61415L17.4741 4.47129C18.2777 4.17001 19.0513 3.76801 19.7944 3.42643C19.1319 3.96901 18.3081 4.61186 17.7557 5.16429L10.8454 12.0754ZM14.2101 20.3121C14.13 20.3121 14.0897 20.2414 14.0396 20.0807L11.9199 13.1503L18.8306 6.23958C19.3731 5.69701 20.046 4.85315 20.5787 4.17043C20.2371 4.93329 19.8351 5.70686 19.524 6.52072L14.3811 20.1009C14.3207 20.2517 14.2804 20.3121 14.2101 20.3121Z" fill="black"/>
</svg>
