<svg width="468" height="56" viewBox="0 0 468 56" fill="none" xmlns="http://www.w3.org/2000/svg">
<path d="M74 41.5C71.33 41.5 68.7199 40.7082 66.4998 39.2248C64.2797 37.7414 62.5494 35.633 61.5276 33.1662C60.5058 30.6994 60.2385 27.985 60.7594 25.3663C61.2803 22.7475 62.5661 20.3421 64.4541 18.4541C66.3421 16.5661 68.7475 15.2803 71.3663 14.7594C73.985 14.2385 76.6994 14.5058 79.1662 15.5276C81.633 16.5494 83.7414 18.2797 85.2248 20.4998C86.7082 22.7199 87.5 25.33 87.5 28C87.5 30.232 86.96 32.335 86 34.1905L87.5 41.5L80.1905 40C78.3365 40.9585 76.2305 41.5 74 41.5Z" stroke="black" stroke-width="2.25" stroke-linecap="round" stroke-linejoin="round"/>
<path d="M25.0312 15.625C22.1273 15.625 19.5848 16.8737 18 18.9845C16.4152 16.8737 13.8727 15.625 10.9688 15.625C8.65719 15.6276 6.44106 16.547 4.80654 18.1815C3.17202 19.8161 2.25261 22.0322 2.25 24.3438C2.25 34.1875 16.8455 42.1553 17.467 42.4844C17.6309 42.5725 17.814 42.6186 18 42.6186C18.186 42.6186 18.3691 42.5725 18.533 42.4844C19.1545 42.1553 33.75 34.1875 33.75 24.3438C33.7474 22.0322 32.828 19.8161 31.1935 18.1815C29.5589 16.547 27.3428 15.6276 25.0312 15.625ZM18 40.2063C15.4322 38.71 4.5 31.8939 4.5 24.3438C4.50223 22.6288 5.18448 20.9848 6.39712 19.7721C7.60976 18.5595 9.25382 17.8772 10.9688 17.875C13.7039 17.875 16.0003 19.3319 16.9594 21.6719C17.0441 21.8782 17.1883 22.0547 17.3736 22.1789C17.5589 22.3031 17.7769 22.3694 18 22.3694C18.2231 22.3694 18.4411 22.3031 18.6264 22.1789C18.8117 22.0547 18.9559 21.8782 19.0406 21.6719C19.9997 19.3277 22.2961 17.875 25.0312 17.875C26.7462 17.8772 28.3902 18.5595 29.6029 19.7721C30.8155 20.9848 31.4978 22.6288 31.5 24.3438C31.5 31.8827 20.565 38.7086 18 40.2063Z" fill="black"/>
<path d="M133.074 43.7821C134.159 43.7821 134.927 42.8487 135.484 41.4023L145.353 15.6224C145.625 14.9294 145.791 14.3117 145.791 13.7993C145.791 12.8202 145.173 12.2179 144.193 12.2179C143.681 12.2179 143.063 12.3683 142.37 12.6396L116.455 22.5679C115.189 23.05 114.21 23.8182 114.21 24.9181C114.21 26.3041 115.264 26.7715 116.711 27.2086L127.589 30.4024L130.753 41.1452C131.205 42.6668 131.673 43.7821 133.074 43.7821M128.268 28.1132L117.871 24.9336C117.63 24.8577 117.555 24.7973 117.555 24.6919C117.555 24.5864 117.615 24.5119 117.841 24.4212L138.211 16.7069C139.417 16.255 140.577 15.652 141.692 15.1397C140.698 15.9535 139.462 16.9178 138.634 17.7464L128.268 28.1132ZM133.315 40.4682C133.195 40.4682 133.135 40.3622 133.059 40.1211L129.88 29.7254L140.246 19.3594C141.06 18.5455 142.069 17.2797 142.868 16.2557C142.356 17.3999 141.753 18.5603 141.286 19.7811L133.572 40.1513C133.481 40.3776 133.421 40.4682 133.315 40.4682Z" fill="black"/>
</svg>
