<svg width="463" height="40" viewBox="0 0 463 40" fill="none" xmlns="http://www.w3.org/2000/svg">
<mask id="path-1-inside-1_30_39" fill="white">
<path d="M0 0H463V40H0V0Z"/>
</mask>
<path d="M463 39H0V41H463V39Z" fill="#D9D9D9" mask="url(#path-1-inside-1_30_39)"/>
<path d="M17 18H17.01M23 18H23.01M11 20C11 21.1819 11.2328 22.3522 11.6851 23.4442C12.1374 24.5361 12.8003 25.5282 13.636 26.364C14.4718 27.1997 15.4639 27.8626 16.5558 28.3149C17.6478 28.7672 18.8181 29 20 29C21.1819 29 22.3522 28.7672 23.4442 28.3149C24.5361 27.8626 25.5282 27.1997 26.364 26.364C27.1997 25.5282 27.8626 24.5361 28.3149 23.4442C28.7672 22.3522 29 21.1819 29 20C29 18.8181 28.7672 17.6478 28.3149 16.5558C27.8626 15.4639 27.1997 14.4718 26.364 13.636C25.5282 12.8003 24.5361 12.1374 23.4442 11.6851C22.3522 11.2328 21.1819 11 20 11C18.8181 11 17.6478 11.2328 16.5558 11.6851C15.4639 12.1374 14.4718 12.8003 13.636 13.636C12.8003 14.4718 12.1374 15.4639 11.6851 16.5558C11.2328 17.6478 11 18.8181 11 20Z" stroke="black" stroke-width="2" stroke-linecap="round" stroke-linejoin="round"/>
<path d="M17.5 23C17.8259 23.3326 18.2148 23.5968 18.6441 23.7772C19.0734 23.9576 19.5344 24.0505 20 24.0505C20.4656 24.0505 20.9266 23.9576 21.3559 23.7772C21.7852 23.5968 22.1741 23.3326 22.5 23" stroke="black" stroke-width="2" stroke-linecap="round" stroke-linejoin="round"/>
</svg>
