<svg width="36" height="36" viewBox="0 0 36 36" fill="none" xmlns="http://www.w3.org/2000/svg">
<path d="M33.75 14.3438C33.75 24.1875 19.1545 32.1553 18.533 32.4844C18.3691 32.5725 18.186 32.6186 18 32.6186C17.814 32.6186 17.6309 32.5725 17.467 32.4844C16.8455 32.1553 2.25 24.1875 2.25 14.3438C2.25261 12.0322 3.17202 9.81606 4.80654 8.18154C6.44106 6.54702 8.65719 5.62761 10.9688 5.625C13.8727 5.625 16.4152 6.87375 18 8.98453C19.5848 6.87375 22.1273 5.625 25.0312 5.625C27.3428 5.62761 29.5589 6.54702 31.1935 8.18154C32.828 9.81606 33.7474 12.0322 33.75 14.3438Z" fill="#F24E1E"/>
</svg>
