<svg width="120" height="40" viewBox="0 0 120 40" fill="none" xmlns="http://www.w3.org/2000/svg">
<path d="M23.6875 11.75C21.7516 11.75 20.0566 12.5825 19 13.9897C17.9434 12.5825 16.2484 11.75 14.3125 11.75C12.7715 11.7517 11.294 12.3647 10.2044 13.4544C9.11468 14.544 8.50174 16.0215 8.5 17.5625C8.5 24.125 18.2303 29.4369 18.6447 29.6562C18.7539 29.715 18.876 29.7458 19 29.7458C19.124 29.7458 19.2461 29.715 19.3553 29.6562C19.7697 29.4369 29.5 24.125 29.5 17.5625C29.4983 16.0215 28.8853 14.544 27.7956 13.4544C26.706 12.3647 25.2285 11.7517 23.6875 11.75ZM19 28.1375C17.2881 27.14 10 22.5959 10 17.5625C10.0015 16.4192 10.4563 15.3232 11.2647 14.5147C12.0732 13.7063 13.1692 13.2515 14.3125 13.25C16.1359 13.25 17.6669 14.2213 18.3062 15.7812C18.3628 15.9188 18.4589 16.0365 18.5824 16.1193C18.7059 16.2021 18.8513 16.2463 19 16.2463C19.1487 16.2463 19.2941 16.2021 19.4176 16.1193C19.5411 16.0365 19.6372 15.9188 19.6937 15.7812C20.3331 14.2184 21.8641 13.25 23.6875 13.25C24.8308 13.2515 25.9268 13.7063 26.7353 14.5147C27.5437 15.3232 27.9985 16.4192 28 17.5625C28 22.5884 20.71 27.1391 19 28.1375Z" fill="black"/>
<path d="M60 29C58.22 29 56.4799 28.4722 54.9999 27.4832C53.5198 26.4943 52.3663 25.0887 51.6851 23.4442C51.0039 21.7996 50.8257 19.99 51.1729 18.2442C51.5202 16.4984 52.3774 14.8947 53.636 13.636C54.8947 12.3774 56.4984 11.5202 58.2442 11.1729C59.99 10.8257 61.7996 11.0039 63.4442 11.6851C65.0887 12.3663 66.4943 13.5198 67.4832 14.9999C68.4722 16.4799 69 18.22 69 20C69 21.488 68.64 22.89 68 24.127L69 29L64.127 28C62.891 28.639 61.487 29 60 29Z" stroke="black" stroke-width="1.5" stroke-linecap="round" stroke-linejoin="round"/>
<path d="M102.049 30.5214C102.772 30.5214 103.285 29.8991 103.656 28.9349L110.236 11.7483C110.416 11.2863 110.527 10.8744 110.527 10.5329C110.527 9.88015 110.115 9.47858 109.462 9.47858C109.12 9.47858 108.709 9.57886 108.247 9.75972L90.97 16.3786C90.1257 16.7 89.473 17.2121 89.473 17.9454C89.473 18.8694 90.1763 19.181 91.1406 19.4724L98.3929 21.6016L100.502 28.7634C100.804 29.7779 101.115 30.5214 102.049 30.5214M98.8455 20.0754L91.9142 17.9557C91.7535 17.9051 91.7033 17.8649 91.7033 17.7946C91.7033 17.7243 91.7432 17.6746 91.894 17.6141L105.474 12.4713C106.278 12.17 107.051 11.768 107.794 11.4264C107.132 11.969 106.308 12.6119 105.756 13.1643L98.8455 20.0754ZM102.21 28.3121C102.13 28.3121 102.09 28.2414 102.04 28.0807L99.9199 21.1503L106.831 14.2396C107.373 13.697 108.046 12.8531 108.579 12.1704C108.237 12.9333 107.835 13.7069 107.524 14.5207L102.381 28.1009C102.321 28.2517 102.28 28.3121 102.21 28.3121Z" fill="black"/>
</svg>
