<svg width="534" height="44" viewBox="0 0 534 44" fill="none" xmlns="http://www.w3.org/2000/svg">
<path d="M126.073 37.7822C127.159 37.7822 127.927 36.8488 128.484 35.4023L138.353 9.62247C138.625 8.92947 138.79 8.31168 138.79 7.79932C138.79 6.82025 138.173 6.2179 137.193 6.2179C136.681 6.2179 136.063 6.36832 135.37 6.63961L109.455 16.5679C108.189 17.05 107.209 17.8183 107.209 18.9182C107.209 20.3042 108.264 20.7715 109.711 21.2087L120.589 24.4024L123.753 35.1452C124.205 36.6668 124.673 37.7822 126.074 37.7822M121.268 22.1132L110.871 18.9336C110.63 18.8578 110.555 18.7973 110.555 18.6919C110.555 18.5865 110.615 18.5119 110.841 18.4213L131.211 10.707C132.417 10.255 133.577 9.65204 134.692 9.13968C133.698 9.95354 132.462 10.9178 131.634 11.7465L121.268 22.1132ZM126.315 34.4683C126.195 34.4683 126.135 34.3622 126.059 34.1211L122.88 23.7255L133.246 13.3594C134.06 12.5455 135.069 11.2798 135.868 10.2557C135.356 11.4 134.753 12.5603 134.286 13.7811L126.572 34.1513C126.481 34.3776 126.421 34.4683 126.315 34.4683Z" fill="black"/>
<path d="M79 35.5C76.33 35.5 73.7199 34.7082 71.4998 33.2248C69.2797 31.7414 67.5494 29.633 66.5276 27.1662C65.5058 24.6994 65.2385 21.985 65.7594 19.3663C66.2803 16.7475 67.5661 14.3421 69.4541 12.4541C71.3421 10.5661 73.7475 9.28031 76.3663 8.7594C78.985 8.2385 81.6994 8.50585 84.1662 9.52763C86.633 10.5494 88.7414 12.2797 90.2248 14.4998C91.7082 16.7199 92.5 19.33 92.5 22C92.5 24.232 91.96 26.335 91 28.1905L92.5 35.5L85.1905 34C83.3365 34.9585 81.2305 35.5 79 35.5Z" stroke="black" stroke-width="2.25" stroke-linecap="round" stroke-linejoin="round"/>
<path d="M42.0312 9.625C39.1273 9.625 36.5848 10.8737 35 12.9845C33.4152 10.8737 30.8727 9.625 27.9688 9.625C25.6572 9.62761 23.4411 10.547 21.8065 12.1815C20.172 13.8161 19.2526 16.0322 19.25 18.3438C19.25 28.1875 33.8455 36.1553 34.467 36.4844C34.6309 36.5725 34.814 36.6186 35 36.6186C35.186 36.6186 35.3691 36.5725 35.533 36.4844C36.1545 36.1553 50.75 28.1875 50.75 18.3438C50.7474 16.0322 49.828 13.8161 48.1935 12.1815C46.5589 10.547 44.3428 9.62761 42.0312 9.625ZM35 34.2063C32.4322 32.71 21.5 25.8939 21.5 18.3438C21.5022 16.6288 22.1845 14.9848 23.3971 13.7721C24.6098 12.5595 26.2538 11.8772 27.9688 11.875C30.7039 11.875 33.0003 13.3319 33.9594 15.6719C34.0441 15.8782 34.1883 16.0547 34.3736 16.1789C34.5589 16.3031 34.7769 16.3694 35 16.3694C35.2231 16.3694 35.4411 16.3031 35.6264 16.1789C35.8117 16.0547 35.9559 15.8782 36.0406 15.6719C36.9997 13.3277 39.2961 11.875 42.0312 11.875C43.7462 11.8772 45.3902 12.5595 46.6029 13.7721C47.8155 14.9848 48.4978 16.6288 48.5 18.3438C48.5 25.8827 37.565 32.7086 35 34.2063Z" fill="black"/>
</svg>
