<svg width="24" height="932" viewBox="0 0 24 932" fill="none" xmlns="http://www.w3.org/2000/svg">
<g opacity="0.4">
<path d="M2 14L12 2L22 14H2Z" fill="#535C63" stroke="#535C63" stroke-width="4" stroke-linejoin="round"/>
<path d="M2 71L12 59L22 71H2Z" fill="#535C63" stroke="#535C63" stroke-width="4" stroke-linejoin="round"/>
<path d="M2 128L12 116L22 128H2Z" fill="#535C63" stroke="#535C63" stroke-width="4" stroke-linejoin="round"/>
<path d="M2 185L12 173L22 185H2Z" fill="#535C63" stroke="#535C63" stroke-width="4" stroke-linejoin="round"/>
<path d="M2 242L12 230L22 242H2Z" fill="#535C63" stroke="#535C63" stroke-width="4" stroke-linejoin="round"/>
<path d="M2 299L12 287L22 299H2Z" fill="#535C63" stroke="#535C63" stroke-width="4" stroke-linejoin="round"/>
<path d="M2 356L12 344L22 356H2Z" fill="#535C63" stroke="#535C63" stroke-width="4" stroke-linejoin="round"/>
<path d="M2 413L12 401L22 413H2Z" fill="#535C63" stroke="#535C63" stroke-width="4" stroke-linejoin="round"/>
<path d="M2 470L12 458L22 470H2Z" fill="#535C63" stroke="#535C63" stroke-width="4" stroke-linejoin="round"/>
<path d="M2 527L12 515L22 527H2Z" fill="#535C63" stroke="#535C63" stroke-width="4" stroke-linejoin="round"/>
<path d="M2 584L12 572L22 584H2Z" fill="#535C63" stroke="#535C63" stroke-width="4" stroke-linejoin="round"/>
<path d="M2 641L12 629L22 641H2Z" fill="#535C63" stroke="#535C63" stroke-width="4" stroke-linejoin="round"/>
<path d="M2 698L12 686L22 698H2Z" fill="#535C63" stroke="#535C63" stroke-width="4" stroke-linejoin="round"/>
<path d="M2 755L12 743L22 755H2Z" fill="#535C63" stroke="#535C63" stroke-width="4" stroke-linejoin="round"/>
<path d="M2 812L12 800L22 812H2Z" fill="#535C63" stroke="#535C63" stroke-width="4" stroke-linejoin="round"/>
<path d="M2 869L12 857L22 869H2Z" fill="#535C63" stroke="#535C63" stroke-width="4" stroke-linejoin="round"/>
<path d="M2 926L12 914L22 926H2Z" fill="#535C63" stroke="#535C63" stroke-width="4" stroke-linejoin="round"/>
</g>
</svg>
