<svg width="57" height="57" viewBox="0 0 57 57" fill="none" xmlns="http://www.w3.org/2000/svg">
<path d="M14.2571 56H42.7429C45.479 56 46.8512 56 47.9842 55.4956C51.845 53.7706 54.8588 47.8693 55.7415 40.3137C56 38.0944 56 35.4211 56 30.0596V6.80242C55.9973 0.548061 54.612 1.00811 51.4167 1.00811C48.2186 1.00811 45.3056 0.543017 45.3056 6.80242V22.2207V39.7444H31.5556H13.2222V21.2984V6.80242C13.2222 0.548061 10.3092 1.00777 7.11111 1.00777C3.91302 1.00777 1 0.543017 1 6.80242V30.0596C1 35.4211 1 38.0994 1.25849 40.3137C2.13844 47.8693 5.15504 53.7706 9.0186 55.4956C10.1488 56 11.521 56 14.2571 56Z" stroke="black" stroke-width="1.5" stroke-linejoin="round"/>
</svg>
