<svg width="57" height="57" viewBox="0 0 57 57" fill="none" xmlns="http://www.w3.org/2000/svg">
<path d="M13 39V31.616C13 22.416 13 17.812 14.2853 14.384C15.1205 12.1513 16.3326 10.2875 17.8 8.98C20.0267 7 23.0187 7 29 7C34.9813 7 37.9733 7 40.2 8.98C41.6587 10.276 42.872 12.14 43.7147 14.384C45 17.812 45 22.412 45 31.616V39" fill="#3995DB"/>
<path d="M13 39V31.616C13 22.416 13 17.812 14.2853 14.384C15.1205 12.1513 16.3326 10.2875 17.8 8.98C20.0267 7 23.0187 7 29 7C34.9813 7 37.9733 7 40.2 8.98C41.6587 10.276 42.872 12.14 43.7147 14.384C45 17.812 45 22.412 45 31.616V39" stroke="black" stroke-width="1.5"/>
<path d="M14.2571 56H42.7429C45.479 56 46.8512 56 47.9842 55.4956C51.845 53.7706 54.8588 47.8693 55.7415 40.3137C56 38.0944 56 35.4211 56 30.0596V6.80242C55.9973 0.548061 54.612 1.00811 51.4167 1.00811C48.2186 1.00811 45.3056 0.543017 45.3056 6.80242V22.2207V39.7444H31.5556H13.2222V21.2984V6.80242C13.2222 0.548061 10.3092 1.00777 7.11111 1.00777C3.91302 1.00777 1 0.543017 1 6.80242V30.0596C1 35.4211 1 38.0994 1.25849 40.3137C2.13844 47.8693 5.15504 53.7706 9.0186 55.4956C10.1488 56 11.521 56 14.2571 56Z" fill="#3995DB" stroke="black" stroke-width="1.5" stroke-linejoin="round"/>
</svg>
