<svg width="15" height="19" viewBox="0 0 15 19" fill="none" xmlns="http://www.w3.org/2000/svg">
<path d="M2.51984 0C1.19957 0 -0.0321733 0.924214 0.0038339 2.2325C0.0413415 3.61271 0.363906 4.66314 0.853005 5.49914C1.3421 6.33243 1.97523 6.91057 2.56335 7.372C2.76739 7.53214 2.97743 7.68414 3.16797 7.82393L3.38851 7.98679C3.64207 8.17407 3.84911 8.33693 4.01864 8.50114C4.33971 8.80786 4.50024 9.09286 4.50024 9.5C4.50024 9.90714 4.33971 10.1921 4.02164 10.4989C3.85211 10.6617 3.64507 10.8259 3.39152 11.0146L3.16947 11.1761C2.96574 11.3233 2.76467 11.4735 2.56635 11.6266C1.97673 12.0881 1.3436 12.6676 0.856006 13.4995C0.363907 14.3355 0.0413413 15.3859 0.00083316 16.7648C-0.0366744 18.0744 1.19807 19 2.51984 19H12.4788C13.8006 19 15.0354 18.0744 14.9979 16.7648C14.9573 15.3859 14.6348 14.3355 14.1457 13.5009C13.6566 12.6662 13.0235 12.0894 12.4353 11.628C12.2313 11.4679 12.0228 11.3159 11.8322 11.1761L11.6117 11.0132C11.3885 10.8554 11.1779 10.6835 10.9815 10.4989C10.662 10.1921 10.5014 9.90714 10.5014 9.5C10.5014 9.09286 10.6635 8.80786 10.9815 8.50114C11.1526 8.33693 11.3596 8.17407 11.6117 7.98543L11.8337 7.82393C12.0243 7.6855 12.2343 7.53214 12.4383 7.372C13.028 6.91057 13.6611 6.33243 14.1487 5.49914C14.6393 4.66314 14.9618 3.61271 14.9994 2.2325C15.0324 0.924214 13.7991 0 12.4803 0H2.51984ZM1.50264 2.19857C1.49063 1.76429 1.91372 1.35714 2.52134 1.35714H12.4803C13.0865 1.35714 13.5096 1.76429 13.4976 2.19857C13.4645 3.39829 13.1885 4.237 12.8224 4.86264C12.4563 5.48829 11.9717 5.94157 11.4556 6.346C11.2711 6.48986 11.0941 6.62014 10.911 6.75314L10.6605 6.93636C10.3863 7.1324 10.1276 7.34554 9.88632 7.57421C9.38372 8.05736 9.00115 8.65857 9.00115 9.5C9.00115 10.3387 9.38222 10.9413 9.88482 11.4271C10.1249 11.6579 10.3964 11.8682 10.659 12.0636L10.9095 12.2469C11.0911 12.3799 11.2696 12.5101 11.4526 12.654C11.9687 13.0584 12.4503 13.509 12.8179 14.1374C13.1855 14.7616 13.463 15.6004 13.496 16.8001C13.5081 17.2344 13.085 17.6429 12.4773 17.6429H2.51984C1.91222 17.6429 1.48913 17.2344 1.50113 16.8001C1.53564 15.6004 1.8132 14.7616 2.17927 14.1374C2.54835 13.5104 3.02994 13.0584 3.54755 12.654C3.73208 12.5101 3.90912 12.3812 4.09066 12.2469L4.34271 12.0636C4.60526 11.8682 4.87681 11.6592 5.11686 11.4258C5.61946 10.9413 6.00204 10.3401 6.00204 9.49864C6.00204 8.65993 5.61796 8.05871 5.11686 7.57286C4.87502 7.3446 4.61584 7.13192 4.34121 6.93636L4.09066 6.75314C3.90912 6.62014 3.73058 6.48986 3.54605 6.346C3.02994 5.94157 2.54685 5.48964 2.18077 4.86264C1.8132 4.23836 1.53714 3.39829 1.50564 2.19857M3.50554 4.22614L3.42002 4.07143H11.5817C11.5547 4.12571 11.5267 4.17729 11.4976 4.22614C11.2516 4.64686 10.92 4.97257 10.4759 5.31864C10.3109 5.44757 10.1609 5.55614 9.99134 5.681L9.71079 5.88593C9.38571 6.1198 9.07891 6.37374 8.7926 6.64593C8.10396 7.30821 7.50084 8.227 7.50084 9.5C7.50084 8.227 6.89622 7.30821 6.21058 6.64593C5.92331 6.37364 5.61551 6.1197 5.2894 5.88593L5.01034 5.68236C4.83931 5.55614 4.69078 5.44757 4.52574 5.31864C4.08166 4.97121 3.75009 4.64686 3.50254 4.22614M11.9582 16.2857H3.03744C3.11846 15.5814 3.3075 15.1091 3.50254 14.7739C3.75009 14.3531 4.08165 14.0274 4.52724 13.6814C4.69228 13.5524 4.83931 13.4439 5.01034 13.319L5.2909 13.1127C5.56245 12.9119 5.89852 12.6554 6.21058 12.3527C6.89622 11.6918 7.50084 10.7744 7.50084 9.5C7.50084 10.7716 8.10246 11.6904 8.7881 12.3527C9.10016 12.6554 9.43473 12.9119 9.70629 13.1127L9.98684 13.3176C10.1579 13.4425 10.3049 13.5511 10.4699 13.68C10.914 14.0274 11.2456 14.3518 11.4931 14.7739C11.6882 15.1077 11.8772 15.5814 11.9582 16.2857Z" fill="#D6491D"/>
</svg>
