<svg width="33" height="28" viewBox="0 0 33 28" fill="none" xmlns="http://www.w3.org/2000/svg">
<path d="M16.5 0C25.1625 0 30.9375 1.925 30.9375 4.375V7C32.0783 7 33 7.78203 33 8.75V12.25C33 13.218 32.0783 14 30.9375 14V22.75C30.9375 23.718 30.0158 24.5 28.875 24.5V26.25C28.875 27.218 27.9533 28 26.8125 28H24.75C23.6092 28 22.6875 27.218 22.6875 26.25V24.5H10.3125V26.25C10.3125 27.218 9.39082 28 8.25 28H6.1875C5.04668 28 4.125 27.218 4.125 26.25V24.5C2.98418 24.5 2.0625 23.718 2.0625 22.75V14C0.92168 14 0 13.218 0 12.25V8.75C0 7.78203 0.92168 7 2.0625 7V4.375C2.0625 1.925 7.8375 0 16.5 0ZM6.1875 8.75V14C6.1875 14.968 7.10918 15.75 8.25 15.75H15.4688V7H8.25C7.10918 7 6.1875 7.78203 6.1875 8.75ZM17.5312 15.75H24.75C25.8908 15.75 26.8125 14.968 26.8125 14V8.75C26.8125 7.78203 25.8908 7 24.75 7H17.5312V15.75ZM7.21875 21.875C7.76576 21.875 8.29036 21.6906 8.67716 21.3624C9.06395 21.0342 9.28125 20.5891 9.28125 20.125C9.28125 19.6609 9.06395 19.2158 8.67716 18.8876C8.29036 18.5594 7.76576 18.375 7.21875 18.375C6.67174 18.375 6.14714 18.5594 5.76034 18.8876C5.37355 19.2158 5.15625 19.6609 5.15625 20.125C5.15625 20.5891 5.37355 21.0342 5.76034 21.3624C6.14714 21.6906 6.67174 21.875 7.21875 21.875ZM25.7812 21.875C26.3283 21.875 26.8529 21.6906 27.2397 21.3624C27.6265 21.0342 27.8438 20.5891 27.8438 20.125C27.8438 19.6609 27.6265 19.2158 27.2397 18.8876C26.8529 18.5594 26.3283 18.375 25.7812 18.375C25.2342 18.375 24.7096 18.5594 24.3228 18.8876C23.936 19.2158 23.7188 19.6609 23.7188 20.125C23.7188 20.5891 23.936 21.0342 24.3228 21.3624C24.7096 21.6906 25.2342 21.875 25.7812 21.875ZM22.6875 4.375C22.6875 3.89375 22.2234 3.5 21.6562 3.5H11.3438C10.7766 3.5 10.3125 3.89375 10.3125 4.375C10.3125 4.85625 10.7766 5.25 11.3438 5.25H21.6562C22.2234 5.25 22.6875 4.85625 22.6875 4.375Z" fill="#777777"/>
</svg>
