<svg width="36" height="36" viewBox="0 0 36 36" fill="none" xmlns="http://www.w3.org/2000/svg">
<path d="M32.6926 19.9532C32.3394 22.6525 31.2597 25.2046 29.5693 27.3357C27.8789 29.4667 25.6416 31.0965 23.0972 32.05C20.5529 33.0036 17.7976 33.245 15.1268 32.7484C12.4559 32.2518 9.97037 31.0359 7.93663 29.2311C5.90289 27.4264 4.39771 25.1008 3.58249 22.5038C2.76728 19.9069 2.67281 17.1365 3.30919 14.4898C3.94558 11.8431 5.28882 9.41996 7.19486 7.48023C9.1009 5.5405 11.4978 4.15737 14.1286 3.47916C21.4214 1.60456 28.9705 5.36689 31.7574 12.3779" stroke="#005CAF" stroke-width="5" stroke-linecap="round" stroke-linejoin="round"/>
<path d="M32.8179 3.00439V12.3774H23.4658" stroke="#005CAF" stroke-width="5" stroke-linecap="round" stroke-linejoin="round"/>
</svg>
