<svg width="46" height="33" viewBox="0 0 46 33" fill="none" xmlns="http://www.w3.org/2000/svg">
<path d="M11.117 32.7272C10.5389 32.7272 10.0546 32.5424 9.66425 32.1728C9.27386 31.8032 9.07798 31.3463 9.07662 30.8021C9.07526 30.2579 9.27114 29.801 9.66425 29.4314C10.0574 29.0618 10.5416 28.877 11.117 28.877H12.3412L16.3709 16.2192C16.6429 15.385 17.1449 14.7196 17.8767 14.2229C18.6085 13.7262 19.4158 13.4772 20.2986 13.4759H26.4196C27.3038 13.4759 28.1118 13.7249 28.8436 14.2229C29.5754 14.7208 30.0766 15.3863 30.3473 16.2192L34.377 28.877H35.6012C36.1793 28.877 36.6642 29.0618 37.056 29.4314C37.4477 29.801 37.6429 30.2579 37.6416 30.8021C37.6402 31.3463 37.4443 31.8038 37.0539 32.1747C36.6636 32.5456 36.1793 32.7298 35.6012 32.7272H11.117ZM21.3187 7.70053V1.92514C21.3187 1.37968 21.5146 0.922787 21.9064 0.554445C22.2981 0.186103 22.7824 0.00129006 23.3591 6.63838e-06C23.9358 -0.00127678 24.4208 0.183536 24.8139 0.554445C25.207 0.925353 25.4022 1.38225 25.3994 1.92514V7.70053C25.3994 8.24599 25.2036 8.70353 24.8118 9.07315C24.4201 9.44278 23.9358 9.62695 23.3591 9.62566C22.7824 9.62438 22.2981 9.43957 21.9064 9.07123C21.5146 8.70288 21.3187 8.24599 21.3187 7.70053ZM32.0306 10.2995L36.3663 6.20856C36.7404 5.85562 37.2083 5.6708 37.7701 5.65412C38.3319 5.63743 38.8161 5.82225 39.2228 6.20856C39.5969 6.5615 39.7839 7.01069 39.7839 7.55615C39.7839 8.1016 39.5969 8.5508 39.2228 8.90374L34.8871 13.0428C34.479 13.4278 34.0029 13.6203 33.4588 13.6203C32.9147 13.6203 32.4387 13.4278 32.0306 13.0428C31.6225 12.6577 31.4185 12.2008 31.4185 11.6721C31.4185 11.1433 31.6225 10.6858 32.0306 10.2995ZM37.6416 19.2513H43.7626C44.3407 19.2513 44.8256 19.4361 45.2174 19.8058C45.6091 20.1754 45.8043 20.6323 45.803 21.1765C45.8016 21.7206 45.6057 22.1782 45.2154 22.5491C44.825 22.92 44.3407 23.1042 43.7626 23.1016H37.6416C37.0635 23.1016 36.5792 22.9168 36.1888 22.5471C35.7984 22.1775 35.6026 21.7206 35.6012 21.1765C35.5999 20.6323 35.7957 20.1754 36.1888 19.8058C36.5819 19.4361 37.0662 19.2513 37.6416 19.2513ZM11.8311 12.9946L7.49535 8.90374C7.12129 8.5508 6.92609 8.10995 6.90977 7.58118C6.89345 7.05241 7.08864 6.59487 7.49535 6.20856C7.86942 5.85562 8.3455 5.67914 8.9236 5.67914C9.5017 5.67914 9.97778 5.85562 10.3518 6.20856L14.7386 10.2995C15.1467 10.6845 15.3507 11.1337 15.3507 11.6471C15.3507 12.1604 15.1467 12.6096 14.7386 12.9946C14.3305 13.3797 13.8463 13.5722 13.2859 13.5722C12.7255 13.5722 12.2405 13.3797 11.8311 12.9946ZM2.95557 23.1016C2.37747 23.1016 1.89322 22.9168 1.50284 22.5471C1.11245 22.1775 0.916574 21.7206 0.915214 21.1765C0.913854 20.6323 1.10973 20.1754 1.50284 19.8058C1.89594 19.4361 2.38019 19.2513 2.95557 19.2513H9.07662C9.65473 19.2513 10.1396 19.4361 10.5314 19.8058C10.9231 20.1754 11.1183 20.6323 11.117 21.1765C11.1156 21.7206 10.9197 22.1782 10.5294 22.5491C10.139 22.92 9.65473 23.1042 9.07662 23.1016H2.95557Z" fill="#DE710C"/>
<path d="M23.3591 24.2178C23.7401 24.2178 24.1054 24.1316 24.3748 23.9782C24.6442 23.8247 24.7955 23.6166 24.7955 23.3996V18.4905C24.7955 18.2735 24.6442 18.0654 24.3748 17.912C24.1054 17.7586 23.7401 17.6724 23.3591 17.6724C22.9782 17.6724 22.6128 17.7586 22.3434 17.912C22.074 18.0654 21.9227 18.2735 21.9227 18.4905V23.3996C21.9227 23.6166 22.074 23.8247 22.3434 23.9782C22.6128 24.1316 22.9782 24.2178 23.3591 24.2178ZM23.3591 27.4905C23.7142 27.4905 24.0614 27.4306 24.3566 27.3182C24.6519 27.2058 24.882 27.0461 25.0179 26.8592C25.1538 26.6723 25.1894 26.4667 25.1201 26.2683C25.0508 26.0699 24.8798 25.8877 24.6287 25.7446C24.3776 25.6016 24.0577 25.5042 23.7094 25.4647C23.3611 25.4253 23.0001 25.4455 22.672 25.5229C22.3439 25.6003 22.0635 25.7314 21.8662 25.8996C21.6689 26.0678 21.5636 26.2655 21.5636 26.4678C21.5636 26.7391 21.7528 26.9992 22.0895 27.191C22.4262 27.3828 22.8829 27.4905 23.3591 27.4905Z" fill="#F8F8F8"/>
</svg>
