<svg width="46" height="33" viewBox="0 0 46 33" fill="none" xmlns="http://www.w3.org/2000/svg">
<path d="M22.2551 14.8386L23.1761 17.5376C21.9744 17.8205 20.875 18.3439 19.9749 19.0618C19.0748 19.7797 18.4016 20.67 18.0146 21.6542C17.6276 22.6385 17.5386 23.6865 17.7555 24.7059C17.9725 25.7254 18.4886 26.685 19.2586 27.5002C20.0285 28.3154 21.0286 28.9612 22.1707 29.3808C23.3129 29.8003 24.562 29.9807 25.808 29.906C27.0541 29.8313 28.2589 29.5038 29.3162 28.9524C30.3736 28.4011 31.251 27.6427 31.8713 26.7441L32.044 26.4818L35.0576 27.7584C34.2345 29.0929 33.0271 30.2388 31.5422 31.0945C30.0574 31.9503 28.3408 32.4896 26.5445 32.6648C24.7482 32.8399 22.9274 32.6455 21.2434 32.0986C19.5593 31.5518 18.0639 30.6695 16.8895 29.5297C15.715 28.3899 14.8977 27.0278 14.5099 25.564C14.1221 24.1002 14.1758 22.5797 14.6661 21.1371C15.1565 19.6945 16.0684 18.3743 17.3212 17.2934C18.574 16.2124 20.1291 15.4039 21.8488 14.9396L22.2551 14.8386ZM27.7946 4.67529C28.9132 4.6748 30.0006 4.98028 30.8882 5.54431C31.7758 6.10835 32.4138 6.89939 32.7033 7.79465C32.9928 8.6899 32.9175 9.6393 32.4891 10.4955C32.0607 11.3516 31.3032 12.0667 30.3341 12.5296V14.3813L33.285 15.1963H36.2596C36.9331 15.1963 37.579 15.418 38.0553 15.8126C38.5315 16.2072 38.7991 16.7424 38.7991 17.3005C38.7991 17.8586 38.5315 18.3938 38.0553 18.7884C37.579 19.183 36.9331 19.4047 36.2596 19.4047H32.8736C32.601 19.4047 32.3302 19.3682 32.0711 19.2967L30.3341 18.8169V20.1061C30.3341 20.2921 30.4233 20.4705 30.582 20.6021C30.7408 20.7336 30.9561 20.8075 31.1806 20.8075H34.5666C35.4865 20.8075 36.3938 20.985 37.2166 21.3258C38.0393 21.6667 38.7551 22.1616 39.307 22.7714L42.6083 26.4187H43.0316C43.7051 26.4187 44.351 26.6404 44.8273 27.035C45.3035 27.4296 45.5711 27.9648 45.5711 28.5229C45.5711 29.081 45.3035 29.6162 44.8273 30.0108C44.351 30.4054 43.7051 30.6271 43.0316 30.6271H41.3386C40.9443 30.6271 40.5555 30.551 40.2029 30.4049C39.8503 30.2589 39.5435 30.0467 39.307 29.7854L35.2438 25.2965C35.165 25.2093 35.0627 25.1386 34.9452 25.0899C34.8276 25.0412 34.698 25.0159 34.5666 25.0159H31.1806C29.6091 25.0159 28.1019 24.4986 26.9907 23.5778C25.8794 22.6571 25.2551 21.4083 25.2551 20.1061V12.5296C24.2861 12.0667 23.5286 11.3516 23.1002 10.4955C22.6718 9.6393 22.5965 8.6899 22.8859 7.79465C23.1754 6.89939 23.8134 6.10835 24.701 5.54431C25.5886 4.98028 26.6761 4.6748 27.7946 4.67529Z" fill="#8A8D8E"/>
<path d="M9.81743 6.13636C10.7259 6.13636 11.5971 5.81311 12.2395 5.23771C12.8819 4.66232 13.2427 3.88191 13.2427 3.06818C13.2427 2.25445 12.8819 1.47405 12.2395 0.89865C11.5971 0.323254 10.7259 0 9.81743 0C8.90898 0 8.03774 0.323254 7.39537 0.89865C6.75301 1.47405 6.39213 2.25445 6.39213 3.06818C6.39213 3.88191 6.75301 4.66232 7.39537 5.23771C8.03774 5.81311 8.90898 6.13636 9.81743 6.13636ZM5.25036 13.8068V31.1932C5.25036 31.6 5.4308 31.9902 5.75198 32.2779C6.07317 32.5656 6.50879 32.7273 6.96301 32.7273C7.41723 32.7273 7.85285 32.5656 8.17404 32.2779C8.49522 31.9902 8.67566 31.6 8.67566 31.1932V21.4773C8.67566 21.206 8.79595 20.9459 9.01008 20.7541C9.2242 20.5623 9.51461 20.4545 9.81743 20.4545C10.1202 20.4545 10.4107 20.5623 10.6248 20.7541C10.8389 20.9459 10.9592 21.206 10.9592 21.4773V31.1932C10.9592 31.6 11.1396 31.9902 11.4608 32.2779C11.782 32.5656 12.2176 32.7273 12.6718 32.7273C13.1261 32.7273 13.5617 32.5656 13.8829 32.2779C14.2041 31.9902 14.3845 31.6 14.3845 31.1932V13.8068C14.3845 13.6712 14.4446 13.5411 14.5517 13.4452C14.6588 13.3493 14.804 13.2955 14.9554 13.2955C15.1068 13.2955 15.252 13.3493 15.3591 13.4452C15.4661 13.5411 15.5263 13.6712 15.5263 13.8068V18.9205C15.5263 19.3273 15.7067 19.7175 16.0279 20.0052C16.3491 20.2929 16.7847 20.4545 17.2389 20.4545C17.6931 20.4545 18.1288 20.2929 18.4499 20.0052C18.7711 19.7175 18.9516 19.3273 18.9516 18.9205V13.2955C18.9516 11.668 18.2298 10.1072 16.9451 8.95639C15.6603 7.8056 13.9179 7.15909 12.101 7.15909H7.53389C5.717 7.15909 3.97452 7.8056 2.68978 8.95639C1.40505 10.1072 0.683289 11.668 0.683289 13.2955V18.9205C0.683289 19.3273 0.863728 19.7175 1.18491 20.0052C1.5061 20.2929 1.94172 20.4545 2.39594 20.4545C2.85016 20.4545 3.28578 20.2929 3.60697 20.0052C3.92815 19.7175 4.10859 19.3273 4.10859 18.9205V13.8068C4.10859 13.6712 4.16874 13.5411 4.2758 13.4452C4.38286 13.3493 4.52807 13.2955 4.67948 13.2955C4.83088 13.2955 4.97609 13.3493 5.08315 13.4452C5.19021 13.5411 5.25036 13.6712 5.25036 13.8068Z" fill="#8A8D8E"/>
</svg>
