<svg width="52" height="25" viewBox="0 0 52 25" fill="none" xmlns="http://www.w3.org/2000/svg">
<path d="M30.4061 21.5092V24.8184H0V21.5092C0 21.5092 0 14.891 15.203 14.891C30.4061 14.891 30.4061 21.5092 30.4061 21.5092ZM22.8046 5.79095C22.8046 4.64561 22.3587 3.52599 21.5235 2.57367C20.6882 1.62136 19.501 0.879116 18.112 0.440812C16.723 0.00250912 15.1946 -0.112171 13.7201 0.111274C12.2455 0.334719 10.891 0.886254 9.82795 1.69613C8.76486 2.50601 8.04089 3.53786 7.74758 4.66119C7.45428 5.78453 7.60481 6.94889 8.18015 8.00705C8.75549 9.06521 9.7298 9.96963 10.9799 10.606C12.2299 11.2423 13.6996 11.5819 15.203 11.5819C17.2191 11.5819 19.1526 10.9718 20.5781 9.88577C22.0037 8.79976 22.8046 7.32681 22.8046 5.79095Z" fill="#777777"/>
<path d="M49.3893 3.81836H30.3239C29.0132 3.81836 27.9407 4.89223 27.9407 6.20474V20.523C27.9407 21.8355 29.0132 22.9094 30.3239 22.9094H49.3893C50.7001 22.9094 51.7725 21.8355 51.7725 20.523V6.20474C51.7725 4.89223 50.7001 3.81836 49.3893 3.81836ZM49.3893 6.20474L39.8566 12.1588L30.3239 6.20474H49.3893ZM49.3893 20.523H30.3239V8.59112L39.8566 14.5571L49.3893 8.59112V20.523Z" fill="#777777"/>
<path opacity="0.3" d="M49.3893 6.20508H30.3239L39.8566 12.1591L49.3893 6.20508ZM30.3239 8.59146V20.5234H49.3893V8.59146L39.8566 14.5574L30.3239 8.59146Z" fill="#777777"/>
</svg>
