<svg width="30" height="28" viewBox="0 0 30 28" fill="none" xmlns="http://www.w3.org/2000/svg">
<path fill-rule="evenodd" clip-rule="evenodd" d="M18.0125 2.80055C19.2233 3.07351 20.3821 3.5108 21.45 4.09772C21.6641 4.21533 21.8345 4.38868 21.9392 4.59538C22.044 4.80208 22.0782 5.03262 22.0375 5.25721C21.8962 6.0412 22.1112 6.64086 22.5125 7.00725C22.915 7.37365 23.575 7.56822 24.435 7.43964C24.6819 7.40234 24.9354 7.43338 25.1627 7.52872C25.3901 7.62407 25.5807 7.77935 25.71 7.97444C26.3547 8.94652 26.8351 10.0014 27.135 11.1036C27.1953 11.3247 27.1814 11.5572 27.0949 11.7711C27.0084 11.9849 26.8534 12.1702 26.65 12.3029C25.94 12.766 25.625 13.327 25.625 13.8458C25.625 14.3647 25.94 14.9268 26.65 15.3899C26.8532 15.5226 27.008 15.7077 27.0945 15.9213C27.181 16.1349 27.1951 16.3671 27.135 16.5881C26.8351 17.6903 26.3547 18.7452 25.71 19.7173C25.5807 19.9123 25.3901 20.0676 25.1627 20.163C24.9354 20.2583 24.6819 20.2893 24.435 20.252C23.5737 20.1235 22.9162 20.3192 22.5137 20.6844C22.1112 21.0508 21.8962 21.6516 22.0387 22.4345C22.0797 22.6592 22.0456 22.89 21.9409 23.097C21.8361 23.3039 21.6655 23.4774 21.4512 23.5951C20.3826 24.1822 19.2229 24.6195 18.0112 24.8923C17.7685 24.947 17.5133 24.9342 17.2787 24.8554C17.044 24.7767 16.8407 24.6358 16.695 24.4508C16.1875 23.8045 15.57 23.5177 15 23.5177C14.4312 23.5177 13.8125 23.8045 13.305 24.4508C13.1593 24.6358 12.9559 24.7767 12.7213 24.8554C12.4866 24.9342 12.2315 24.947 11.9887 24.8923C10.777 24.6195 9.61737 24.1822 8.54872 23.5951C8.3344 23.4774 8.16382 23.3039 8.05908 23.097C7.95433 22.89 7.92024 22.6592 7.96122 22.4345C8.10372 21.6516 7.88997 21.052 7.48622 20.6856C7.08497 20.3192 6.42622 20.1235 5.56497 20.2532C5.31825 20.2902 5.06499 20.2591 4.83792 20.1638C4.61085 20.0684 4.42041 19.9133 4.29122 19.7184C3.64625 18.7456 3.16586 17.69 2.86622 16.587C2.80613 16.366 2.82022 16.1337 2.90668 15.9201C2.99314 15.7065 3.14799 15.5214 3.35122 15.3888C4.05997 14.9268 4.37622 14.3647 4.37622 13.8458C4.37622 13.3281 4.05997 12.7649 3.35122 12.3029C3.14799 12.1703 2.99314 11.9852 2.90668 11.7716C2.82022 11.558 2.80613 11.3257 2.86622 11.1047C3.16596 10.0021 3.64634 8.94686 4.29122 7.97444C4.42041 7.77955 4.61085 7.62441 4.83792 7.52907C5.06499 7.43374 5.31825 7.40258 5.56497 7.43964C6.42622 7.56822 7.08497 7.37365 7.48747 7.00725C7.88997 6.64086 8.10372 6.04006 7.96247 5.25721C7.92176 5.03262 7.95598 4.80208 8.06071 4.59538C8.16544 4.38868 8.33587 4.21533 8.54997 4.09772C9.61783 3.51082 10.7766 3.07353 11.9875 2.80055C12.2304 2.7456 12.4858 2.75831 12.7207 2.83702C12.9556 2.91574 13.1592 3.05683 13.305 3.24204C13.8137 3.88722 14.43 4.1751 15 4.1751C15.57 4.1751 16.1875 3.88722 16.6962 3.24204C16.8419 3.05705 17.0453 2.91609 17.2799 2.83738C17.5145 2.75868 17.7697 2.74585 18.0125 2.80055ZM18.14 5.20145C17.3187 5.94903 16.24 6.4497 15 6.4497C13.76 6.4497 12.6812 5.95017 11.86 5.20032C11.3951 5.34035 10.9421 5.5115 10.505 5.71236C10.5062 6.77058 10.1312 7.81742 9.25497 8.6162C8.37872 9.41385 7.22747 9.75521 6.06497 9.75407C5.84497 10.15 5.65747 10.562 5.50247 10.9875C6.32622 11.7351 6.87497 12.7171 6.87497 13.8458C6.87497 14.9746 6.32622 15.9566 5.50247 16.7042C5.65747 17.1297 5.84622 17.5428 6.06497 17.9388C7.22747 17.9365 8.37747 18.2778 9.25497 19.0766C10.1312 19.8731 10.5062 20.9211 10.505 21.9793C10.9387 22.1796 11.3925 22.3503 11.86 22.4914C12.6812 21.7415 13.76 21.242 15 21.242C16.24 21.242 17.3187 21.7427 18.14 22.4914C18.6053 22.3514 19.0586 22.1803 19.4962 21.9793C19.4937 20.9211 19.8687 19.8743 20.7462 19.0755C21.6212 18.2778 22.7725 17.9376 23.935 17.9376C24.155 17.5428 24.3425 17.1297 24.4975 16.7042C23.6737 15.9566 23.125 14.9746 23.125 13.8458C23.125 12.7171 23.675 11.7351 24.4975 10.9875C24.3437 10.5643 24.1556 10.152 23.935 9.75407C22.7725 9.75521 21.6225 9.41385 20.745 8.6162C19.8687 7.81855 19.495 6.77058 19.495 5.71236C19.0578 5.5115 18.6049 5.34149 18.14 5.20145ZM15 9.29437C16.3261 9.29437 17.5978 9.7739 18.5355 10.6275C19.4732 11.481 20 12.6387 20 13.8458C20 15.053 19.4732 16.2107 18.5355 17.0642C17.5978 17.9178 16.3261 18.3973 15 18.3973C13.6739 18.3973 12.4021 17.9178 11.4644 17.0642C10.5268 16.2107 9.99997 15.053 9.99997 13.8458C9.99997 12.6387 10.5268 11.481 11.4644 10.6275C12.4021 9.7739 13.6739 9.29437 15 9.29437ZM15 11.5701C14.3369 11.5701 13.701 11.8099 13.2322 12.2367C12.7634 12.6634 12.5 13.2423 12.5 13.8458C12.5 14.4494 12.7634 15.0283 13.2322 15.455C13.701 15.8818 14.3369 16.1216 15 16.1216C15.663 16.1216 16.2989 15.8818 16.7677 15.455C17.2366 15.0283 17.5 14.4494 17.5 13.8458C17.5 13.2423 17.2366 12.6634 16.7677 12.2367C16.2989 11.8099 15.663 11.5701 15 11.5701Z" fill="#3995DB"/>
</svg>
