<svg width="25" height="24" viewBox="0 0 25 24" fill="none" xmlns="http://www.w3.org/2000/svg">
<path d="M13.75 10.6755H12.5H11.25L11.25 0.922302L13.75 0.922302L13.75 10.6755ZM8.75 2.50231V4.80406C6.60115 5.56052 4.82225 6.94077 3.71758 8.7087C2.6129 10.4766 2.2511 12.5224 2.69407 14.496C3.13704 16.4697 4.35724 18.2486 6.14596 19.5284C7.93467 20.8083 10.1808 21.5096 12.5 21.5123C14.8217 21.5134 17.0715 20.8142 18.8635 19.5345C20.6555 18.2548 21.8781 16.4744 22.3215 14.4987C22.7649 12.523 22.4016 10.475 21.2938 8.70617C20.186 6.93731 18.4028 5.55773 16.25 4.80406V2.50231C21.3212 3.88293 25 7.99009 25 12.8428C25 18.828 19.4037 23.6797 12.5 23.6797C5.59625 23.6797 0 18.828 0 12.8428C0 7.99009 3.67875 3.88293 8.75 2.50231Z" fill="#228BDB"/>
</svg>
