<svg width="16" height="16" viewBox="0 0 16 16" fill="none" xmlns="http://www.w3.org/2000/svg">
<path d="M16 8.40066C16 12.5972 12.5987 16 8.40054 16H7.59946C3.40235 16 0 12.598 0 8.40066V7.59934C0 3.4028 3.40185 0 7.59946 0H8.40054C12.5977 0 16 3.40204 16 7.59934V8.40066Z" fill="#DE710C"/>
<path d="M6.52572 11.8117L4.72804 4.66421V12.4086C4.72804 12.837 4.63292 13.159 4.44091 13.3729C4.24992 13.5871 3.99483 13.6936 3.67895 13.6936C3.37315 13.6936 3.12236 13.5879 2.92884 13.3767C2.73431 13.1645 2.63818 12.8428 2.63818 12.4084V3.52986C2.63818 3.03939 2.7656 2.70963 3.02068 2.53781C3.27551 2.367 3.62016 2.28223 4.05463 2.28223H4.75831C5.18168 2.28223 5.48899 2.31982 5.67999 2.39677C5.87149 2.47372 6.01303 2.61098 6.10538 2.8103C6.19671 3.00886 6.30117 3.33332 6.41925 3.78242L8.04864 9.92724L9.67854 3.78242C9.79611 3.33332 9.90057 3.00886 9.99241 2.8103C10.084 2.61098 10.2263 2.47372 10.4173 2.39677C10.6088 2.31982 10.9164 2.28223 11.3397 2.28223H12.0434C12.4766 2.28223 12.822 2.367 13.0774 2.53781C13.3322 2.70963 13.4599 3.03913 13.4599 3.52986V12.4084C13.4599 12.8368 13.3645 13.1587 13.173 13.3727C12.982 13.5869 12.7251 13.6934 12.4032 13.6934C12.1027 13.6934 11.8549 13.5866 11.6617 13.3727C11.4674 13.1585 11.371 12.8368 11.371 12.4084V4.66396L9.57232 11.8114C9.45474 12.2754 9.35887 12.6168 9.28494 12.833C9.21076 13.05 9.07477 13.2483 8.87595 13.4262C8.67688 13.6048 8.4001 13.6939 8.04889 13.6939C7.78372 13.6939 7.55942 13.6363 7.37574 13.522C7.19793 13.4138 7.05038 13.2623 6.94682 13.0818C6.84087 12.8955 6.75986 12.696 6.70586 12.4886C6.64657 12.2714 6.58728 12.0461 6.52521 11.8114" fill="white"/>
</svg>
