<svg width="22" height="22" viewBox="0 0 22 22" fill="none" xmlns="http://www.w3.org/2000/svg">
<path d="M1.08368 12.3021C1.31973 14.1017 2.04134 15.803 3.1711 17.2238C4.30086 18.6445 5.79615 19.731 7.49662 20.3667C9.19708 21.0024 11.0386 21.1633 12.8236 20.8323C14.6086 20.5012 16.2698 19.6906 17.629 18.4874C18.9882 17.2842 19.9942 15.7339 20.539 14.0026C21.0839 12.2712 21.147 10.4243 20.7217 8.65986C20.2964 6.8954 19.3986 5.27997 18.1248 3.98682C16.8509 2.69367 15.2489 1.77158 13.4907 1.31944C8.61664 0.0697082 3.57133 2.57792 1.70872 7.25193" stroke="#7659AD" stroke-width="2" stroke-linecap="round" stroke-linejoin="round"/>
<path d="M0.999985 1.00342L0.999985 7.25209L7.25037 7.25209" stroke="#7659AD" stroke-width="2" stroke-linecap="round" stroke-linejoin="round"/>
</svg>
