<svg width="20" height="21" viewBox="0 0 20 21" fill="none" xmlns="http://www.w3.org/2000/svg">
<path d="M19.7748 19.5822L14.9656 14.781C16.3595 13.11 17.0546 10.9667 16.9062 8.79701C16.7579 6.62731 15.7775 4.59825 14.1691 3.13192C12.5607 1.66559 10.448 0.874891 8.27066 0.924303C6.09327 0.973715 4.01878 1.85944 2.47874 3.39721C0.938698 4.93499 0.0516718 7.00643 0.00218707 9.18061C-0.0472976 11.3548 0.744569 13.4643 2.21306 15.0704C3.68155 16.6764 5.7136 17.6554 7.88649 17.8035C10.0594 17.9516 12.2058 17.2576 13.8793 15.8657L18.6875 20.6679C18.7589 20.7391 18.8437 20.7957 18.937 20.8343C19.0302 20.8729 19.1302 20.8927 19.2312 20.8927C19.3321 20.8927 19.4321 20.8729 19.5254 20.8343C19.6187 20.7957 19.7034 20.7391 19.7748 20.6679C19.8462 20.5966 19.9028 20.5119 19.9415 20.4188C19.9801 20.3257 20 20.2258 20 20.125C20 20.0242 19.9801 19.9244 19.9415 19.8312C19.9028 19.7381 19.8462 19.6535 19.7748 19.5822ZM1.55803 9.38326C1.55803 8.0175 1.96362 6.68241 2.72351 5.54682C3.4834 4.41123 4.56347 3.52615 5.82713 3.0035C7.09078 2.48084 8.48128 2.34409 9.82277 2.61054C11.1643 2.87699 12.3965 3.53466 13.3637 4.5004C14.3308 5.46614 14.9895 6.69657 15.2563 8.03608C15.5231 9.3756 15.3862 10.7641 14.8628 12.0258C14.3393 13.2876 13.453 14.3661 12.3157 15.1249C11.1784 15.8837 9.84138 16.2887 8.47361 16.2887C6.6401 16.2866 4.88228 15.5585 3.5858 14.2639C2.28932 12.9693 1.56006 11.2141 1.55803 9.38326Z" fill="#777777"/>
</svg>
