<svg width="42" height="42" viewBox="0 0 42 42" fill="none" xmlns="http://www.w3.org/2000/svg">
<path d="M31.3585 1L10.6415 1C8.65162 1 7.65366 1 6.8297 1.36682C4.02185 2.62136 1.82996 6.91321 1.18799 12.4082C0.999996 14.0223 1 15.9664 1 19.8658V36.7801C1.002 41.3287 2.00945 40.9941 4.33333 40.9941C6.65921 40.9941 8.77777 41.3324 8.77777 36.7801V25.5668V12.8222H18.7778L32.1111 12.8222V26.2375V36.7801C32.1111 41.3287 34.2297 40.9943 36.5556 40.9943C38.8814 40.9943 41 41.3324 41 36.7801V19.8658C41 15.9664 41 14.0186 40.812 12.4082C40.172 6.91321 37.9782 2.62136 35.1683 1.36682C34.3463 1 33.3484 1 31.3585 1Z" fill="#A5C9E3" fill-opacity="0.64" stroke="#D9D9D9" stroke-width="1.5" stroke-linejoin="round"/>
</svg>
