<svg width="42" height="42" viewBox="0 0 42 42" fill="none" xmlns="http://www.w3.org/2000/svg">
<path d="M10.6415 41H31.3585C33.3484 41 34.3463 41 35.1703 40.6332C37.9782 39.3786 40.17 35.0868 40.812 29.5918C41 27.9777 41 26.0336 41 22.1342V5.21994C40.998 0.671317 39.9906 1.0059 37.6667 1.0059C35.3408 1.0059 33.2222 0.667649 33.2222 5.21994V16.4332V29.1778H23.2222H9.88889V15.7625V5.21994C9.88889 0.671317 7.77033 1.00565 5.44444 1.00565C3.11856 1.00565 1 0.667649 1 5.21994V22.1342C1 26.0336 1 27.9814 1.18799 29.5918C1.82796 35.0868 4.02185 39.3786 6.83171 40.6332C7.65367 41 8.65162 41 10.6415 41Z" fill="white" stroke="#D9D9D9" stroke-width="1.5" stroke-linejoin="round"/>
</svg>
