<svg width="42" height="42" viewBox="0 0 42 42" fill="none" xmlns="http://www.w3.org/2000/svg">
<path d="M15.606 29.8889H2.12437V41M26.3913 12.1111H39.8729V1M1 14.34C2.51209 11.2565 5.04332 8.58449 8.30604 6.62748C11.5688 4.67048 15.4321 3.507 19.4571 3.26928C23.4821 3.03156 27.5073 3.72911 31.0753 5.28268C34.6433 6.83625 37.6109 9.18353 39.6411 12.0578M41 27.66C39.4882 30.744 36.957 33.4166 33.694 35.3741C30.431 37.3315 26.5672 38.4952 22.5417 38.733C18.5162 38.9707 14.4905 38.2729 10.9222 36.7189C7.35387 35.1649 4.38612 32.8171 2.35625 29.9422" stroke="white" stroke-width="2" stroke-linecap="round" stroke-linejoin="round"/>
</svg>
