<svg width="24" height="24" viewBox="0 0 24 24" fill="none" xmlns="http://www.w3.org/2000/svg">
<path d="M20.0859 3.96943C19.0616 2.94514 17.6152 2.784 15.9073 2.784H8.07259C6.3853 2.784 4.93887 2.94471 3.91416 3.96943C2.88987 4.99371 2.73901 6.43029 2.73901 8.10771V15.8623C2.73901 17.58 2.88944 19.0063 3.91416 20.0306C4.93844 21.0549 6.3853 21.216 8.10259 21.216H15.9073C17.6152 21.216 19.0616 21.0553 20.0859 20.0306C21.1106 19.0063 21.261 17.58 21.261 15.8623V8.13771C21.261 6.42 21.1106 4.98343 20.0859 3.96943ZM19.644 7.85657V16.1336C19.644 17.178 19.5133 18.2426 18.9112 18.8554C18.2983 19.458 17.2132 19.5986 16.1786 19.5986H7.82144C6.78687 19.5986 5.70216 19.458 5.09959 18.8554C4.48673 18.2426 4.35601 17.178 4.35601 16.1331V7.887C4.35601 6.83271 4.48673 5.74757 5.0893 5.145C5.70216 4.53214 6.79673 4.40186 7.85144 4.40186H16.1786C17.2132 4.40186 18.2979 4.54243 18.9107 5.145C19.5133 5.75786 19.644 6.822 19.644 7.85657ZM12 17.3589C12.402 17.3589 12.7234 17.0473 12.7234 16.6457V12.7183H16.6509C17.0524 12.7183 17.3739 12.3767 17.3739 12.0051C17.3739 11.6134 17.0524 11.2817 16.6509 11.2817H12.7234V7.34443C12.7234 6.94243 12.402 6.63129 12 6.63129C11.906 6.6299 11.8126 6.6474 11.7255 6.68275C11.6383 6.71809 11.5592 6.77057 11.4927 6.83707C11.4262 6.90357 11.3737 6.98274 11.3383 7.06989C11.303 7.15704 11.2855 7.25039 11.2869 7.34443V11.2817H7.35944C6.95744 11.2817 6.63601 11.6134 6.63601 12.0051C6.63601 12.3767 6.95744 12.7183 7.35944 12.7183H11.2869V16.6457C11.2869 17.0473 11.5984 17.3589 12 17.3589Z" fill="black"/>
</svg>
