<svg width="24" height="24" viewBox="0 0 24 24" fill="none" xmlns="http://www.w3.org/2000/svg">
<path d="M12 21C10.22 21 8.47991 20.4722 6.99987 19.4832C5.51983 18.4943 4.36627 17.0887 3.68508 15.4442C3.00389 13.7996 2.82566 11.99 3.17293 10.2442C3.5202 8.49836 4.37737 6.89472 5.63604 5.63604C6.89471 4.37737 8.49836 3.5202 10.2442 3.17294C11.99 2.82567 13.7996 3.0039 15.4442 3.68509C17.0887 4.36628 18.4943 5.51983 19.4832 6.99987C20.4722 8.47991 21 10.22 21 12C21 13.488 20.64 14.89 20 16.127L21 21L16.127 20C14.891 20.639 13.487 21 12 21Z" stroke="black" stroke-width="1.5" stroke-linecap="round" stroke-linejoin="round"/>
</svg>
