<svg width="13" height="24" viewBox="0 0 13 24" fill="none" xmlns="http://www.w3.org/2000/svg">
<path d="M3.34075 12L12.6715 21.3285C12.8827 21.5398 13.0014 21.8263 13.0014 22.125C13.0014 22.4238 12.8827 22.7103 12.6715 22.9215C12.4603 23.1328 12.1737 23.2514 11.875 23.2514C11.5763 23.2514 11.2897 23.1328 11.0785 22.9215L0.953497 12.7965C0.848729 12.692 0.765608 12.5679 0.708894 12.4312C0.652179 12.2945 0.622986 12.148 0.622986 12C0.622986 11.852 0.652179 11.7055 0.708894 11.5688C0.765608 11.4322 0.848729 11.308 0.953497 11.2035L11.0785 1.07852C11.2897 0.867272 11.5763 0.748596 11.875 0.748596C12.1737 0.748596 12.4603 0.867272 12.6715 1.07852C12.8827 1.28976 13.0014 1.57627 13.0014 1.87502C13.0014 2.17376 12.8827 2.46027 12.6715 2.67152L3.34075 12Z" fill="black"/>
</svg>
