<svg width="22" height="22" viewBox="0 0 22 22" fill="none" xmlns="http://www.w3.org/2000/svg">
<path d="M21.0612 18.9388C21.343 19.2205 21.5013 19.6027 21.5013 20.0013C21.5013 20.3998 21.343 20.782 21.0612 21.0638C20.7794 21.3455 20.3972 21.5039 19.9987 21.5039C19.6002 21.5039 19.218 21.3455 18.9362 21.0638L10.9999 13.125L3.0612 21.0613C2.7794 21.343 2.39721 21.5014 1.9987 21.5014C1.60018 21.5014 1.21799 21.343 0.936196 21.0613C0.654403 20.7795 0.496094 20.3973 0.496094 19.9988C0.496094 19.6002 0.654403 19.218 0.936196 18.9363L8.87495 11L0.938695 3.06125C0.656903 2.77946 0.498594 2.39727 0.498594 1.99876C0.498594 1.60024 0.656903 1.21805 0.938695 0.936255C1.22049 0.654463 1.60268 0.496153 2.0012 0.496153C2.39971 0.496153 2.7819 0.654463 3.0637 0.936255L10.9999 8.87501L18.9387 0.935005C19.2205 0.653213 19.6027 0.494904 20.0012 0.494904C20.3997 0.494904 20.7819 0.653213 21.0637 0.935005C21.3455 1.2168 21.5038 1.59899 21.5038 1.99751C21.5038 2.39602 21.3455 2.77821 21.0637 3.06001L13.1249 11L21.0612 18.9388Z" fill="black"/>
</svg>
