<svg width="60" height="60" viewBox="0 0 60 60" fill="none" xmlns="http://www.w3.org/2000/svg">
<path d="M51.5625 32.9062L58.5937 39.8438L27.375 54.75C27.375 54.75 23.25 56.625 21.2812 53.625C13.5937 41.625 51.5625 32.9062 51.5625 32.9062Z" fill="#547725"/>
<path d="M26.6249 46.0312C26.6249 46.0312 20.6249 48.0937 21.7499 52.125C22.8749 56.25 27.6561 53.7187 27.6561 53.7187L57.2811 39.9375C57.2811 39.9375 55.5936 35.5312 58.5936 32.625L26.6249 46.0312Z" fill="#D9E3E8"/>
<path d="M31.5938 4.6875L60 32.3438L26.4375 45.4688L4.875 11.9062L31.5938 4.6875Z" fill="#83BF4F"/>
<path d="M32.4375 10.9688L37.875 16.7812L17.5312 24.0938L12.75 16.6875L32.4375 10.9688Z" fill="white"/>
<path d="M57.1875 35.625L37.4063 43.6875L56.9062 34.7812L57.1875 35.625ZM56.9062 38.0625L35.8125 46.7813L56.5312 37.125L56.9062 38.0625ZM57.0938 39.375L30.1875 51.0938L56.7188 38.5312L57.0938 39.375Z" fill="#94989B"/>
<path d="M21.2812 53.625C18 46.7812 26.4375 45.5625 26.4375 45.5625L4.875 11.9062C4.875 11.9062 0 11.8125 0 16.875C0 18.9375 0.9375 20.5312 0.9375 20.5312L21.2812 53.625Z" fill="#699635"/>
</svg>
