<svg width="60" height="60" viewBox="0 0 60 60" fill="none" xmlns="http://www.w3.org/2000/svg">
<path d="M3.73877 45.4312L48.225 51.6375L56.2303 8.4375L15.8419 2.98031L3.73877 45.4312Z" fill="#FFF200"/>
<path d="M3.73877 45.4312L7.07815 50.6166L52.2094 57.8466L48.2288 51.6375L3.73877 45.4312Z" fill="#E8D807"/>
<path d="M13.5056 0.9375C13.5056 0.9375 4.55811 42.5344 2.66436 43.7606C0.770607 44.9906 47.5725 50.6166 47.5725 50.6166C47.5725 50.6166 56.1347 9.38625 56.2303 8.43938C56.3259 7.4925 13.5056 0.939375 13.5056 0.939375" fill="#EDDC0A"/>
<path d="M14.5377 2.28375C14.5377 2.28375 3.97864 39.8119 2.0877 41.04C0.203326 42.27 47.8124 49.2675 47.8124 49.2675C47.8124 49.2675 55.7146 9.5175 55.8055 8.57062C55.9021 7.62375 14.5368 2.27625 14.5368 2.27625" fill="#AD9A28"/>
<path d="M56.2304 8.4375L59.8614 11.9981L52.2057 57.8466L48.2251 51.6375L56.2304 8.4375Z" fill="#DBBF33"/>
<path d="M13.5055 0.9375C13.5055 0.9375 1.94617 36.0713 0.0561664 37.2975C-1.83758 38.5275 44.7702 49.6594 47.1374 47.355C49.5046 45.0506 56.1384 9.38719 56.234 8.44031C56.3296 7.49344 13.5093 0.940313 13.5093 0.940313" fill="#E8D807"/>
<path d="M13.5057 0.9375C13.5057 0.9375 3.34418 31.9031 1.45231 33.1406C-0.441442 34.3706 36.9639 49.1625 40.8929 45.5259C42.5926 43.9538 46.5554 37.0603 49.2123 30.5878C53.7142 19.6228 56.1704 9.02531 56.2267 8.44125C56.3223 7.49437 13.502 0.94125 13.502 0.94125" fill="#FFF200"/>
</svg>
