<svg width="60" height="60" viewBox="0 0 60 60" fill="none" xmlns="http://www.w3.org/2000/svg">
<g clip-path="url(#clip0_42_494)">
<path d="M58.9331 40.8506C56.925 40.1672 54.9178 39.4866 52.9087 38.8022L42.5306 35.2669C41.4571 34.9031 40.3846 34.5356 39.3112 34.1719C39.1509 34.1166 38.9868 34.0631 38.8265 34.0078C38.6156 33.9356 38.3615 34.0116 38.1459 34.0631C36.3131 34.4672 34.4793 34.8741 32.6418 35.2781C29.2846 36.0272 25.9228 36.7697 22.5656 37.515C18.8765 38.3344 15.195 39.1491 11.5068 39.9675L3.06934 41.8406C2.28371 42.0159 1.49809 42.1856 0.716213 42.3609C0.694651 42.3647 0.672151 42.3722 0.654338 42.3759C0.635588 42.3797 0.625276 42.3834 0.610276 42.3834C0.419021 42.4317 0.253576 42.5515 0.148088 42.7181C0.136838 42.7322 0.129338 42.7462 0.119026 42.765C0.0622324 42.8592 0.0254329 42.9641 0.0109172 43.0731C-0.00359855 43.1821 0.00448022 43.293 0.0346507 43.3987C0.0890257 43.6022 0.212776 43.7625 0.373088 43.86C0.384338 43.8712 0.398401 43.8816 0.412463 43.8928C1.89371 44.9287 3.37403 45.9741 4.85809 47.01C7.87403 49.1316 10.89 51.2484 13.905 53.3691C16.5779 55.24 19.2482 57.1147 21.9159 58.9931C22.2328 59.2144 22.5271 59.3062 22.9378 59.1169C23.309 58.9416 23.6803 58.7709 24.0543 58.5966L30.6975 55.5225C34.0031 53.9944 37.3068 52.4625 40.6134 50.9325C43.9565 49.3866 47.3034 47.8359 50.654 46.2834C52.9931 45.2025 55.3321 44.1178 57.675 43.0341C58.1587 42.8091 58.6462 42.5841 59.1337 42.3609C59.3915 42.2409 59.5415 41.9128 59.5415 41.6437C59.5434 41.2622 59.2884 40.9706 58.9387 40.8506" fill="#D1D1D3"/>
<path d="M53.8594 41.5781L48.8869 39.8794C46.0276 38.9044 43.1682 37.9369 40.3088 36.9628C39.4257 36.6609 38.5369 36.3619 37.6538 36.06C37.5188 36.0122 37.3847 35.9691 37.2535 35.9222C37.0754 35.8641 36.871 35.9297 36.6891 35.9662C35.176 36.3 33.6591 36.6394 32.1451 36.9731C29.3691 37.5881 26.5941 38.2059 23.8219 38.8219L14.6869 40.8441C12.3629 41.3606 10.0416 41.8781 7.71381 42.39C7.06975 42.5353 6.41912 42.6778 5.77131 42.8231L5.72069 42.8344C5.70944 42.8381 5.69912 42.8381 5.68412 42.8419C5.52757 42.8804 5.3921 42.9782 5.30631 43.1147C5.29881 43.1297 5.28756 43.1391 5.281 43.1541C5.21037 43.2699 5.17851 43.4052 5.19006 43.5403C5.19381 43.5872 5.19756 43.635 5.21162 43.6781C5.2585 43.8488 5.36069 43.9753 5.49194 44.0597C5.50319 44.0672 5.5135 44.0784 5.52475 44.085C6.74725 44.9428 7.9735 45.8016 9.196 46.6641C11.6879 48.4134 14.176 50.16 16.6716 51.9094C18.6619 53.31 20.6551 54.7106 22.6482 56.1084C22.8591 56.2575 23.0738 56.4066 23.2847 56.5566C23.5472 56.7412 23.7872 56.8181 24.1322 56.6578C24.4379 56.52 24.7435 56.3775 25.0491 56.2359C26.8791 55.3847 28.7082 54.54 30.5382 53.6925C33.2663 52.4306 35.9982 51.165 38.7263 49.905C41.491 48.6244 44.2557 47.3447 47.0204 46.0669C48.9488 45.1725 50.8838 44.2734 52.8197 43.3828C53.2201 43.1934 53.6204 43.0078 54.0235 42.8222C54.2354 42.7237 54.3619 42.4575 54.3619 42.2362C54.3619 41.9194 54.151 41.6756 53.8594 41.5809" fill="#BCBCBC"/>
<path d="M21.4753 48.7688L51.5503 38.7563L50.4056 35.6625L34.275 37.6594L20.0625 42.2156L21.4753 48.7688Z" fill="#929296"/>
<path d="M46.9875 34.5853C51.0253 34.5853 54.299 35.1516 54.299 35.8537C54.299 36.5522 51.0253 37.1194 46.9875 37.1194C42.9422 37.1194 39.6675 36.5531 39.6675 35.8537C39.6675 35.1506 42.9422 34.5853 46.9875 34.5853Z" fill="#E85646"/>
<path d="M48.6065 36.5475C44.564 36.5475 41.294 35.9803 41.294 35.2791C41.294 35.19 41.3419 35.1056 41.4319 35.0259C40.3369 35.2453 39.6675 35.5331 39.6675 35.8519C39.6675 36.5503 42.9412 37.1175 46.9875 37.1175C50.5228 37.1175 53.4769 36.6816 54.1537 36.105C52.8075 36.3731 50.8294 36.5475 48.6065 36.5475Z" fill="#C63D22"/>
<path d="M53.5126 40.0875L42.8579 37.8862C42.8579 37.8862 48.6667 34.8853 49.1729 34.8206C49.6782 34.7616 54.1135 34.1569 54.1135 34.1569L53.5126 40.0875Z" fill="#930776"/>
<path d="M19.5074 33.3009C19.5074 33.3009 28.4315 30.2053 43.9387 30.3459C43.9387 30.3459 52.3855 30.9066 53.3418 31.8225V32.9794L20.7037 40.9388L19.5037 33.3009" fill="#D118AA"/>
<path d="M43.9425 30.3488C28.4306 30.2072 19.5112 33.3056 19.5112 33.3056L19.7147 34.6153C22.949 33.7491 30.8756 32.0325 42.5306 32.1356C42.5306 32.1356 49.7447 32.6175 51.5925 33.4116L53.3494 32.985V31.8244C52.3894 30.9112 43.9462 30.3488 43.9462 30.3488" fill="#D10994"/>
<path d="M23.0906 21.9891C23.0906 21.9891 26.6485 21.3741 27.6853 24.0262C27.6853 24.0262 23.9569 28.8647 23.7675 28.9697C23.5856 29.0822 19.726 34.5947 19.726 34.5947C19.726 34.5947 16.1325 35.3156 15.27 32.4234L16.1578 28.4419L22.0697 23.0391L23.0906 21.9891Z" fill="#DD76BE"/>
<path d="M26.3905 29.7516C26.4623 30.0208 26.4801 30.3015 26.4428 30.5777C26.4054 30.8538 26.3138 31.1197 26.1731 31.3602C26.0324 31.6007 25.8455 31.811 25.6231 31.9788C25.4007 32.1467 25.1473 32.2688 24.8774 32.3381L17.8349 33.7959C17.5652 33.8682 17.2838 33.8867 17.0069 33.8503C16.7301 33.8138 16.4631 33.7232 16.2212 33.5835C15.9794 33.4439 15.7674 33.258 15.5974 33.0364C15.4274 32.8148 15.3028 32.5619 15.2305 32.2922L14.1027 25.7747C14.0306 25.5056 14.0124 25.2249 14.0494 24.9488C14.0863 24.6726 14.1776 24.4066 14.3179 24.1659C14.4583 23.9252 14.6449 23.7148 14.867 23.5466C15.0891 23.3785 15.3424 23.256 15.6121 23.1863L22.8768 22.0331C23.4214 21.8871 24.0018 21.9633 24.4902 22.2452C24.9786 22.527 25.3351 22.9913 25.4811 23.5359L26.3905 29.7516Z" fill="#DD76BE"/>
<path d="M28.6781 30.4725C28.7489 30.7422 28.7658 31.0232 28.7278 31.2994C28.6898 31.5756 28.5978 31.8416 28.4569 32.0822C28.316 32.3228 28.129 32.5333 27.9067 32.7015C27.6844 32.8698 27.4311 32.9926 27.1613 33.0628L20.115 34.5178C19.5704 34.6626 18.9906 34.5857 18.5026 34.3041C18.0145 34.0224 17.6578 33.5589 17.5106 33.015L16.3828 26.4966C16.3122 26.2274 16.2953 25.9469 16.3331 25.6712C16.371 25.3955 16.4628 25.1299 16.6033 24.8897C16.7438 24.6494 16.9303 24.4393 17.1521 24.2712C17.3739 24.1031 17.6267 23.9804 17.896 23.91L25.1606 22.7569C26.295 22.4569 27.4594 23.1319 27.7613 24.2578L28.6781 30.4725Z" fill="#F484CC"/>
<path d="M19.9876 51.4969C19.9876 51.4969 19.0304 51.9 18.3835 49.7269C18.3648 49.6584 18.3432 49.5853 18.3254 49.5122C17.6851 47.1009 15.5382 33.0075 15.5382 33.0075C15.5382 33.0075 15.3235 30.2756 18.4848 30.3816C18.4848 30.3816 21.8682 29.7928 21.5954 33.4369L22.4026 49.4025V49.6172C22.4026 49.6172 22.8798 51.3309 19.9876 51.4922" fill="#D10994"/>
<path d="M46.9875 34.6106C51.0253 34.6106 54.299 35.1797 54.299 35.8781C54.299 36.5766 51.0253 37.1447 46.9875 37.1447C42.9422 37.1447 39.6675 36.5775 39.6675 35.8781C39.6675 35.1797 42.9422 34.6106 46.9875 34.6106Z" fill="#E85646"/>
<path d="M48.6065 36.5719C44.564 36.5719 41.294 36.0056 41.294 35.3044C41.294 35.2144 41.3419 35.1309 41.4319 35.0503C40.3369 35.2725 39.6675 35.5603 39.6675 35.8763C39.6675 36.5747 42.9412 37.1428 46.9875 37.1428C50.5228 37.1428 53.4769 36.7059 54.1537 36.1284C52.8075 36.4012 50.8294 36.5719 48.6065 36.5719Z" fill="#C63D22"/>
<path d="M47.8126 34.4409C47.7067 35.1009 47.5904 35.6288 47.4704 36.0038C47.5904 35.6288 47.7029 35.1047 47.8126 34.4409ZM47.2407 36.5203C47.1751 36.6056 47.1095 36.6619 47.0476 36.6619C47.1132 36.6619 47.1742 36.6038 47.2407 36.5203ZM47.8314 34.3528C48.2973 31.3856 48.6104 25.8591 48.6104 19.5197C48.6104 17.1263 48.5626 14.8509 48.4829 12.7819C48.4642 12.7819 48.4464 12.7819 48.4276 12.7838C48.0198 12.8072 47.6017 12.8203 47.1723 12.8241C47.0882 15.0549 47.0469 17.2872 47.0485 19.5197C47.0495 25.8563 47.3664 31.3866 47.8314 34.3528Z" fill="#526D77"/>
<path d="M47.4712 19.5731C47.4712 17.1956 47.4712 14.8669 47.1693 12.8231C47.1262 12.8231 47.0821 12.8259 47.0381 12.8259L46.9949 12.8278H46.9874C46.514 12.8278 46.0556 12.8137 45.6121 12.7884C45.5277 14.8547 45.4846 17.1281 45.4846 19.5187C45.4846 28.9875 46.1821 36.6619 47.0446 36.6619C47.1065 36.6619 47.1721 36.6047 47.2377 36.5203C47.2527 36.5006 47.2668 36.4706 47.2809 36.4453C47.3324 36.36 47.3831 36.2494 47.4299 36.1097C47.4449 36.075 47.4552 36.0422 47.4702 36.0047C47.5902 35.6297 47.7065 35.1019 47.8124 34.4419C47.8162 34.4128 47.8237 34.3903 47.8265 34.3622V34.3528C47.3624 31.3866 47.4712 25.9153 47.4712 19.5731Z" fill="#5F7B89"/>
<path d="M43.2376 0.882188C43.3726 0.5925 43.7035 0.387188 44.0963 0.387188H44.0851C43.5685 0.387188 43.1541 0.739688 43.1541 1.17656L40.4429 10.935C40.4429 10.9425 40.4466 10.9481 40.4466 10.9547L43.1541 1.20281C43.1541 1.08844 43.186 0.980625 43.2376 0.882188Z" fill="#8D73F9"/>
<path d="M48.4239 12.7838C47.9757 12.8091 47.5145 12.8269 47.0373 12.8269C47.0814 12.8269 47.1254 12.8241 47.1685 12.8241C47.5979 12.8203 48.017 12.8072 48.4239 12.7838ZM46.9876 12.8288C43.382 12.8288 40.457 12.0394 40.457 11.0663V11.0644C40.457 11.0297 40.4532 10.995 40.4532 10.9613L43.1635 1.20281C43.1635 0.766876 43.5751 0.419064 44.0917 0.419064H44.0804C43.6989 0.419064 43.3782 0.610314 43.2329 0.883126C43.1793 0.981247 43.1507 1.09103 43.1495 1.20281L40.442 10.9556L40.4382 10.9613C40.4382 10.9959 40.4382 11.0306 40.4457 11.0644V11.0663C40.4457 11.9119 42.6573 12.6178 45.6085 12.7884C46.0678 12.815 46.5276 12.8285 46.9876 12.8288ZM50.8876 1.20281C50.8876 0.766876 50.4732 0.419064 49.9642 0.419064H48.8842C48.7164 0.648751 48.556 0.883126 48.407 1.12688C47.552 2.56031 47.207 4.19719 47.1845 5.82375C47.1517 7.67344 47.5454 9.56719 48.0723 11.3419C48.2251 11.8294 48.3882 12.3038 48.5664 12.7753C51.3976 12.5822 53.5135 11.895 53.5135 11.0709V11.0691C53.5135 11.0344 53.5248 10.9997 53.5248 10.9659L53.521 10.9603L50.8876 1.20656" fill="#F9ED32"/>
<path d="M48.075 11.3344C47.5481 9.55875 47.1543 7.66594 47.1871 5.81625C47.2087 4.19344 47.5546 2.55656 48.4096 1.11938C48.5587 0.875626 48.719 0.641251 48.8868 0.411564H44.0962C43.5796 0.411564 43.1681 0.759376 43.1681 1.19531L40.4578 10.9538C40.4578 10.9884 40.4615 11.0231 40.4615 11.0569V11.0588C40.4615 12.0319 43.3865 12.8213 46.9921 12.8213H46.9959L47.039 12.8194C47.5162 12.8194 47.9765 12.8016 48.4256 12.7763C48.4443 12.7744 48.4621 12.7744 48.4809 12.7744L48.5756 12.7706C48.3936 12.296 48.2266 11.8158 48.075 11.3306" fill="#EDDA2E"/>
<path d="M53.5126 40.1091L42.8579 37.9134C42.8579 37.9134 48.6666 34.9088 49.1729 34.8478C49.6782 34.7859 54.1135 34.1784 54.1135 34.1784L53.5126 40.1091ZM55.2554 26.0738C55.2554 26.0738 43.8366 25.3172 41.0991 25.5863L41.9026 31.2675L48.6572 32.0212L54.4491 32.3925L55.2535 26.0766" fill="#755B45"/>
<path d="M42.2625 31.1531C42.2625 31.1531 43.5216 19.5778 40.2657 19.8469C40.2657 19.8469 21.5597 18.6684 8.4094 21.1856C8.4094 21.1856 6.63753 21.9919 6.6919 23.3306L8.69628 31.4747L10.981 35.6616L32.371 34.2122L42.2625 31.1531Z" fill="#755B45"/>
<path d="M14.8332 29.4169C14.7751 28.0781 16.5432 27.2738 16.5432 27.2738C25.0651 25.6444 35.9138 25.5647 42.5017 25.7109C42.4295 22.7484 41.9598 19.7109 40.2723 19.8488C40.2723 19.8488 21.5701 18.6703 8.41884 21.1875C8.41884 21.1875 6.64322 21.9938 6.69853 23.3325L8.70291 31.4766L10.9876 35.6634L16.277 35.3072L14.8332 29.4169Z" fill="#82664D"/>
<path d="M43.9425 30.3722C28.4306 30.2306 19.5112 33.3263 19.5112 33.3263V33.3319L19.7147 34.6416C19.7147 34.6416 19.7184 34.6416 19.7184 34.6397L20.7122 40.9631L51.5859 33.435L51.5934 33.4388L53.3503 33.0113V31.8478C52.3894 30.9272 43.9472 30.3703 43.9472 30.3703" fill="#82664D"/>
<path d="M20.6999 48.0844L53.3418 38.0541V32.3916C53.3418 32.3916 29.4712 36.1416 20.2012 39.36L20.7037 48.0881" fill="#4C3729"/>
<path d="M54.3103 39.99C54.3103 39.99 54.66 40.0903 55.005 38.6737C55.0163 38.6316 55.0266 38.5828 55.0378 38.5341C55.3903 36.9628 56.5435 27.7772 56.5435 27.7772C56.5435 27.7772 56.6597 25.9988 54.9535 26.0672C54.9535 26.0672 53.1281 25.68 53.2735 28.0537L52.8403 38.4694V39.255C52.8403 39.255 52.9866 40.5638 54.3103 39.9938" fill="#4C3729"/>
<path d="M18.2888 25.0266C16.6481 25.2103 17.5725 26.9859 17.7872 28.8994L17.9363 30.2822C18.151 32.1956 17.565 33.5269 19.2028 33.3413L28.6153 32.8922C30.256 32.7094 29.325 30.9338 29.1178 29.0203L28.965 27.6338C28.7541 25.7166 29.34 24.3891 27.7031 24.5784L18.2906 25.0266" fill="#E6E7E8"/>
<path d="M23.7779 28.6716C23.9157 28.2516 21.4201 26.5669 20.6092 26.4019C20.0232 26.2838 19.9586 26.7712 20.2998 27.0112C20.9804 27.4875 21.9657 28.7653 22.2676 29.04C22.2282 29.0616 21.3142 29.7 21.0273 30.0497C20.8529 30.2569 20.3214 30.8531 20.5032 31.1119C20.6851 31.3697 21.9254 30.6675 22.0567 30.5831C23.7676 29.4881 23.3636 29.9428 23.7779 28.6716Z" fill="#D1D3D4"/>
<path d="M23.4658 28.9575C23.448 28.5628 26.2971 26.7206 27.1914 26.4797C27.8318 26.3091 27.8318 26.7637 27.4314 27.0253C26.6346 27.5494 25.3943 28.8591 25.0305 29.1534C25.0699 29.1703 25.9539 29.6803 26.2127 29.9812C26.3655 30.1575 26.8493 30.6741 26.6205 30.9366C26.3843 31.2019 24.5074 30.2916 24.3939 30.2128C23.1349 29.3466 23.5136 29.8687 23.4658 28.9575Z" fill="#D1D3D4"/>
<path d="M34.2834 25.1137C32.8762 25.2572 33.6694 26.6512 33.8503 28.155L33.9825 29.2387C34.1672 30.7416 33.6619 31.7869 35.0737 31.6397L43.1606 31.2872C44.5715 31.1437 43.7709 29.7497 43.5928 28.2478L43.4615 27.1603C43.2806 25.6566 43.7859 24.6122 42.3741 24.7612L34.2834 25.1137Z" fill="#E6E7E8"/>
<path d="M39.0028 27.9731C39.119 27.6459 36.9806 26.3213 36.2821 26.1947C35.7759 26.1 35.7178 26.4844 36.0168 26.6728C36.5981 27.0459 37.4456 28.0481 37.7043 28.2628C37.6724 28.2825 36.8859 28.7831 36.6384 29.0559C36.4893 29.22 36.0346 29.6869 36.1903 29.8913C36.3468 30.0928 37.4128 29.5425 37.5262 29.475C38.9953 28.6153 38.6465 28.9753 39.0028 27.9731Z" fill="#D1D3D4"/>
<path d="M38.7375 28.2C38.7188 27.8906 41.1675 26.4431 41.9354 26.2556C42.4847 26.1225 42.4847 26.4797 42.1425 26.685C41.4591 27.0956 40.3932 28.1259 40.08 28.3547C40.1129 28.3697 40.8732 28.7672 41.0954 29.0034C41.2304 29.1431 41.6447 29.5472 41.4441 29.7544C41.2444 29.9634 39.6282 29.2491 39.5307 29.1834C38.4507 28.5056 38.7741 28.9144 38.7375 28.2Z" fill="#D1D3D4"/>
<path d="M19.5619 30.4163L6.96474 28.7447C6.96474 28.7447 5.84067 28.5338 5.46192 29.2266C5.46192 29.2266 4.23192 29.9775 4.71286 31.7475L7.66317 44.6625L19.5629 51.5091L20.2032 45.465L19.5619 30.4181" fill="#755B45"/>
<path d="M5.62224 35.7469C6.09099 35.3109 6.96474 35.4778 6.96474 35.4778L19.5629 37.1513L20.0025 47.3916L20.2022 45.4613L19.5619 30.4144L6.96474 28.7428C6.96474 28.7428 5.84067 28.5319 5.46192 29.2247C5.46192 29.2247 4.23192 29.9756 4.71286 31.7456L5.62224 35.7488" fill="#876B54"/>
<path d="M19.9876 51.5222C19.9876 51.5222 19.0304 51.9281 18.3835 49.7559C18.3648 49.6875 18.3432 49.6125 18.3254 49.5384C17.6851 47.13 15.5382 33.0337 15.5382 33.0337C15.5382 33.0337 15.3235 30.3019 18.4848 30.4078C18.4848 30.4078 21.8682 29.8172 21.5954 33.4631L22.4026 49.4287V49.6416C22.4026 49.6416 22.8798 51.3591 19.9876 51.5166" fill="#563F2F"/>
</g>
<defs>
<clipPath id="clip0_42_494">
<rect width="60" height="60" fill="white"/>
</clipPath>
</defs>
</svg>
