<svg width="13" height="13" viewBox="0 0 13 13" fill="none" xmlns="http://www.w3.org/2000/svg">
<g clip-path="url(#clip0_34_84)">
<path d="M6.5 12.1875C9.64112 12.1875 12.1875 9.64112 12.1875 6.5C12.1875 3.35888 9.64112 0.8125 6.5 0.8125C3.35888 0.8125 0.8125 3.35888 0.8125 6.5C0.8125 9.64112 3.35888 12.1875 6.5 12.1875Z" fill="#F9C23C"/>
<path opacity="0.53" d="M10.9688 6.5C10.9688 8.96797 8.96797 10.9688 6.5 10.9688C4.03203 10.9688 2.03125 8.96797 2.03125 6.5C2.03125 4.03203 4.03203 2.03125 6.5 2.03125C8.96797 2.03125 10.9688 4.03203 10.9688 6.5ZM9.0675 8.08031C9.0532 8.03662 9.02548 7.99857 8.98827 7.97158C8.95106 7.94458 8.90628 7.93003 8.86031 7.93H8.8725V4.7775C9.04719 4.66375 9.07969 4.38344 8.86844 4.2575L6.67875 2.93312C6.6313 2.90325 6.57638 2.8874 6.52031 2.8874C6.46425 2.8874 6.40932 2.90325 6.36188 2.93312L4.16813 4.2575C3.95688 4.38344 3.98937 4.66375 4.16 4.7775V7.93406H4.11531C4.01781 7.93406 3.9325 7.99906 3.90812 8.0925L3.76594 8.60031C3.72531 8.73844 3.83094 8.87656 3.97312 8.87656H9.03094C9.17312 8.8725 9.27875 8.73031 9.23406 8.58812L9.0675 8.08031ZM4.83437 4.82625V7.93H5.50875V4.82625H4.83437ZM6.17906 4.82625V7.93H6.86562V4.82625H6.17906ZM7.54 4.82625V7.93H8.19812V4.82625H7.54Z" fill="#D3883E"/>
</g>
<defs>
<clipPath id="clip0_34_84">
<rect width="13" height="13" fill="white"/>
</clipPath>
</defs>
</svg>
