<svg width="60" height="60" viewBox="0 0 60 60" fill="none" xmlns="http://www.w3.org/2000/svg">
<path d="M41.7936 17.4375C43.2792 17.4709 44.749 17.7496 46.1436 18.2625C49.2619 19.9214 52.2911 21.7426 55.2186 23.7187C55.5521 23.9372 55.8226 24.2389 56.0035 24.5941C56.1844 24.9493 56.2693 25.3456 56.2499 25.7437C56.0624 29.0437 53.9024 37.5075 45.0149 37.5075V53.8556C45.0153 54.2267 44.8892 54.5868 44.6574 54.8765C44.4256 55.1663 44.102 55.3683 43.7399 55.4494C34.7031 57.5254 25.3137 57.5299 16.2749 55.4625C15.9112 55.3847 15.5855 55.1835 15.3531 54.893C15.1208 54.6026 14.996 54.2407 14.9999 53.8687V37.515C6.11239 37.515 3.74989 29.0437 3.59989 25.7437C3.58045 25.3456 3.66539 24.9493 3.84627 24.5941C4.02716 24.2389 4.29772 23.9372 4.63114 23.7187C7.60744 21.7381 10.6868 19.9167 13.8561 18.2625C15.1056 17.7598 16.4299 17.4683 17.7749 17.4L20.1936 18.3562L20.6811 19.2C24.4311 25.9687 35.6811 26.4187 39.4311 19.6312L39.9561 18.4687L41.7936 17.4375Z" fill="#FF6DC6"/>
<path d="M18.5999 17.4187L30.3749 29.7937L40.1624 17.4375C33.5084 19.903 26.1913 19.903 19.5374 17.4375L18.5999 17.4187Z" fill="#BB1D80"/>
<path d="M31.3686 29.85C31.1928 30.0433 30.9786 30.1978 30.7397 30.3035C30.5007 30.4093 30.2423 30.4639 29.9811 30.4639C29.7198 30.4639 29.4614 30.4093 29.2224 30.3035C28.9835 30.1978 28.7693 30.0433 28.5936 29.85L17.6436 17.4H19.5186L28.8936 27.9375C29.0224 28.0808 29.18 28.1954 29.3561 28.2738C29.5321 28.3523 29.7227 28.3928 29.9154 28.3928C30.1082 28.3928 30.2987 28.3523 30.4748 28.2738C30.6508 28.1954 30.8084 28.0808 30.9373 27.9375L40.1623 17.4187H41.8686L31.3686 29.85Z" fill="#F70A8D"/>
</svg>
