<svg width="30" height="30" viewBox="0 0 30 30" fill="none" xmlns="http://www.w3.org/2000/svg">
<path d="M15 28.125C22.2488 28.125 28.125 22.2488 28.125 15C28.125 7.75125 22.2488 1.875 15 1.875C7.75125 1.875 1.875 7.75125 1.875 15C1.875 22.2488 7.75125 28.125 15 28.125Z" fill="#F9C23C"/>
<path opacity="0.53" d="M25.3125 15C25.3125 20.6953 20.6953 25.3125 15 25.3125C9.30469 25.3125 4.6875 20.6953 4.6875 15C4.6875 9.30469 9.30469 4.6875 15 4.6875C20.6953 4.6875 25.3125 9.30469 25.3125 15ZM20.925 18.6469C20.892 18.5461 20.828 18.4582 20.7422 18.3959C20.6563 18.3337 20.553 18.3001 20.4469 18.3H20.475V11.025C20.8781 10.7625 20.9531 10.1156 20.4656 9.825L15.4125 6.76875C15.303 6.69982 15.1763 6.66324 15.0469 6.66324C14.9175 6.66324 14.7907 6.69982 14.6812 6.76875L9.61875 9.825C9.13125 10.1156 9.20625 10.7625 9.6 11.025V18.3094H9.49688C9.27187 18.3094 9.075 18.4594 9.01875 18.675L8.69063 19.8469C8.59688 20.1656 8.84062 20.4844 9.16875 20.4844H20.8406C21.1687 20.475 21.4125 20.1469 21.3094 19.8187L20.925 18.6469ZM11.1562 11.1375V18.3H12.7125V11.1375H11.1562ZM14.2594 11.1375V18.3H15.8438V11.1375H14.2594ZM17.4 11.1375V18.3H18.9188V11.1375H17.4Z" fill="#D3883E"/>
</svg>
