<svg width="35" height="35" viewBox="0 0 35 35" fill="none" xmlns="http://www.w3.org/2000/svg">
<path d="M24.0392 17.465L33.0094 9.67166V25.1694L24.0392 17.465ZM12.4804 18.7848L15.6304 21.5192C16.1248 21.9392 16.7694 22.1929 17.4738 22.1929H17.4985H17.5175C18.2233 22.1929 18.8679 21.9377 19.3681 21.5148L19.3638 21.5177L22.5138 18.7833L32.0892 27.0069H2.90938L12.4804 18.7848ZM2.89625 7.82395H32.1067L18.076 20.0098C17.9183 20.1346 17.723 20.2024 17.5219 20.2023H17.5015H17.4825C17.2807 20.2025 17.0847 20.1341 16.9269 20.0083L16.9283 20.0098L2.89625 7.82395ZM1.99063 9.6702L10.9594 17.4635L1.99063 25.1635V9.6702ZM33.4906 6.11041C33.1406 5.93541 32.7294 5.83333 32.2933 5.83333H2.71104C2.28836 5.83343 1.87149 5.93178 1.49333 6.12062L1.50937 6.11333C1.05667 6.33662 0.675424 6.68205 0.408704 7.1106C0.141984 7.53916 0.00041905 8.03376 0 8.53854L0 26.2894C0.000772047 27.0078 0.286493 27.6965 0.794471 28.2045C1.30245 28.7125 1.99119 28.9982 2.70958 28.999H32.289C33.0074 28.9982 33.6961 28.7125 34.2041 28.2045C34.7121 27.6965 34.9978 27.0078 34.9985 26.2894V8.53854C34.9985 7.47833 34.3875 6.55958 33.4979 6.1177L33.4819 6.11041H33.4906Z" fill="#999999"/>
</svg>
