<svg width="60" height="60" viewBox="0 0 60 60" fill="none" xmlns="http://www.w3.org/2000/svg">
<path d="M22.5 7.5C14.225 7.5 7.85 14.225 7.5 22.5V52.5H30V33.65C32.75 36.125 36.25 37.5 40 37.5C48.275 37.5 55 30.775 55 22.5C55 14.225 48.275 7.5 40 7.5H22.5ZM22.5 12.5H28.85C26.375 15.25 25 18.75 25 22.5V30H22.5V32.5H25V47.5H12.5V32.5H15V30H12.5V22.5C12.5 16.975 16.975 12.5 22.5 12.5ZM40 12.5C45.525 12.5 50 16.975 50 22.5C50 28.025 45.525 32.5 40 32.5C34.475 32.5 30 28.025 30 22.5C30 16.975 34.475 12.5 40 12.5ZM40 18.125C37.575 18.125 35.625 20.075 35.625 22.5C35.625 24.925 37.575 26.875 40 26.875C42.425 26.875 44.375 24.925 44.375 22.5C44.375 20.075 42.425 18.125 40 18.125ZM17.5 30V32.5H20V30H17.5Z" fill="black"/>
</svg>
