<svg width="60" height="60" viewBox="0 0 60 60" fill="none" xmlns="http://www.w3.org/2000/svg">
<path d="M13.5656 29.6016C13.5656 29.6016 12.4453 32.8359 13.1015 36.2672C13.7625 39.6984 14.6859 42.8672 14.6859 42.8672C14.6859 42.8672 14.8828 49.5984 14.6859 50.325C14.489 51.0516 12.9703 51.975 12.9703 53.2969C12.9703 54.6188 13.4531 56.2875 15.8953 56.6859C18.3375 57.0844 20.3156 56.2688 21.1312 55.2797C22.3078 53.85 22.0781 52.8375 22.0781 51.7828C22.0781 50.7281 22.1437 44.6578 22.4062 43.7297C22.6687 42.8063 23.0671 42.2766 23.7937 42.3422C24.5203 42.4078 25.3125 43.5281 25.3781 45.6422C25.4437 47.7516 25.5093 51.45 25.4437 52.1766C25.3781 52.9031 24.7171 55.3453 25.2468 56.3344C25.7765 57.3234 28.1718 58.2844 30.0187 58.1813C32.4375 58.05 33.8906 56.5312 34.0218 55.3453C34.1531 54.1594 33.3609 51.45 33.3609 50.6578C33.3609 49.8656 34.2843 44.4562 34.5468 44.1234C34.8093 43.7953 35.6156 43.8656 37.3828 43.0687C38.9906 42.3422 39.8484 41.6156 39.8484 41.6156C39.8484 41.6156 39.8906 46.3031 39.8249 46.8281C39.7593 47.3578 38.1749 49.0078 38.4375 50.2594C38.6999 51.5109 40.2468 52.2422 41.625 52.3688C43.9546 52.5891 46.2234 50.7844 46.814 49.2C47.4093 47.6156 47.1421 45.6375 47.0109 44.5828C46.8796 43.5281 46.8796 39.8297 47.0109 38.8406C47.1421 37.8516 47.3578 37.2516 47.4421 36.7313C47.5734 35.8734 47.5406 34.9172 47.5406 34.9172C47.5406 34.9172 49.8187 34.9172 51.1687 34.0266C52.5187 33.1359 53.939 31.5844 54.5671 29.6719C55.1812 27.8016 55.0312 27.2297 54.5015 27.1641C53.9718 27.0984 51.5999 30.4266 49.5843 30.5297C46.3828 30.6938 46.7015 27.2625 44.2593 25.1859C41.5078 22.8422 37.2187 22.5469 37.2187 22.5469C37.2187 22.5469 37.9593 19.7766 37.9687 17.7281C38.0015 8.78438 33.6468 5.75156 33.6468 5.75156C33.6468 5.75156 28.4109 1.85156 22.4718 2.11406C16.5328 2.37656 12.1781 7.09688 12.1781 7.09688L8.91089 21.5156C8.91089 21.5156 9.73589 24.2859 11.0578 26.3016C12.4453 28.4109 13.5656 29.6016 13.5656 29.6016Z" fill="#FFD2B1"/>
<path d="M9.44068 3.9C4.58911 3.99844 2.02505 8.13281 1.95005 10.6641C1.90786 12.15 1.32193 22.95 7.2938 23.1703C9.68911 23.2594 11.4704 20.4797 12.3751 17.3297C13.5141 13.3594 13.4626 9.37969 13.5938 8.32031C13.8047 6.62812 14.1563 5.38594 14.1563 5.38594C14.1563 5.38594 13.5657 3.81562 9.44068 3.9ZM35.4094 2.25C40.6876 2.44687 42.4876 4.78594 42.9985 6.14531C43.561 7.63125 44.0532 12.9328 43.2282 16.4719C42.5579 19.3594 41.5454 20.8266 39.1688 20.7281C36.9938 20.6391 35.8922 17.5031 34.2516 13.2375C32.6672 9.1125 31.4532 5.41875 31.2469 4.88906C30.9844 4.19531 30.4219 3.9 30.4219 3.9C30.4219 3.9 31.4766 2.1 35.4094 2.25Z" fill="#865B52"/>
<path d="M29.372 12.9703C26.7657 13.1344 25.5189 16.0313 26.072 18.9422C26.6673 22.0781 28.7251 23.5641 31.3173 23.2313C34.1532 22.8703 35.0111 19.6359 34.6501 17.1938C34.3173 14.9719 33.0611 12.7359 29.372 12.9703Z" fill="#D27856"/>
<path d="M32.4376 18.2812C32.4376 19.65 31.6782 20.7937 30.4736 20.7609C28.8376 20.7141 28.411 19.2656 28.4439 18.0469C28.4814 16.6219 29.3345 15.9469 30.5532 15.9797C31.6407 16.0031 32.4376 16.9125 32.4376 18.2812ZM18.6798 19.0359C18.6798 20.4609 17.9204 21.6516 16.7157 21.6141C15.0798 21.5672 14.6532 20.0578 14.6861 18.7875C14.7236 17.3016 15.7407 16.6687 16.697 16.7391C17.7798 16.8187 18.6798 17.6109 18.6798 19.0359ZM24.947 26.9953C24.947 26.9953 27.8157 26.7 27.6845 24.6187C27.5532 22.5422 25.6079 22.4062 24.0892 22.4391C22.5704 22.4719 20.3954 23.2641 20.6251 25.0125C20.8548 26.7609 23.3298 26.9906 23.3298 26.9906C23.3298 26.9906 23.3251 28.2844 22.472 28.3781C21.5485 28.4766 20.2267 27.0562 19.8657 26.6953C19.5048 26.3344 18.9423 26.4656 18.7454 26.7609C18.5486 27.0562 18.6798 27.7172 19.2423 28.2797C19.8048 28.8422 21.122 30.2578 22.4439 30.1266C23.7657 29.9953 23.7985 29.3016 24.3236 29.2687C24.8532 29.2359 24.8204 30.0281 26.1376 29.9953C27.0657 29.9719 28.9361 28.3406 29.2736 28.05C30.0329 27.3891 30.2298 26.7281 29.9017 26.3016C29.5736 25.875 28.6501 26.4984 28.1532 26.8641C27.6564 27.225 26.8548 28.0781 26.0767 28.2187C24.7829 28.4484 24.947 26.9953 24.947 26.9953Z" fill="#060401"/>
<path d="M36.661 23.9016C36.661 23.9016 36.0376 25.2703 35.5173 26.3672C34.8891 27.6891 33.9891 28.8422 33.9891 28.8422C33.9891 28.8422 35.0063 35.7984 41.0579 35.1984C43.2235 34.9828 44.8641 33.2859 45.0188 31.4859C45.2813 28.4484 44.1282 27.0281 42.3376 25.6406C39.436 23.4 36.661 23.9016 36.661 23.9016ZM32.4704 34.7812C31.3969 35.7656 31.9735 37.6172 33.3938 37.8187C34.8141 38.0156 35.5782 36.8344 35.4704 35.9391C35.311 34.5516 33.6938 33.6609 32.4704 34.7812ZM18.4501 32.9531C18.4501 32.9531 17.5032 35.55 19.5048 38.8031C20.3579 40.1859 22.2563 40.9641 23.5969 40.9125C25.0126 40.8609 26.2923 40.3687 27.3891 39C29.1376 36.8203 28.6407 33.1922 28.6407 33.1922C28.6407 33.1922 25.8704 34.3312 23.3298 34.2469C20.6251 34.1625 18.4501 32.9531 18.4501 32.9531ZM14.9954 52.8281C14.3063 52.6172 14.0298 53.6859 13.9829 54.3656C13.936 55.0453 13.9407 55.9266 14.5548 56.1469C15.1688 56.3672 15.0469 55.0594 15.1032 54.6281C15.2157 53.7984 15.7219 53.0484 14.9954 52.8281ZM17.7001 53.2266C17.2876 53.2078 16.8516 53.625 16.8001 54.8344C16.7579 55.8469 16.8001 56.6812 17.3719 56.7281C18.1407 56.7891 17.9251 55.8047 17.9673 54.9891C17.986 54.525 18.5579 53.2688 17.7001 53.2266ZM28.1954 54.5437C27.5344 54.5437 27.5157 55.2938 27.5157 56.1047C27.5157 56.9203 27.3469 57.9281 28.0876 58.0172C28.9876 58.125 28.8141 56.9156 28.8141 56.2359C28.8094 55.6453 28.9173 54.5437 28.1954 54.5437ZM31.186 54.3937C30.6563 54.5016 30.7032 55.2281 30.7219 56.1094C30.7454 56.9906 30.6141 57.9234 31.3594 57.8484C31.9969 57.7828 31.9548 56.7469 31.9313 55.9547C31.9126 55.2703 32.0016 54.2203 31.186 54.3937ZM40.2469 48.6609C39.7923 48.5719 39.2766 48.9562 39.1454 49.9828C39.0376 50.8641 39.0798 51.6375 39.8485 51.8062C40.2423 51.8953 40.3126 50.8828 40.3313 50.1562C40.3548 49.5281 40.8188 48.7734 40.2469 48.6609ZM42.7313 49.1953C42.2954 49.125 41.8688 49.3922 41.7563 50.4844C41.6907 51.1219 41.4563 52.2656 42.2485 52.3078C42.8626 52.3359 42.8157 51.3281 42.8719 50.8031C42.961 49.9734 43.4485 49.3172 42.7313 49.1953Z" fill="#D27856"/>
</svg>
