<svg width="60" height="60" viewBox="0 0 60 60" fill="none" xmlns="http://www.w3.org/2000/svg">
<path d="M11.1655 36.1547L7.55615 30.4969L8.54521 26.6062L16.8937 21.0891L28.4249 19.6734L41.5124 21.3703L47.8124 23.8453C47.8124 23.8453 52.5515 27.9469 52.6218 28.7953C52.6921 29.6437 51.3468 34.1016 51.2765 34.3125C51.2062 34.5234 50.2874 39.1219 47.5265 40.1109C44.7655 41.1 27.014 43.65 26.728 43.5047C26.4421 43.3594 11.1655 36.1547 11.1655 36.1547Z" fill="#2F2F2F"/>
<path d="M9.25781 34.3875C9.25781 34.3875 9.36563 33.1875 9.77344 31.9922C10.3172 30.3891 15.3422 23.4234 29.4187 23.4234C43.4953 23.4234 51.2766 30.3562 50.4984 33.8203C49.7203 37.2844 40.0312 45.9891 40.0312 45.9891C40.0312 45.9891 23.0531 43.3734 22.7719 43.3031C22.4859 43.2281 9.25781 34.3875 9.25781 34.3875Z" fill="#F7B03A"/>
<path d="M15.8063 30.2625C15.3938 30.3516 15.0329 30.6187 15.0704 31.0969C15.1032 31.575 15.5438 31.8 15.9375 31.7344C16.5516 31.6312 16.7719 31.1953 16.6922 30.7687C16.6125 30.3797 16.1813 30.1781 15.8063 30.2625ZM15.4125 32.4891C15.825 33.1406 15.2016 34.0453 13.9547 34.4391C12.7078 34.8328 11.8407 34.6359 11.6954 33.7828C11.55 32.9297 12.661 32.3906 13.2328 32.1937C13.8047 31.9969 14.986 31.8187 15.4125 32.4891ZM22.0922 27.7734C22.1203 28.4062 23.025 28.7578 24.3047 28.5937C25.5844 28.4297 26.2688 27.7266 26.2032 27.0891C26.1375 26.4516 25.2375 26.2031 24.2063 26.2687C23.175 26.3344 22.0594 26.9719 22.0922 27.7734ZM26.4844 26.1187C26.4844 26.6859 27.1547 26.8734 28.0219 26.8219C29.0532 26.7656 29.3344 26.3625 29.3813 25.9875C29.4282 25.6125 28.8094 25.0219 27.9375 25.0875C27.075 25.1531 26.4844 25.4953 26.4844 26.1187ZM35.0813 31.425C35.0157 32.1422 35.5078 32.9297 37.4391 32.7703C39.3703 32.6109 39.75 31.6406 39.75 31.2984C39.75 30.9562 39.4313 29.9156 37.5891 29.8875C36.4782 29.8687 35.1797 30.3422 35.0813 31.425ZM44.0766 31.0172C44.0391 31.3828 44.1563 32.3297 45.8953 32.2781C47.6297 32.2312 47.4188 31.6406 47.4188 31.3781C47.4188 31.1156 46.8282 30.15 45.6 30.0187C44.6203 29.9109 44.1422 30.4078 44.0766 31.0172ZM46.3032 33.5531C46.2703 33.9937 46.7766 34.3406 47.8594 34.275C48.7782 34.2187 49.1766 33.7359 49.1532 33.375C49.1203 32.85 48.6141 32.5875 47.8266 32.6203C47.1375 32.6484 46.3547 32.9344 46.3032 33.5531ZM26.4188 37.9453C26.4375 38.3203 27.2391 38.7656 28.5328 38.7656C29.8266 38.7656 30.0703 38.2266 30.0703 37.8328C30.0703 37.4391 29.6625 36.9984 28.4672 36.9469C27.3985 36.9 26.386 37.3078 26.4188 37.9453Z" fill="#FFE36A"/>
<path d="M12.989 36.6516C13.0359 36.5391 13.0921 36.0469 13.3312 35.6344C13.5421 35.2734 13.9171 34.9781 14.3484 34.9781C15.1031 34.9781 16.8046 35.2734 17.1984 35.8125C17.4843 36.2063 17.4609 37.6641 16.3125 38.0391C15.164 38.4188 12.989 36.6516 12.989 36.6516ZM16.4906 29.1141C16.514 29.4141 16.9968 30.0141 17.639 29.9672C18.2765 29.9203 20.1281 29.0672 20.3109 28.6875C20.489 28.3125 19.739 27.4594 19.2468 27.4594C18.7546 27.4594 16.4437 28.4953 16.4906 29.1141ZM35.3625 34.1625C35.1703 34.5516 34.9687 35.7 35.8031 36.0141C36.6375 36.3234 39.8671 36.4734 39.8671 35.5406C39.8671 34.6078 38.9484 33.9375 38.6062 33.8859C38.2593 33.8344 35.6578 33.5719 35.3625 34.1625ZM39.1453 32.6391C38.6156 33.4594 39.5812 34.4344 40.2937 34.7672C41.8312 35.4891 42.6046 35.3672 43.1437 34.9641C44.0625 34.275 43.7484 33.5859 41.7843 32.6719C40.3828 32.0156 39.5062 32.0813 39.1453 32.6391Z" fill="#D64C12"/>
<path d="M30.5015 27.75C30.4875 28.6172 32.4281 29.4938 33.825 29.5359C35.2219 29.5781 35.5875 28.9219 35.6906 28.6125C35.7937 28.3031 35.3015 27.2391 34.7484 26.7844C34.1953 26.3297 32.7797 25.8609 32.1422 25.9453C31.5047 26.025 30.5203 26.6438 30.5015 27.75Z" fill="#7F594B"/>
<path d="M19.0923 32.3062C19.1861 32.8922 20.0814 33.2906 21.6564 33.3937C23.5642 33.5156 24.7736 32.6531 24.8157 32.2875C24.8579 31.9172 23.747 30.975 21.8017 30.975C19.4392 30.9703 19.0126 31.7906 19.0923 32.3062Z" fill="#FE8D00"/>
<path d="M18.4171 35.7937C18.3562 36.8391 19.0921 37.2703 20.1187 37.2281C21.1452 37.1859 23.0718 36.225 23.4608 35.1141C23.7046 34.425 22.5562 33.2062 20.8733 33.2672C19.903 33.3047 18.4687 34.8797 18.4171 35.7937Z" fill="#7F594B"/>
<path d="M36.4735 29.6156C36.886 29.8406 38.4235 29.4094 39.6328 29.1656C40.8422 28.9219 42.075 28.7953 42.2578 28.4062C42.4406 28.0172 42.1125 26.3766 40.3078 26.2312C38.5031 26.0859 37.4766 26.7656 37.0453 27.2344C36.6141 27.7078 36.3281 28.2797 36.3047 28.4437C36.286 28.6125 36.1875 29.4609 36.4735 29.6156ZM43.8188 32.6953C44.4047 32.5922 44.025 30.8297 43.5516 30.2953C43.0781 29.7609 41.7469 29.5172 40.9031 29.6203C40.0641 29.7234 39.4875 29.9484 39.4453 30.4219C39.4031 30.8953 40.9031 31.6922 41.6813 32.0437C42.4641 32.3859 43.4672 32.7562 43.8188 32.6953Z" fill="#FE8D00"/>
<path d="M23.6718 34.0219C24.1547 34.1906 25.2797 33.8625 25.2937 33.15C25.3078 32.4375 24.6656 31.7719 24.0328 31.9172C23.714 31.9875 23.0484 32.8172 23.0625 33.1359C23.0765 33.4594 23.4234 33.9375 23.6718 34.0219ZM26.0343 29.7469C26.0765 30.3141 27.3375 30.9047 27.7734 30.5297C28.1859 30.1734 27.9468 28.6594 27.4125 28.6594C26.7468 28.6594 26.0156 29.5125 26.0343 29.7469ZM27.225 32.4703C27.2344 32.6719 27.5297 33.6 28.2562 33.5859C28.9828 33.5719 29.9672 32.8313 29.9672 32.4563C29.9672 32.0813 28.8234 30.8766 28.2843 30.8906C27.9187 30.9 27.2109 32.0813 27.225 32.4703Z" fill="#92A51E"/>
<path d="M29.6156 29.7891C29.5312 30.2906 29.9062 30.3422 30.239 30.3984C30.5718 30.4547 30.9937 30.5578 31.4296 31.125C31.8656 31.6922 32.2921 32.8688 32.3437 32.9953C32.5031 33.4031 33.2296 33.6188 33.7499 33.1125C34.2702 32.6063 33.2437 30.375 32.3296 29.6625C31.4109 28.95 29.7749 28.8609 29.6156 29.7891Z" fill="#FBE0BC"/>
<path d="M29.3812 30.9797C29.4515 31.4437 30.5109 32.2969 31.2515 31.9219C31.9921 31.5469 31.1952 30.1641 30.8718 30.0141C30.6702 29.9156 29.2781 30.3047 29.3812 30.9797ZM33.689 29.8359C33.3562 29.8219 33.0796 29.9391 33.0937 30.5016C33.1077 31.0688 33.3234 31.7063 34.064 31.7484C34.8046 31.7906 34.8749 30.8203 34.8749 30.7031C34.8749 30.5859 34.4249 29.8641 33.689 29.8359ZM33.9046 32.9063C33.6281 32.8406 32.2968 33.4125 32.2687 33.9516C32.2406 34.4859 32.7327 34.8938 33.5718 34.9969C34.4109 35.1 34.9781 35.1 35.0952 34.6922C35.2077 34.2844 34.7296 33.1078 33.9046 32.9063Z" fill="#92A51E"/>
<path d="M39.9469 37.7859C39.9984 38.1 41.1047 38.5922 41.4609 38.4938C41.8125 38.3953 42.6797 36.5859 43.9781 36.2156C45.2765 35.8406 45.7078 36 45.8859 35.8031C46.064 35.6062 45.8062 34.7016 45.375 34.5469C44.9437 34.3922 43.7812 34.1719 42.3281 35.0203C40.8375 35.8828 39.8859 37.4344 39.9469 37.7859ZM26.0953 33.3234C25.4578 33.3609 24.6 34.3078 24.2297 35.1703C23.6625 36.4781 23.4844 37.5656 23.639 37.8422C23.7984 38.1188 24.9281 38.5031 25.3875 38.1938C25.5047 38.1141 25.6219 36.6609 26.1937 35.5594C26.5828 34.8141 27.2344 34.5188 27.3515 34.4016C27.4687 34.2844 27.1359 33.2672 26.0953 33.3234ZM20.6109 26.6859C20.4375 26.85 19.964 27.6094 20.1187 28.9453C20.2406 29.9625 20.3812 30.5812 20.7094 30.7312C20.9625 30.8484 22.7719 31.0266 22.9312 30.5531C23.0906 30.0797 21.9703 28.7672 21.8484 28.5281C21.7265 28.2891 21.6703 26.9156 21.6515 26.7422C21.6328 26.5641 20.8875 26.4281 20.6109 26.6859Z" fill="#FBE0AF"/>
<path d="M57.5016 26.5359C56.6532 24.8391 55.7344 24.2016 54.9563 24.2016C54.1782 24.2016 51.4922 25.4766 51.4922 25.4766C51.4922 25.4766 45.4688 19.0078 30.1922 18.7875C15.4079 18.5719 9.12193 24.6891 9.12193 24.6891C9.12193 24.6891 6.9938 23.0672 4.94068 23.2781C2.89224 23.4938 1.12505 28.8703 2.0438 30.4266C2.96255 31.9828 4.30787 31.9125 5.36724 32.4797C6.42662 33.0469 7.42037 33.6844 7.6313 34.0359C7.84224 34.3875 8.47974 42.2438 10.4626 45.7781C12.4454 49.3172 16.1907 54.0563 29.9157 54.3375C43.6407 54.6188 47.3438 49.0781 49.0126 45.9188C50.9954 42.1688 51.9141 35.2359 51.9141 35.2359C51.9141 35.2359 53.3297 33.9609 54.886 33.3281C56.6063 32.625 57.361 32.4797 57.8579 31.7719C58.3501 31.0594 58.35 28.2328 57.5016 26.5359ZM30.4079 39.7641C15.6235 39.6188 8.47505 34.95 8.69068 29.6484C8.8313 26.1844 15.7641 20.4516 29.3485 20.5922C43.0782 20.7375 51.6329 25.6875 51.5625 30.2813C51.4875 34.8797 44.911 39.9047 30.4079 39.7641Z" fill="#6A6E70"/>
<path opacity="0.6" d="M29.864 26.8359C31.3593 26.6766 30.6796 24.1594 31.9078 21.7312C34.7156 16.1672 40.2328 15.6047 40.0781 10.8562C39.9093 5.66249 31.8562 3.14062 29.4046 5.13281C28.6171 5.77499 33.1312 6.51093 32.4187 9.47343C31.7015 12.4359 26.2406 12.6375 24.914 17.3859C23.3343 23.0203 28.8937 26.9344 29.864 26.8359Z" fill="#EAEAEA"/>
</svg>
