<svg width="35" height="35" viewBox="0 0 35 35" fill="none" xmlns="http://www.w3.org/2000/svg">
<path fill-rule="evenodd" clip-rule="evenodd" d="M22.8668 7.79917C21.726 7.79801 20.6315 8.24995 19.824 9.05561C19.0164 9.86127 18.5618 10.9547 18.5603 12.0954C18.5622 13.2361 19.0171 14.3294 19.825 15.1348C20.6328 15.9402 21.7275 16.3918 22.8682 16.3902C24.009 16.3918 25.1036 15.9402 25.9114 15.1348C26.7193 14.3294 27.1742 13.2361 27.1761 12.0954C27.1754 11.5305 27.0633 10.9712 26.8464 10.4495C26.6295 9.92787 26.312 9.45404 25.912 9.05509C25.5119 8.65615 25.0372 8.3399 24.515 8.12441C23.9928 7.90892 23.4317 7.7984 22.8668 7.79917ZM20.7493 12.0954C20.75 11.8177 20.8055 11.5429 20.9125 11.2866C21.0194 11.0304 21.1758 10.7977 21.3727 10.6019C21.5696 10.4061 21.8032 10.251 22.06 10.1454C22.3169 10.0398 22.592 9.9859 22.8697 9.98667C24.0451 9.98667 24.9901 10.9346 24.9901 12.0954C24.9882 12.656 24.7637 13.1929 24.3661 13.588C23.9685 13.9832 23.4302 14.2043 22.8697 14.2027C22.3091 14.2043 21.7709 13.9832 21.3732 13.588C20.9756 13.1929 20.7512 12.656 20.7493 12.0954Z" fill="#999999"/>
<path fill-rule="evenodd" clip-rule="evenodd" d="M13.898 30.4471C14.32 29.8758 14.5414 29.1811 14.528 28.471C15.0996 28.6402 15.6655 28.6606 16.208 28.5585C17.328 28.3456 18.1578 27.6369 18.5982 27.0535L18.6055 27.0433L18.6128 27.0331C18.9194 26.6146 19.1301 26.1337 19.2299 25.6246C19.3297 25.1155 19.3162 24.5906 19.1903 24.0873C19.0838 23.6483 18.9065 23.2296 18.6653 22.8477C18.5543 22.6428 18.4213 22.4506 18.2686 22.2746L18.2817 22.26L18.9584 21.5862C19.5155 21.8531 20.1192 22.0208 20.6471 22.1302C21.3782 22.2802 22.122 22.3593 22.8682 22.3665C28.5571 22.3665 33.1771 17.7727 33.1771 12.094C33.1771 6.41812 28.5571 1.82291 22.8667 1.82291C17.1792 1.82291 12.5578 6.41666 12.5578 12.094C12.5641 13.4188 12.8472 14.7277 13.389 15.9367L2.80734 26.4746C2.31335 26.9742 1.98365 27.6127 1.86234 28.3048C1.71797 29.1842 1.95422 30.1627 2.80734 31.0115L4.09359 32.2919C4.60311 32.7411 5.22969 33.0364 5.90047 33.1435C6.35847 33.2142 6.82676 33.1738 7.26584 33.0255C7.70492 32.8773 8.10193 32.6257 8.42338 32.2919L9.2488 31.4694C9.95997 31.8852 10.7981 32.0283 11.6069 31.8719C12.5096 31.6929 13.3174 31.1942 13.8819 30.4675L13.8907 30.4573L13.898 30.4471ZM14.7453 12.094C14.7453 7.63437 18.378 4.01041 22.8682 4.01041C27.3569 4.01041 30.9896 7.63437 30.9896 12.094C30.9896 16.5565 27.3584 20.179 22.8667 20.179C22.4701 20.179 21.7832 20.1308 21.0905 19.9894C20.3657 19.8377 19.7969 19.6146 19.4936 19.3623C19.2839 19.1888 19.0172 19.0997 18.7453 19.1124C18.4735 19.125 18.2162 19.2386 18.0236 19.4308L16.7373 20.7112C16.4442 21.0029 16.1613 21.3354 16.0111 21.719C15.8215 22.2046 15.8828 22.6712 16.0986 23.0606C16.2269 23.2896 16.434 23.5083 16.5201 23.6002L16.5492 23.6308C16.6513 23.7431 16.7053 23.816 16.7461 23.8977L16.7855 23.975L16.8292 24.0362L16.8394 24.0508C16.9406 24.22 17.0158 24.4033 17.0626 24.5948C17.1413 24.9287 17.1413 25.324 16.8438 25.7469C16.5827 26.0816 16.2137 26.3155 15.7996 26.409C15.4248 26.4804 14.8123 26.4337 13.9957 25.6215C13.7907 25.4171 13.513 25.3023 13.2235 25.3023C12.934 25.3023 12.6563 25.4171 12.4513 25.6215L12.0226 26.0473C11.8243 26.2443 11.7091 26.5097 11.7004 26.789C11.6917 27.0684 11.7903 27.3404 11.9759 27.5494C12.1009 27.718 12.1993 27.905 12.2676 28.1035C12.3769 28.4317 12.3944 28.7831 12.1276 29.1623C11.9526 29.3883 11.5982 29.6465 11.1957 29.7223C10.8544 29.7879 10.4169 29.7398 9.92401 29.2483C9.71899 29.044 9.44131 28.9292 9.15182 28.9292C8.86233 28.9292 8.58465 29.044 8.37963 29.2483L6.87901 30.7431C6.63838 30.9823 6.42693 31.01 6.21984 30.9794C5.99473 30.9398 5.78256 30.8462 5.60151 30.7067L4.35172 29.4612C4.00318 29.1156 3.99005 28.8487 4.02068 28.6592C4.06761 28.4198 4.18254 28.199 4.35172 28.0233L15.4992 16.921C15.6739 16.7469 15.7842 16.5185 15.812 16.2734C15.8398 16.0283 15.7835 15.781 15.6523 15.5721L15.6494 15.5677C15.6065 15.4965 15.5666 15.4235 15.5298 15.349C15.0204 14.3391 14.7518 13.225 14.7453 12.094ZM11.9598 27.5275C11.9598 27.5304 11.9628 27.5319 11.9657 27.5348L11.9642 27.5333L11.9598 27.5275Z" fill="#999999"/>
</svg>
