<svg width="30" height="30" viewBox="0 0 30 30" fill="none" xmlns="http://www.w3.org/2000/svg">
<g clip-path="url(#clip0_33_153)">
<path d="M22.2925 6.67246C22.832 7.21211 23.5182 7.58133 24.2658 7.73423C25.0134 7.88713 25.7894 7.81696 26.4975 7.53246L29.5083 10.5416C30.1225 11.1583 30.1233 12.1566 29.505 12.775L12.7658 29.5041C12.4691 29.7995 12.0675 29.9654 11.6488 29.9654C11.23 29.9654 10.8284 29.7995 10.5317 29.5041L7.52667 26.4941C7.80983 25.7857 7.87928 25.0099 7.72645 24.2624C7.57361 23.515 7.20518 22.8287 6.66667 22.2883C6.12686 21.7488 5.44053 21.3798 4.69286 21.2269C3.94518 21.074 3.16907 21.144 2.46083 21.4283L0.495 19.4616C0.348154 19.3151 0.231651 19.141 0.15216 18.9494C0.0726699 18.7578 0.0317535 18.5524 0.0317535 18.345C0.0317535 18.1375 0.0726699 17.9321 0.15216 17.7405C0.231651 17.5489 0.348154 17.3748 0.495 17.2283L17.2317 0.496625C17.3782 0.349814 17.5522 0.23337 17.7438 0.153972C17.9355 0.0745728 18.1409 0.0337811 18.3483 0.033936C18.5557 0.0340908 18.761 0.0751891 18.9525 0.154874C19.144 0.234559 19.3179 0.351262 19.4642 0.498291L21.4317 2.46579C21.1473 3.17421 21.0774 3.95054 21.2304 4.69839C21.3834 5.44624 21.7527 6.13267 22.2925 6.67246Z" fill="#EA596E"/>
<path d="M4.51667 15.4392L2.72583 17.2292C2.42995 17.5253 2.26353 17.9267 2.26306 18.3453C2.26259 18.764 2.42811 19.1657 2.72333 19.4625L3.175 19.9133C3.97681 19.6977 4.82128 19.6973 5.6233 19.9121C6.42533 20.1269 7.15657 20.5492 7.74333 21.1367C8.33048 21.7234 8.75263 22.4546 8.96725 23.2565C9.18187 24.0583 9.18138 24.9026 8.96583 25.7042L10.5308 27.2733C10.8276 27.5692 11.2296 27.7352 11.6487 27.7349C12.0677 27.7346 12.4695 27.568 12.7658 27.2717L14.59 25.4492L4.51667 15.4392ZM15.7842 24.2558L24.2492 15.7958L14.1733 5.78585L5.71167 14.2458L15.7842 24.2558ZM17.4425 12.595C19.3133 14.4517 19.73 17.0583 18.3767 18.4192C17.0208 19.7817 14.4083 19.3783 12.5425 17.5233C10.6767 15.6667 10.2608 13.0583 11.6142 11.6975C12.9683 10.3392 15.5767 10.7392 17.4425 12.595ZM27.2758 10.5417L25.7083 8.97418C24.9064 9.18977 24.0618 9.1902 23.2597 8.97543C22.4575 8.76066 21.7261 8.33829 21.1392 7.75085C20.5512 7.1641 20.1283 6.43265 19.9132 5.63029C19.6981 4.82793 19.6985 3.98304 19.9142 3.18085L19.4633 2.72585C19.1664 2.43154 18.7651 2.26662 18.347 2.26709C17.9289 2.26756 17.528 2.43337 17.2317 2.72835L15.3683 4.59168L25.445 14.6009L27.275 12.7717C27.8917 12.1575 27.8917 11.1583 27.2758 10.5417Z" fill="#BE1931"/>
</g>
<defs>
<clipPath id="clip0_33_153">
<rect width="30" height="30" fill="white"/>
</clipPath>
</defs>
</svg>
