<svg width="60" height="60" viewBox="0 0 60 60" fill="none" xmlns="http://www.w3.org/2000/svg">
<g clip-path="url(#clip0_42_447)">
<path d="M27.5366 0.386665C31.2799 0.386665 35.5899 2.67833 38.7082 5.80167C41.8299 8.925 44.9999 12.3467 44.9999 15.7983V44.4717L18.3766 44.5233V15.97C18.2216 13.46 20.1682 0.386665 27.5366 0.386665Z" fill="#EA596E"/>
<path d="M31.6667 18.9633V46.6667C31.6667 48.5067 33.1601 46.6667 35.0001 46.6667V50C35.8841 50 36.732 49.6488 37.3571 49.0237C37.9822 48.3986 38.3334 47.5507 38.3334 46.6667V20.555C36.2367 20.3817 33.9167 20.1183 31.6667 18.9633Z" fill="#DD2E44"/>
<path d="M36.7866 5.75833C41.2266 9.74333 43.9149 14.485 41.7216 16.9233C39.5316 19.3617 33.2883 18.575 28.8533 14.59C24.4183 10.6067 22.5983 5.39666 24.7883 2.95833C26.9816 0.519998 32.3516 1.77166 36.7866 5.75833Z" fill="#F4ABBA"/>
<path d="M49.9999 56.6667C49.9999 57.5507 49.6487 58.3986 49.0236 59.0237C48.3985 59.6488 47.5506 60 46.6666 60H16.6666C15.7825 60 14.9347 59.6488 14.3096 59.0237C13.6844 58.3986 13.3333 57.5507 13.3333 56.6667V46.6667C13.3333 45.7826 13.6844 44.9348 14.3096 44.3096C14.9347 43.6845 15.7825 43.3333 16.6666 43.3333H46.6666C47.5506 43.3333 48.3985 43.6845 49.0236 44.3096C49.6487 44.9348 49.9999 45.7826 49.9999 46.6667V56.6667Z" fill="#FFCC4D"/>
<path d="M51.6667 56.6667C51.6667 57.5507 51.3156 58.3986 50.6904 59.0237C50.0653 59.6488 49.2175 60 48.3334 60H15.0001C14.116 60 13.2682 59.6488 12.6431 59.0237C12.0179 58.3986 11.6667 57.5507 11.6667 56.6667V55C11.6667 54.116 12.0179 53.2681 12.6431 52.643C13.2682 52.0179 14.116 51.6667 15.0001 51.6667H48.3334C49.2175 51.6667 50.0653 52.0179 50.6904 52.643C51.3156 53.2681 51.6667 54.116 51.6667 55V56.6667Z" fill="#FFAC33"/>
</g>
<defs>
<clipPath id="clip0_42_447">
<rect width="60" height="60" fill="white"/>
</clipPath>
</defs>
</svg>
