<svg width="35" height="35" viewBox="0 0 35 35" fill="none" xmlns="http://www.w3.org/2000/svg">
<path d="M17.488 18.5028C18.5221 18.5028 19.5462 18.2991 20.5016 17.9033C21.457 17.5075 22.3252 16.9275 23.0564 16.1962C23.7877 15.465 24.3678 14.5968 24.7635 13.6414C25.1593 12.6859 25.363 11.6619 25.363 10.6278C25.363 9.59359 25.1593 8.56956 24.7635 7.61412C24.3678 6.65868 23.7877 5.79055 23.0564 5.05928C22.3252 4.32802 21.457 3.74796 20.5016 3.3522C19.5462 2.95644 18.5221 2.75275 17.488 2.75275C15.3994 2.75275 13.3963 3.58244 11.9195 5.05928C10.4427 6.53613 9.61297 8.53917 9.61297 10.6278C9.61297 12.7163 10.4427 14.7194 11.9195 16.1962C13.3963 17.6731 15.3994 18.5028 17.488 18.5028ZM17.5002 5.57458e-07C19.8053 -0.000750316 22.0466 0.757065 23.8783 2.15652C25.71 3.55598 27.0302 5.5193 27.6354 7.74356C28.2405 9.96782 28.0969 12.3294 27.2267 14.4639C26.3564 16.5985 24.808 18.3873 22.8202 19.5545C29.2742 21.497 34.1217 26.936 34.9915 33.691C35.0737 34.3333 34.596 34.916 33.924 34.9948C33.2537 35.0735 32.6412 34.6185 32.559 33.9762C31.614 26.6438 25.2632 21.1225 17.5615 21.1225C9.81772 21.1225 3.38472 26.6543 2.44147 33.9762C2.35922 34.6185 1.74672 35.0735 1.07647 34.9948C0.404467 34.916 -0.0732835 34.3333 0.00896654 33.691C0.876967 26.964 5.75072 21.532 12.2152 19.572C10.2214 18.4101 8.6659 16.6238 7.78918 14.4892C6.91246 12.3546 6.76337 9.99058 7.36495 7.76274C7.96653 5.53489 9.28528 3.56727 11.1173 2.1641C12.9493 0.760932 15.1926 0.000366208 17.5002 5.57458e-07Z" fill="#999999"/>
</svg>
