<svg width="25" height="25" viewBox="0 0 25 25" fill="none" xmlns="http://www.w3.org/2000/svg">
<path d="M22.5342 6.92383C22.207 6.1661 21.7351 5.47945 21.145 4.90235C20.5545 4.3235 19.8583 3.86351 19.0942 3.54737C18.302 3.21822 17.4522 3.04976 16.5942 3.05176C15.3906 3.05176 14.2163 3.38135 13.1958 4.00391C12.9517 4.15283 12.7197 4.31641 12.5 4.49463C12.2803 4.31641 12.0483 4.15283 11.8042 4.00391C10.7837 3.38135 9.60937 3.05176 8.40576 3.05176C7.53906 3.05176 6.69922 3.21778 5.90576 3.54737C5.13916 3.86475 4.44824 4.32129 3.85498 4.90235C3.26413 5.4788 2.79216 6.16561 2.46582 6.92383C2.12646 7.7124 1.95312 8.54981 1.95312 9.41162C1.95312 10.2246 2.11914 11.0718 2.44873 11.9336C2.72461 12.6538 3.12012 13.4009 3.62549 14.1553C4.42627 15.3491 5.52734 16.5942 6.89453 17.8564C9.16016 19.9487 11.4038 21.394 11.499 21.4526L12.0776 21.8237C12.334 21.9873 12.6636 21.9873 12.9199 21.8237L13.4985 21.4526C13.5938 21.3916 15.835 19.9487 18.103 17.8564C19.4702 16.5942 20.5713 15.3491 21.3721 14.1553C21.8774 13.4009 22.2754 12.6538 22.5488 11.9336C22.8784 11.0718 23.0444 10.2246 23.0444 9.41162C23.0469 8.54981 22.8735 7.7124 22.5342 6.92383ZM12.5 19.8926C12.5 19.8926 3.80859 14.3237 3.80859 9.41162C3.80859 6.92383 5.8667 4.90723 8.40576 4.90723C10.1904 4.90723 11.7383 5.90332 12.5 7.3584C13.2617 5.90332 14.8096 4.90723 16.5942 4.90723C19.1333 4.90723 21.1914 6.92383 21.1914 9.41162C21.1914 14.3237 12.5 19.8926 12.5 19.8926Z" fill="black"/>
</svg>
