<svg width="21" height="20" viewBox="0 0 21 20" fill="none" xmlns="http://www.w3.org/2000/svg">
<path d="M20.4919 4.0986C20.1661 3.29654 19.6963 2.56973 19.1088 1.95886C18.5208 1.34616 17.8276 0.85925 17.0669 0.524617C16.278 0.176219 15.4319 -0.002099 14.5777 1.8642e-05C13.3793 1.8642e-05 12.2101 0.348889 11.194 1.00787C10.9509 1.16551 10.72 1.33865 10.5012 1.5273C10.2824 1.33865 10.0515 1.16551 9.80841 1.00787C8.79233 0.348889 7.62309 1.8642e-05 6.42469 1.8642e-05C5.56175 1.8642e-05 4.72554 0.175746 3.93552 0.524617C3.17224 0.860566 2.48431 1.34382 1.89362 1.95886C1.30533 2.56904 0.835402 3.29602 0.510475 4.0986C0.172589 4.93331 0 5.8197 0 6.73193C0 7.59248 0.165297 8.48921 0.493459 9.40144C0.768144 10.1638 1.16194 10.9546 1.66512 11.7531C2.46243 13.0168 3.55874 14.3347 4.92001 15.6708C7.17582 17.8855 9.40976 19.4153 9.50456 19.4773L10.0807 19.8701C10.3359 20.0433 10.6641 20.0433 10.9193 19.8701L11.4954 19.4773C11.5902 19.4127 13.8217 17.8855 16.08 15.6708C17.4412 14.3347 18.5375 13.0168 19.3349 11.7531C19.838 10.9546 20.2343 10.1638 20.5065 9.40144C20.8347 8.48921 21 7.59248 21 6.73193C21.0024 5.8197 20.8298 4.93331 20.4919 4.0986Z" fill="#F24E1E"/>
</svg>
