<svg width="68" height="64" viewBox="0 0 68 64" fill="none" xmlns="http://www.w3.org/2000/svg">
<path d="M4 18.7466H52.75L46.75 23.2466C46.356 23.542 46.0241 23.9122 45.7732 24.336C45.5223 24.7597 45.3573 25.2287 45.2877 25.7162C45.218 26.2037 45.2451 26.7002 45.3673 27.1772C45.4895 27.6543 45.7045 28.1026 46 28.4966C46.3493 28.9623 46.8022 29.3403 47.323 29.6007C47.8437 29.861 48.4178 29.9966 49 29.9966C49.8114 29.9966 50.6009 29.7334 51.25 29.2466L66.25 17.9966C66.7087 17.6466 67.0804 17.1955 67.3362 16.6784C67.5921 16.1614 67.7252 15.5922 67.7252 15.0153C67.7252 14.4384 67.5921 13.8692 67.3362 13.3522C67.0804 12.8351 66.7087 12.384 66.25 12.0341L51.775 0.784058C50.9893 0.172403 49.9928 -0.102081 49.0047 0.0209897C48.0166 0.14406 47.1179 0.654605 46.5062 1.44031C45.8946 2.22601 45.6201 3.22251 45.7432 4.2106C45.8662 5.19868 46.3768 6.0974 47.1625 6.70906L53.05 11.2466H4C3.00544 11.2466 2.05161 11.6416 1.34835 12.3449C0.645088 13.0482 0.25 14.002 0.25 14.9966C0.25 15.9911 0.645088 16.9449 1.34835 17.6482C2.05161 18.3515 3.00544 18.7466 4 18.7466ZM64 44.9966H15.25L21.25 40.4966C22.0457 39.8998 22.5717 39.0115 22.7123 38.0269C22.853 37.0423 22.5967 36.0422 22 35.2466C21.4033 34.4509 20.5149 33.9249 19.5303 33.7842C18.5458 33.6436 17.5457 33.8998 16.75 34.4966L1.75 45.7466C1.29135 46.0965 0.919629 46.5476 0.663763 47.0647C0.407897 47.5817 0.274785 48.1509 0.274785 48.7278C0.274785 49.3047 0.407897 49.8739 0.663763 50.3909C0.919629 50.908 1.29135 51.3591 1.75 51.7091L16.225 62.9591C16.8796 63.4671 17.6839 63.744 18.5125 63.7466C19.0852 63.7452 19.65 63.6127 20.1635 63.3591C20.677 63.1056 21.1257 62.7379 21.475 62.2841C22.084 61.5023 22.3587 60.5113 22.2393 59.5275C22.1198 58.5438 21.6159 57.6474 20.8375 57.0341L14.95 52.4966H64C64.9946 52.4966 65.9484 52.1015 66.6517 51.3982C67.3549 50.695 67.75 49.7411 67.75 48.7466C67.75 47.752 67.3549 46.7982 66.6517 46.0949C65.9484 45.3916 64.9946 44.9966 64 44.9966Z" fill="#377AFF"/>
</svg>
