<svg width="70" height="70" viewBox="0 0 70 70" fill="none" xmlns="http://www.w3.org/2000/svg">
<path d="M28.3792 58.896L25.7892 49.7785C23.3431 48.3416 21.35 46.3126 19.81 43.6915C18.27 41.0703 17.5 38.1741 17.5 35.0027C17.5 31.8313 18.27 28.9351 19.81 26.314C21.35 23.6928 23.3431 21.6638 25.7892 20.2269L28.3821 11.1094H41.6179L44.2108 20.2298C46.6569 21.6648 48.65 23.6928 50.19 26.314C51.73 28.9351 52.5 31.8313 52.5 35.0027C52.5 38.1741 51.73 41.0703 50.19 43.6915C48.65 46.3126 46.6569 48.3416 44.2108 49.7785L41.6179 58.896H28.3792ZM35 49.586C39.0347 49.586 42.4744 48.1637 45.3192 45.319C48.1639 42.4742 49.5853 39.0355 49.5833 35.0027C49.5814 30.9699 48.159 27.5312 45.3162 24.6865C42.4735 21.8417 39.0347 20.4194 35 20.4194C30.9653 20.4194 27.5265 21.8417 24.6838 24.6865C21.841 27.5312 20.4186 30.9699 20.4167 35.0027C20.4147 39.0355 21.8371 42.4752 24.6838 45.3219C27.5304 48.1685 30.9692 49.5899 35 49.586ZM29.3446 18.4565C30.3557 18.1376 31.3201 17.8965 32.2379 17.7331C33.1557 17.5678 34.0764 17.4852 35 17.4852C35.9236 17.4852 36.8443 17.5678 37.7621 17.7331C38.6799 17.8984 39.6433 18.1395 40.6525 18.4565L39.375 14.0231H30.625L29.3446 18.4565ZM30.625 55.9794H39.375L40.6554 51.549C39.6443 51.8679 38.6799 52.0973 37.7621 52.2373C36.8443 52.3773 35.9236 52.4463 35 52.4444C34.0764 52.4424 33.1557 52.3724 32.2379 52.2344C31.3201 52.0963 30.3567 51.8669 29.3475 51.546L30.625 55.9794ZM30.625 55.9794H29.3475H40.6554H30.625Z" fill="black"/>
</svg>
