<svg width="40" height="40" viewBox="0 0 40 40" fill="none" xmlns="http://www.w3.org/2000/svg">
<g clip-path="url(#clip0_2_16)">
<path d="M39.9934 22.3678C39.9972 21.5453 39.8678 18.4422 39.769 17.5547C38.6315 7.36906 30.3647 -0.0234375 20.1134 -0.0234375C9.4359 -0.0234375 0.784688 8.20406 0.197773 19.1134C0.185273 19.3516 0.0977734 21.0409 0.0915234 22.0466L0.0883984 22.6059C0.0371094 22.8372 0.00585938 23.0759 0.00585938 23.3222V31.7072C0.00585938 33.5384 1.49523 35.0278 3.32648 35.0278H6.69711C8.52836 35.0278 10.0183 33.5384 10.0183 31.7072V23.3228C10.0183 21.4916 8.5277 20.0022 6.69707 20.0022H3.32586C3.10039 20.0022 2.87549 20.025 2.65461 20.0703C2.67336 19.6647 2.69023 19.3447 2.69465 19.2478C3.20902 9.68594 10.7859 2.47656 20.1134 2.47656C29.0696 2.47656 36.2902 8.93531 37.284 17.8328C37.3259 18.2041 37.3796 19.1478 37.4227 20.0953C37.1808 20.0391 36.9314 20.0021 36.6727 20.0021H33.3415C31.5102 20.0021 30.0209 21.4915 30.0209 23.3228V31.669C30.0209 32.9334 30.7396 34.0228 31.7822 34.5828L23.7572 37.7334V37.5296C23.7572 36.8396 23.1972 36.2796 22.5072 36.2796H18.7572C18.0672 36.2796 17.5072 36.8396 17.5072 37.5296V38.7796C17.5072 39.4697 18.0672 40.0296 18.7572 40.0296H22.5072C22.5178 40.0296 22.5272 40.0265 22.5378 40.0265L24.7784 40.0178L37.6516 34.964C37.8204 34.894 37.9635 34.7896 38.081 34.6646C39.2079 34.1328 39.9947 32.9953 39.9947 31.669V23.3227C39.9947 23.119 39.9697 22.9209 39.9341 22.7277C39.9685 22.6127 39.9929 22.4933 39.9935 22.3677L39.9934 22.3678ZM3.3259 22.5022H6.6966C7.14973 22.5022 7.51781 22.8697 7.51781 23.3228V31.7078C7.51781 32.1609 7.14906 32.5284 6.69652 32.5284H3.32594C2.87281 32.5284 2.50535 32.1609 2.50535 31.7078V23.3228C2.50594 22.8697 2.8734 22.5022 3.3259 22.5022ZM32.5203 23.3228C32.5203 22.8697 32.8879 22.5022 33.341 22.5022H36.6722C37.1254 22.5022 37.4934 22.8697 37.4934 23.3228V31.6691C37.4934 32.1222 37.1247 32.4897 36.6722 32.4897H33.3409C32.8878 32.4897 32.5203 32.1222 32.5203 31.6691V23.3228Z" fill="black"/>
</g>
<defs>
<clipPath id="clip0_2_16">
<rect width="40" height="40" fill="white"/>
</clipPath>
</defs>
</svg>
