<svg width="40" height="40" viewBox="0 0 40 40" fill="none" xmlns="http://www.w3.org/2000/svg">
<path d="M23.465 2.5C23.7297 2.50001 23.9875 2.58401 24.2013 2.73991C24.4152 2.8958 24.574 3.11555 24.655 3.3675L26.03 7.64C26.6075 7.9225 27.16 8.24 27.6875 8.5975L32.0775 7.6525C32.3364 7.59724 32.6061 7.62556 32.8478 7.73338C33.0895 7.84121 33.2907 8.02298 33.4225 8.2525L36.8875 14.25C37.0198 14.4794 37.0759 14.7449 37.0476 15.0082C37.0193 15.2715 36.9081 15.519 36.73 15.715L33.7175 19.04C33.7614 19.6776 33.7614 20.3174 33.7175 20.955L36.73 24.285C36.9081 24.481 37.0193 24.7285 37.0476 24.9918C37.0759 25.2551 37.0198 25.5206 36.8875 25.75L33.4225 31.75C33.2904 31.9791 33.089 32.1603 32.8473 32.2677C32.6056 32.375 32.3361 32.403 32.0775 32.3475L27.6875 31.4025C27.1625 31.7575 26.6075 32.0775 26.0325 32.36L24.655 36.6325C24.574 36.8844 24.4152 37.1042 24.2013 37.2601C23.9875 37.416 23.7297 37.5 23.465 37.5H16.535C16.2704 37.5 16.0126 37.416 15.7987 37.2601C15.5849 37.1042 15.426 36.8844 15.345 36.6325L13.9725 32.3625C13.3966 32.0808 12.8411 31.7592 12.31 31.4L7.92253 32.3475C7.66369 32.4028 7.39399 32.3744 7.15228 32.2666C6.91057 32.1588 6.70932 31.977 6.57753 31.7475L3.11253 25.75C2.98021 25.5206 2.92417 25.2551 2.95248 24.9918C2.98078 24.7285 3.09198 24.481 3.27003 24.285L6.28253 20.955C6.23888 20.3191 6.23888 19.6809 6.28253 19.045L3.27003 15.715C3.09198 15.519 2.98078 15.2715 2.95248 15.0082C2.92417 14.7449 2.98021 14.4794 3.11253 14.25L6.57753 8.25C6.70969 8.02093 6.91109 7.83969 7.15277 7.73232C7.39445 7.62496 7.66396 7.59701 7.92253 7.6525L12.31 8.6C12.84 8.2425 13.395 7.92 13.9725 7.6375L15.3475 3.3675C15.4282 3.11636 15.5863 2.8972 15.7992 2.74137C16.012 2.58555 16.2687 2.50106 16.5325 2.5H23.4625H23.465ZM22.55 5H17.45L16.03 9.4175L15.0725 9.885C14.6018 10.1153 14.1474 10.3776 13.7125 10.67L12.8275 11.27L8.28753 10.29L5.73753 14.71L8.85003 18.155L8.77503 19.215C8.73909 19.7377 8.73909 20.2623 8.77503 20.785L8.85003 21.845L5.73253 25.29L8.28503 29.71L12.825 28.7325L13.71 29.33C14.1449 29.6224 14.5993 29.8847 15.07 30.115L16.0275 30.5825L17.45 35H22.555L23.98 30.58L24.935 30.115C25.4052 29.8852 25.8588 29.6229 26.2925 29.33L27.175 28.7325L31.7175 29.71L34.2675 25.29L31.1525 21.845L31.2275 20.785C31.2636 20.2615 31.2636 19.736 31.2275 19.2125L31.1525 18.1525L34.27 14.71L31.7175 10.29L27.175 11.265L26.2925 10.67C25.8588 10.3771 25.4052 10.1148 24.935 9.885L23.98 9.42L22.5525 5H22.55ZM20 12.5C21.9892 12.5 23.8968 13.2902 25.3033 14.6967C26.7099 16.1032 27.5 18.0109 27.5 20C27.5 21.9891 26.7099 23.8968 25.3033 25.3033C23.8968 26.7098 21.9892 27.5 20 27.5C18.0109 27.5 16.1032 26.7098 14.6967 25.3033C13.2902 23.8968 12.5 21.9891 12.5 20C12.5 18.0109 13.2902 16.1032 14.6967 14.6967C16.1032 13.2902 18.0109 12.5 20 12.5ZM20 15C18.6739 15 17.4022 15.5268 16.4645 16.4645C15.5268 17.4021 15 18.6739 15 20C15 21.3261 15.5268 22.5979 16.4645 23.5355C17.4022 24.4732 18.6739 25 20 25C21.3261 25 22.5979 24.4732 23.5356 23.5355C24.4732 22.5979 25 21.3261 25 20C25 18.6739 24.4732 17.4021 23.5356 16.4645C22.5979 15.5268 21.3261 15 20 15Z" fill="#919191"/>
</svg>
