<svg width="60" height="60" viewBox="0 0 60 60" fill="none" xmlns="http://www.w3.org/2000/svg">
<path d="M59.9967 44.7333V56.52C59.9971 57.3639 59.6773 58.1766 59.102 58.794C58.5267 59.4114 57.7386 59.7876 56.8968 59.8467C55.4403 59.9467 54.2503 60 53.3304 60C23.8753 60 0 36.1233 0 6.66667C0 5.74667 0.0499972 4.55667 0.153325 3.1C0.212396 2.25815 0.588571 1.47004 1.20594 0.894696C1.82332 0.319356 2.63593 -0.000381444 3.47981 8.55265e-07H15.2658C15.6793 -0.000417781 16.0781 0.152863 16.3849 0.430068C16.6916 0.707273 16.8844 1.08861 16.9257 1.5C17.0024 2.26667 17.0724 2.87667 17.139 3.34C17.8015 7.96308 19.1589 12.4594 21.1655 16.6767C21.4821 17.3433 21.2755 18.14 20.6755 18.5667L13.4826 23.7067C17.8805 33.9548 26.047 42.1218 36.2947 46.52L41.4277 39.34C41.6375 39.0467 41.9436 38.8363 42.2926 38.7455C42.6417 38.6547 43.0115 38.6894 43.3376 38.8433C47.554 40.8464 52.049 42.2006 56.6702 42.86C57.1335 42.9267 57.7435 42.9967 58.5034 43.0733C58.9142 43.1155 59.2947 43.3086 59.5712 43.6153C59.8477 43.922 59.9972 44.3204 59.9967 44.7333Z" fill="#D93F36"/>
</svg>
