<svg width="63" height="33" viewBox="0 0 63 33" fill="none" xmlns="http://www.w3.org/2000/svg">
<path d="M22.8684 2.62829C31.5113 -0.33885 40.9095 -0.257241 49.4996 2.85954C54.2172 4.62557 58.5395 7.30603 62.2184 10.747C60.9684 12.0845 59.6496 13.3345 58.3746 14.6345C55.9496 17.0554 53.5267 19.4679 51.1059 21.872C48.6924 19.5642 45.7732 17.852 42.5809 16.872C38.4957 15.6385 34.1497 15.5541 30.0197 16.6279C25.8897 17.7018 22.1353 19.8924 19.1684 22.9595C16.5786 25.5941 14.6173 28.7796 13.4309 32.2783L0.474609 22.247C5.11216 13.0506 13.1418 6.01594 22.8684 2.62829Z" fill="#E33629"/>
</svg>
