<svg width="40" height="60" viewBox="0 0 40 60" fill="none" xmlns="http://www.w3.org/2000/svg">
<path d="M5.00003 30C5.00003 26.0218 6.58039 22.2064 9.39343 19.3934C12.2065 16.5804 16.0218 15 20 15C23.9783 15 27.7936 16.5804 30.6066 19.3934C33.4197 22.2064 35 26.0218 35 30C35 33.9782 33.4197 37.7936 30.6066 40.6066C27.7936 43.4197 23.9783 45 20 45C16.0218 45 12.2065 43.4197 9.39343 40.6066C6.58039 37.7936 5.00003 33.9782 5.00003 30ZM40 30C40.0055 26.9793 39.3216 23.9971 38.0002 21.2807C36.6788 18.5644 34.7549 16.1854 32.375 14.325L30 0H10L7.62503 14.325C5.24515 16.1854 3.32125 18.5644 1.99988 21.2807C0.67851 23.9971 -0.00547286 26.9793 3.2978e-05 30C3.2978e-05 36.35 2.97503 42.025 7.62503 45.675L10 60H30L32.375 45.675C34.7521 43.8121 36.674 41.4326 37.9951 38.7168C39.3162 36.001 40.0018 33.0201 40 30Z" fill="#377AFF"/>
</svg>
