<svg width="78" height="80" viewBox="0 0 78 80" fill="none" xmlns="http://www.w3.org/2000/svg">
<path d="M26.8688 2.63307C18.8756 5.406 11.9822 10.6691 7.20128 17.6493C2.42033 24.6296 0.00378382 32.959 0.306602 41.4141C0.609421 49.8692 3.61564 58.0044 8.88369 64.6248C14.1517 71.2451 21.404 76.0016 29.5751 78.1956C36.1996 79.9049 43.1401 79.98 49.8001 78.4143C55.8333 77.0591 61.4112 74.1603 65.9876 70.0018C70.7506 65.5415 74.2078 59.8673 75.9876 53.5893C77.9221 46.7622 78.2663 39.5826 76.9938 32.6018H39.7938V48.0331H61.3376C60.907 50.4942 59.9843 52.8433 58.6248 54.9395C57.2652 57.0358 55.4967 58.8362 53.4251 60.2331C50.7943 61.9733 47.8288 63.1441 44.7188 63.6706C41.5997 64.2505 38.4004 64.2505 35.2813 63.6706C32.12 63.017 29.1294 61.7122 26.5001 59.8393C22.276 56.8492 19.1043 52.6013 17.4376 47.7018C15.7427 42.7105 15.7427 37.2994 17.4376 32.3081C18.624 28.8094 20.5853 25.6239 23.1751 22.9893C26.1388 19.919 29.8909 17.7243 34.0198 16.646C38.1487 15.5678 42.4948 15.6476 46.5813 16.8768C49.7736 17.8568 52.6929 19.5689 55.1063 21.8768C57.5355 19.4602 59.9605 17.0372 62.3813 14.6081C63.6313 13.3018 64.9938 12.0581 66.2251 10.7206C62.5411 7.2923 58.2168 4.62468 53.5001 2.87057C44.9107 -0.248244 35.5124 -0.332059 26.8688 2.63307Z" fill="white"/>
</svg>
