<svg width="62" height="33" viewBox="0 0 62 33" fill="none" xmlns="http://www.w3.org/2000/svg">
<path d="M0.46875 10.7531C4.78958 7.41979 9.10833 4.06979 13.425 0.703125C15.095 5.60436 18.2713 9.85246 22.5 12.8406C25.1376 14.7048 28.1346 15.9989 31.3 16.6406C34.4191 17.2206 37.6184 17.2206 40.7375 16.6406C43.8475 16.1142 46.813 14.9433 49.4437 13.2031C53.625 16.4656 57.825 19.7031 62.0062 22.9656C57.4306 27.1264 51.8526 30.0274 45.8187 31.3844C39.1588 32.95 32.2183 32.875 25.5938 31.1656C20.3544 29.7667 15.4605 27.3006 11.2188 23.9219C6.72913 20.3574 3.06222 15.8655 0.46875 10.7531Z" fill="#319F43"/>
</svg>
