<svg width="15" height="9" viewBox="0 0 15 9" fill="none" xmlns="http://www.w3.org/2000/svg">
<path fill-rule="evenodd" clip-rule="evenodd" d="M8.23637 8.35551C8.04103 8.55079 7.77612 8.66049 7.49991 8.66049C7.2237 8.66049 6.95879 8.55079 6.76345 8.35551L0.870743 2.4628C0.771253 2.36671 0.691897 2.25177 0.637304 2.12468C0.582711 1.99759 0.553976 1.86091 0.552774 1.72259C0.551572 1.58428 0.577928 1.44712 0.630304 1.3191C0.68268 1.19108 0.760027 1.07478 0.857832 0.976972C0.955637 0.879167 1.07194 0.80182 1.19996 0.749444C1.32797 0.697068 1.46514 0.670712 1.60345 0.671914C1.74176 0.673116 1.87845 0.701852 2.00554 0.756445C2.13263 0.811037 2.24757 0.890393 2.34366 0.989883L7.49991 6.14613L12.6562 0.989883C12.8526 0.800135 13.1157 0.695141 13.3889 0.697515C13.662 0.699888 13.9233 0.809439 14.1164 1.00257C14.3095 1.19571 14.4191 1.45697 14.4214 1.73009C14.4238 2.00321 14.3188 2.26634 14.1291 2.4628L8.23637 8.35551Z" fill="#606060"/>
</svg>
