<svg width="30" height="30" viewBox="0 0 30 30" fill="none" xmlns="http://www.w3.org/2000/svg">
<path d="M11.6667 27.1429H18.3333C18.3333 28.7143 16.8333 30 15 30C13.1667 30 11.6667 28.7143 11.6667 27.1429ZM30 24.2857V25.7143H0V24.2857L3.33333 21.4286V12.8571C3.33333 8.42857 6.66667 4.57143 11.6667 3.28571V2.85714C11.6667 1.28571 13.1667 0 15 0C16.8333 0 18.3333 1.28571 18.3333 2.85714V3.28571C23.3333 4.57143 26.6667 8.42857 26.6667 12.8571V21.4286L30 24.2857ZM23.3333 12.8571C23.3333 8.85714 19.6667 5.71429 15 5.71429C10.3333 5.71429 6.66667 8.85714 6.66667 12.8571V22.8571H23.3333V12.8571Z" fill="#377AFF"/>
</svg>
