<svg width="30" height="30" viewBox="0 0 30 30" fill="none" xmlns="http://www.w3.org/2000/svg">
<path d="M25.425 30C22.3 30 19.2065 29.325 16.1445 27.975C13.0825 26.625 10.301 24.7 7.8 22.2C5.299 19.7 3.374 16.925 2.025 13.875C0.676 10.825 0.001 7.725 0 4.575V3H8.85L10.2375 10.5375L5.9625 14.85C6.5125 15.825 7.125 16.75 7.8 17.625C8.475 18.5 9.2 19.3125 9.975 20.0625C10.7 20.7875 11.494 21.4815 12.357 22.1445C13.22 22.8075 14.151 23.426 15.15 24L19.5 19.65L27 21.1875V30H25.425ZM15 3V0H30V3H15ZM15 9V6H30V9H15ZM15 15V12H30V15H15Z" fill="#377AFF"/>
</svg>
