<svg width="30" height="30" viewBox="0 0 30 30" fill="none" xmlns="http://www.w3.org/2000/svg">
<path d="M29.9983 22.3667V28.26C29.9985 28.682 29.8387 29.0883 29.551 29.397C29.2634 29.7057 28.8693 29.8938 28.4484 29.9233C27.7201 29.9733 27.1252 30 26.6652 30C11.9377 30 0 18.0617 0 3.33333C0 2.87333 0.0249986 2.27833 0.0766624 1.55C0.106198 1.12907 0.294286 0.735018 0.602972 0.447348C0.911659 0.159678 1.31796 -0.000190722 1.7399 4.27632e-07H7.63291C7.83963 -0.000208891 8.03905 0.0764317 8.19243 0.215034C8.3458 0.353636 8.44219 0.544305 8.46286 0.750001C8.50119 1.13333 8.53619 1.43833 8.56952 1.67C8.90073 3.98154 9.57947 6.22972 10.5827 8.33833C10.7411 8.67167 10.6377 9.07 10.3378 9.28333L6.74129 11.8533C8.94026 16.9774 13.0235 21.0609 18.1473 23.26L20.7139 19.67C20.8188 19.5233 20.9718 19.4181 21.1463 19.3728C21.3208 19.3274 21.5057 19.3447 21.6688 19.4217C23.777 20.4232 26.0245 21.1003 28.3351 21.43C28.5667 21.4633 28.8717 21.4983 29.2517 21.5367C29.4571 21.5577 29.6473 21.6543 29.7856 21.8076C29.9238 21.961 29.9986 22.1602 29.9983 22.3667Z" fill="#377AFF"/>
</svg>
