<svg width="30" height="30" viewBox="0 0 30 30" fill="none" xmlns="http://www.w3.org/2000/svg">
<path d="M1.875 26.9062C3.5625 25.4515 5.52375 24.3061 7.75875 23.4701C9.99375 22.6341 12.4075 22.2156 15 22.2145C17.5925 22.2134 20.0069 22.6319 22.2431 23.4701C24.4794 24.3083 26.44 25.4531 28.125 26.9045V6.32913C28.125 6.0757 28.005 5.84312 27.765 5.63138C27.525 5.41964 27.26 5.31432 26.97 5.31541H3.03C2.74125 5.31541 2.47625 5.42073 2.235 5.63138C1.99375 5.84202 1.87375 6.0746 1.875 6.32913V26.9062ZM15 17.6577C13.4275 17.6577 12.0969 17.1799 11.0081 16.2244C9.91937 15.2688 9.375 14.1009 9.375 12.7208C9.375 11.3406 9.91937 10.1728 11.0081 9.21722C12.0969 8.26166 13.4275 7.78387 15 7.78387C16.5725 7.78387 17.9031 8.26166 18.9919 9.21722C20.0806 10.1728 20.625 11.3406 20.625 12.7208C20.625 14.1009 20.0806 15.2688 18.9919 16.2244C17.9031 17.1799 16.5725 17.6577 15 17.6577ZM3.03 30C2.16625 30 1.44562 29.7466 0.868125 29.2397C0.290625 28.7329 0.00125 28.1004 0 27.3423V6.32748C0 5.57049 0.289375 4.93856 0.868125 4.43171C1.44687 3.92485 2.1675 3.67087 3.03 3.66977H6.34687V0H8.36625V3.66977H21.78V0H23.655V3.66977H26.9719C27.8344 3.66977 28.555 3.92375 29.1337 4.43171C29.7125 4.93966 30.0012 5.57213 30 6.32913V27.3423C30 28.0993 29.7112 28.7318 29.1337 29.2397C28.5562 29.7477 27.835 30.0011 26.97 30H3.03Z" fill="#377AFF"/>
</svg>
