<svg width="50" height="50" viewBox="0 0 50 50" fill="none" xmlns="http://www.w3.org/2000/svg">
<path d="M35.9423 26.0246C35.3506 30.9517 32.1235 32.9204 30.7298 34.3496C29.3339 35.7829 29.5839 36.0683 29.6777 38.1704C29.6933 38.4305 29.6556 38.691 29.5667 38.9359C29.4778 39.1809 29.3397 39.405 29.1609 39.5945C28.9821 39.784 28.7664 39.9349 28.5271 40.0379C28.2878 40.1409 28.0299 40.1938 27.7694 40.1933H22.2319C21.9713 40.1935 21.7135 40.1404 21.4742 40.0373C21.2349 39.9343 21.0192 39.7834 20.8403 39.594C20.6614 39.4045 20.5231 39.1805 20.4339 38.9358C20.3447 38.691 20.3064 38.4305 20.3214 38.1704C20.3214 36.1079 20.5131 35.6287 19.2714 34.3496C17.6881 32.7662 13.9631 30.5308 13.9631 24.3829C13.9536 22.8558 14.2605 21.3433 14.8646 19.9408C15.4686 18.5382 16.3567 17.276 17.4728 16.2336C18.5889 15.1913 19.9088 14.3915 21.3493 13.8846C22.7899 13.3777 24.3198 13.1748 25.8427 13.2885C27.3655 13.4023 28.8483 13.8303 30.1976 14.5455C31.5468 15.2608 32.7333 16.2478 33.6821 17.4444C34.631 18.6409 35.3217 20.0211 35.7107 21.4978C36.0997 22.9745 36.1785 24.5159 35.9423 26.0246Z" stroke="black" stroke-width="2.5" stroke-linecap="round" stroke-linejoin="round"/>
<path d="M21.7917 40.076V43.226C21.7917 44.0865 22.2708 44.7927 22.8604 44.7927H27.1375C27.7312 44.7927 28.2083 44.0844 28.2083 43.226V40.076M23.375 18.1177C22.1449 18.1183 20.9653 18.6073 20.0957 19.4773C19.226 20.3474 18.7375 21.5272 18.7375 22.7573M40.275 24.801H44.0958M36.4292 12.276L39.1396 9.56563M38.5125 35.4177L41.2229 38.126M25 4.95312V8.04271M10.9167 9.56354L13.6083 12.276M8.83333 38.126L11.525 35.4177M9.725 24.801H5.90625" stroke="black" stroke-width="2.5" stroke-linecap="round" stroke-linejoin="round"/>
</svg>
