<svg width="32" height="32" viewBox="0 0 32 32" fill="none" xmlns="http://www.w3.org/2000/svg">
<path d="M31 31L21 21M1 12.6667C1 14.1988 1.30177 15.7158 1.88807 17.1313C2.47438 18.5468 3.33374 19.8329 4.41709 20.9162C5.50044 21.9996 6.78656 22.859 8.20203 23.4453C9.61749 24.0316 11.1346 24.3333 12.6667 24.3333C14.1988 24.3333 15.7158 24.0316 17.1313 23.4453C18.5468 22.859 19.8329 21.9996 20.9162 20.9162C21.9996 19.8329 22.859 18.5468 23.4453 17.1313C24.0316 15.7158 24.3333 14.1988 24.3333 12.6667C24.3333 11.1346 24.0316 9.61749 23.4453 8.20203C22.859 6.78656 21.9996 5.50044 20.9162 4.41709C19.8329 3.33374 18.5468 2.47438 17.1313 1.88807C15.7158 1.30177 14.1988 1 12.6667 1C11.1346 1 9.61749 1.30177 8.20203 1.88807C6.78656 2.47438 5.50044 3.33374 4.41709 4.41709C3.33374 5.50044 2.47438 6.78656 1.88807 8.20203C1.30177 9.61749 1 11.1346 1 12.6667Z" stroke="black" stroke-width="2" stroke-linecap="round" stroke-linejoin="round"/>
</svg>
