<svg width="40" height="56" viewBox="0 0 40 56" fill="none" xmlns="http://www.w3.org/2000/svg">
<path d="M12.4333 55.3086L9.47333 44.8886C6.67778 43.2464 4.4 40.9275 2.64 37.932C0.879999 34.9364 0 31.6264 0 28.002C0 24.3775 0.879999 21.0675 2.64 18.072C4.4 15.0764 6.67778 12.7575 9.47333 11.1153L12.4367 0.695312H27.5633L30.5267 11.1186C33.3222 12.7586 35.6 15.0764 37.36 18.072C39.12 21.0675 40 24.3775 40 28.002C40 31.6264 39.12 34.9364 37.36 37.932C35.6 40.9275 33.3222 43.2464 30.5267 44.8886L27.5633 55.3086H12.4333ZM20 44.6686C24.6111 44.6686 28.5422 43.0431 31.7933 39.792C35.0444 36.5409 36.6689 32.6109 36.6667 28.002C36.6644 23.3931 35.0389 19.4631 31.79 16.212C28.5411 12.9609 24.6111 11.3353 20 11.3353C15.3889 11.3353 11.4589 12.9609 8.21 16.212C4.96111 19.4631 3.33556 23.3931 3.33333 28.002C3.33111 32.6109 4.95667 36.542 8.21 39.7953C11.4633 43.0486 15.3933 44.6731 20 44.6686ZM13.5367 9.09198C14.6922 8.72754 15.7944 8.45198 16.8433 8.26531C17.8922 8.07642 18.9444 7.98198 20 7.98198C21.0556 7.98198 22.1078 8.07642 23.1567 8.26531C24.2056 8.4542 25.3067 8.72976 26.46 9.09198L25 4.02531H15L13.5367 9.09198ZM15 51.9753H25L26.4633 46.912C25.3078 47.2764 24.2056 47.5387 23.1567 47.6987C22.1078 47.8587 21.0556 47.9375 20 47.9353C18.9444 47.9331 17.8922 47.8531 16.8433 47.6953C15.7944 47.5375 14.6933 47.2753 13.54 46.9087L15 51.9753ZM15 51.9753H13.54H26.4633H15Z" fill="#377AFF"/>
</svg>
