<svg width="52" height="52" viewBox="0 0 52 52" fill="none" xmlns="http://www.w3.org/2000/svg">
<path d="M25.9992 51.61C39.9867 51.61 51.6128 40.0085 51.6128 25.9964C51.6128 12.0089 39.961 0.382812 25.9735 0.382812C11.9624 0.382812 0.386719 12.0089 0.386719 25.9964C0.386719 40.0085 11.9871 51.61 25.9992 51.61ZM26.0003 47.3414C14.146 47.3414 4.67779 37.8485 4.67779 25.9964C4.67779 14.1678 14.1203 4.65138 25.9735 4.65138C37.801 4.65138 47.3174 14.1689 47.3431 25.9964C47.3678 37.8496 37.8256 47.3414 25.9981 47.3414M25.7721 17.0564C27.6042 17.0564 29.0367 15.5992 29.0367 13.7917C29.0367 11.9596 27.6053 10.5025 25.7721 10.5025C23.9389 10.5025 22.5074 11.9596 22.5074 13.7917C22.5044 14.2213 22.5868 14.6472 22.7498 15.0446C22.9129 15.442 23.1532 15.8031 23.457 16.1069C23.7607 16.4106 24.1218 16.651 24.5192 16.814C24.9167 16.977 25.3425 17.0594 25.7721 17.0564ZM21.5785 39.8082H31.8235C32.8531 39.8082 33.6567 39.0796 33.6567 38.05C33.6567 37.0707 32.8531 36.2928 31.8246 36.2928H28.7099V23.5107C28.7099 22.1542 28.0071 21.25 26.7514 21.25H22.0049C21.001 21.25 20.1974 22.0289 20.1974 23.0071C20.1974 24.0378 21.001 24.7664 22.0049 24.7664H24.7178V36.2917H21.5785C20.5735 36.2917 19.7699 37.0707 19.7699 38.05C19.7699 39.0785 20.5735 39.8082 21.5785 39.8082Z" fill="#3670DD"/>
</svg>
