<svg width="40" height="40" viewBox="0 0 40 40" fill="none" xmlns="http://www.w3.org/2000/svg">
<path d="M15.5556 36.1905H24.4444C24.4444 38.2857 22.4444 40 20 40C17.5556 40 15.5556 38.2857 15.5556 36.1905ZM40 32.381V34.2857H0V32.381L4.44444 28.5714V17.1429C4.44444 11.2381 8.88889 6.09524 15.5556 4.38095V3.80952C15.5556 1.71429 17.5556 0 20 0C22.4444 0 24.4444 1.71429 24.4444 3.80952V4.38095C31.1111 6.09524 35.5556 11.2381 35.5556 17.1429V28.5714L40 32.381ZM31.1111 17.1429C31.1111 11.8095 26.2222 7.61905 20 7.61905C13.7778 7.61905 8.88889 11.8095 8.88889 17.1429V30.4762H31.1111V17.1429Z" fill="#377AFF"/>
</svg>
