<svg width="6" height="34" viewBox="0 0 6 34" fill="none" xmlns="http://www.w3.org/2000/svg">
<path d="M0.265625 3.28125C0.265625 4.00645 0.55371 4.70195 1.0665 5.21475C1.5793 5.72754 2.2748 6.01562 3 6.01562C3.7252 6.01562 4.4207 5.72754 4.93349 5.21475C5.44629 4.70195 5.73438 4.00645 5.73438 3.28125C5.73438 2.55605 5.44629 1.86055 4.93349 1.34776C4.4207 0.83496 3.7252 0.546875 3 0.546875C2.2748 0.546875 1.5793 0.83496 1.0665 1.34776C0.55371 1.86055 0.265625 2.55605 0.265625 3.28125ZM0.265625 16.9531C0.265625 17.6783 0.55371 18.3738 1.0665 18.8866C1.5793 19.3994 2.2748 19.6875 3 19.6875C3.7252 19.6875 4.4207 19.3994 4.93349 18.8866C5.44629 18.3738 5.73438 17.6783 5.73438 16.9531C5.73438 16.2279 5.44629 15.5324 4.93349 15.0196C4.4207 14.5068 3.7252 14.2188 3 14.2188C2.2748 14.2188 1.5793 14.5068 1.0665 15.0196C0.55371 15.5324 0.265625 16.2279 0.265625 16.9531ZM0.265625 30.625C0.265625 31.3502 0.55371 32.0457 1.0665 32.5585C1.5793 33.0713 2.2748 33.3594 3 33.3594C3.7252 33.3594 4.4207 33.0713 4.93349 32.5585C5.44629 32.0457 5.73438 31.3502 5.73438 30.625C5.73438 29.8998 5.44629 29.2043 4.93349 28.6915C4.4207 28.1787 3.7252 27.8906 3 27.8906C2.2748 27.8906 1.5793 28.1787 1.0665 28.6915C0.55371 29.2043 0.265625 29.8998 0.265625 30.625Z" fill="black"/>
</svg>
