<svg width="29" height="39" viewBox="0 0 29 39" fill="none" xmlns="http://www.w3.org/2000/svg">
<path d="M9.29792 38.2732L7.26292 31.1095C5.34097 29.9805 3.775 28.3862 2.565 26.3268C1.355 24.2673 0.75 21.9917 0.75 19.4999C0.75 17.0081 1.355 14.7325 2.565 12.673C3.775 10.6136 5.34097 9.01934 7.26292 7.89031L9.30021 0.726562H19.6998L21.7371 7.8926C23.659 9.02011 25.225 10.6136 26.435 12.673C27.645 14.7325 28.25 17.0081 28.25 19.4999C28.25 21.9917 27.645 24.2673 26.435 26.3268C25.225 28.3862 23.659 29.9805 21.7371 31.1095L19.6998 38.2732H9.29792ZM14.5 30.9582C17.6701 30.9582 20.3728 29.8407 22.6079 27.6055C24.8431 25.3704 25.9599 22.6685 25.9583 19.4999C25.9568 16.3313 24.8392 13.6294 22.6056 11.3943C20.372 9.15913 17.6701 8.04156 14.5 8.04156C11.3299 8.04156 8.62799 9.15913 6.39438 11.3943C4.16076 13.6294 3.04319 16.3313 3.04167 19.4999C3.04014 22.6685 4.15771 25.3711 6.39438 27.6078C8.63104 29.8445 11.3329 30.9613 14.5 30.9582ZM10.0565 6.49927C10.8509 6.24872 11.6087 6.05927 12.3298 5.93094C13.0509 5.80108 13.7743 5.73615 14.5 5.73615C15.2257 5.73615 15.9491 5.80108 16.6702 5.93094C17.3913 6.0608 18.1483 6.25024 18.9412 6.49927L17.9375 3.01594H11.0625L10.0565 6.49927ZM11.0625 35.9816H17.9375L18.9435 32.5005C18.1491 32.7511 17.3913 32.9314 16.6702 33.0414C15.9491 33.1514 15.2257 33.2056 14.5 33.2041C13.7743 33.2025 13.0509 33.1475 12.3298 33.0391C11.6087 32.9306 10.8517 32.7503 10.0588 32.4982L11.0625 35.9816ZM11.0625 35.9816H10.0588H18.9435H11.0625Z" fill="#377AFF"/>
</svg>
