<svg width="45" height="45" viewBox="0 0 45 45" fill="none" xmlns="http://www.w3.org/2000/svg">
<path d="M22.5 31.875C23.4946 31.875 24.4484 32.2701 25.1516 32.9734C25.8549 33.6766 26.25 34.6304 26.25 35.625C26.25 36.6196 25.8549 37.5734 25.1516 38.2766C24.4484 38.9799 23.4946 39.375 22.5 39.375C21.5054 39.375 20.5516 38.9799 19.8484 38.2766C19.1451 37.5734 18.75 36.6196 18.75 35.625C18.75 34.6304 19.1451 33.6766 19.8484 32.9734C20.5516 32.2701 21.5054 31.875 22.5 31.875ZM22.5 18.75C23.4946 18.75 24.4484 19.1451 25.1516 19.8484C25.8549 20.5516 26.25 21.5054 26.25 22.5C26.25 23.4946 25.8549 24.4484 25.1516 25.1516C24.4484 25.8549 23.4946 26.25 22.5 26.25C21.5054 26.25 20.5516 25.8549 19.8484 25.1516C19.1451 24.4484 18.75 23.4946 18.75 22.5C18.75 21.5054 19.1451 20.5516 19.8484 19.8484C20.5516 19.1451 21.5054 18.75 22.5 18.75ZM22.5 5.625C23.4946 5.625 24.4484 6.02009 25.1516 6.72335C25.8549 7.42661 26.25 8.38044 26.25 9.375C26.25 10.3696 25.8549 11.3234 25.1516 12.0267C24.4484 12.7299 23.4946 13.125 22.5 13.125C21.5054 13.125 20.5516 12.7299 19.8484 12.0267C19.1451 11.3234 18.75 10.3696 18.75 9.375C18.75 8.38044 19.1451 7.42661 19.8484 6.72335C20.5516 6.02009 21.5054 5.625 22.5 5.625Z" fill="white"/>
</svg>
