<svg width="45" height="45" viewBox="0 0 45 45" fill="none" xmlns="http://www.w3.org/2000/svg">
<path d="M13.7319 14.0464C15.5935 12.1109 18.0287 10.8273 20.6764 10.3859C23.3241 9.9445 26.0435 10.3688 28.4315 11.5959C30.8194 12.8231 32.7488 14.7877 33.9337 17.1986C35.1186 19.6095 35.4959 22.3384 35.0096 24.9807C34.5234 27.6231 33.1996 30.0382 31.2343 31.8683C29.269 33.6983 26.767 34.8457 24.099 35.1405C21.431 35.4354 18.739 34.8618 16.4222 33.505C14.1054 32.1481 12.2869 30.0802 11.2365 27.6076L14.7013 27.5471C15.6958 29.2358 17.194 30.5701 18.9853 31.3622C20.7767 32.1543 22.771 32.3645 24.6878 31.9631C26.6046 31.5618 28.3475 30.5691 29.6713 29.1247C30.9952 27.6803 31.8335 25.8569 32.0682 23.9108C32.303 21.9648 31.9224 19.994 30.98 18.2756C30.0376 16.5573 28.5809 15.1778 26.8146 14.3312C25.0483 13.4846 23.0614 13.2135 21.1332 13.5559C19.205 13.8984 17.4326 14.8372 16.0652 16.2404L18.9853 18.2756L10.1909 21.3749L12.0096 11.5959L13.7319 14.0464Z" fill="white"/>
<circle cx="22.5" cy="22.5" r="21.5" stroke="white" stroke-width="2"/>
</svg>
