<svg width="30" height="30" viewBox="0 0 30 30" fill="none" xmlns="http://www.w3.org/2000/svg">
<path fill-rule="evenodd" clip-rule="evenodd" d="M16.25 17.5H17.5V18.75H16.25V17.5ZM17.5 18.75H18.75V20H17.5V18.75ZM17.5 20H18.75V21.25H17.5V20ZM20 20H21.25V21.25H20V20ZM20 21.25H21.25V22.5H20V21.25ZM16.25 20H17.5V21.25H16.25V20ZM18.75 20H20V21.25H18.75V20ZM18.75 21.25H20V22.5H18.75V21.25ZM22.5 20H23.75V21.25H22.5V20ZM22.5 18.75H23.75V20H22.5V18.75ZM23.75 17.5H25V18.75H23.75V17.5ZM21.25 20H22.5V21.25H21.25V20ZM21.25 21.25H22.5V22.5H21.25V21.25ZM20 22.5H21.25V23.75H20V22.5ZM18.75 22.5H20V23.75H18.75V22.5ZM21.25 22.5H22.5V23.75H21.25V22.5ZM22.5 22.5H23.75V23.75H22.5V22.5ZM20 23.75H21.25V25H20V23.75ZM17.5 23.75H18.75V25H17.5V23.75ZM18.75 23.75H20V25H18.75V23.75ZM16.25 23.75H17.5V25H16.25V23.75ZM16.25 25H17.5V26.25H16.25V25ZM17.5 26.25H18.75V27.5H17.5V26.25ZM18.75 26.25H20V27.5H18.75V26.25ZM21.25 26.25H22.5V27.5H21.25V26.25ZM22.5 26.25H23.75V27.5H22.5V26.25ZM21.25 23.75H22.5V25H21.25V23.75ZM22.5 23.75H23.75V25H22.5V23.75ZM23.75 22.5H25V23.75H23.75V22.5ZM23.75 21.25H25V22.5H23.75V21.25ZM23.75 25H25V26.25H23.75V25ZM23.75 23.75H25V25H23.75V23.75ZM25 22.5H26.25V23.75H25V22.5ZM25 21.25H26.25V22.5H25V21.25ZM26.25 25H27.5V26.25H26.25V25ZM26.25 22.5H27.5V23.75H26.25V22.5ZM26.25 23.75H27.5V25H26.25V23.75ZM23.75 20H25V21.25H23.75V20ZM16.25 21.25H17.5V22.5H16.25V21.25ZM15 21.25H16.25V22.5H15V21.25ZM15 22.5H16.25V23.75H15V22.5ZM17.5 22.5H18.75V23.75H17.5V22.5ZM13.75 22.5H15V23.75H13.75V22.5ZM16.25 22.5H17.5V23.75H16.25V22.5ZM13.75 23.75H15V25H13.75V23.75ZM13.75 25H15V26.25H13.75V25ZM13.75 1.25H15V2.5H13.75V1.25ZM15 2.5H16.25V3.75H15V2.5ZM13.75 5H15V6.25H13.75V5ZM15 6.25H16.25V7.5H15V6.25ZM13.75 7.5H15V8.75H13.75V7.5ZM15 7.5H16.25V8.75H15V7.5ZM15 8.75H16.25V10H15V8.75ZM15 10H16.25V11.25H15V10ZM13.75 11.25H15V12.5H13.75V11.25ZM15 11.25H16.25V12.5H15V11.25ZM13.75 12.5H15V13.75H13.75V12.5ZM1.25 13.75H2.5V15H1.25V13.75ZM2.5 15H3.75V16.25H2.5V15ZM5 13.75H6.25V15H5V13.75ZM5 15H6.25V16.25H5V15ZM6.25 13.75H7.5V15H6.25V13.75ZM7.5 15H8.75V16.25H7.5V15ZM8.75 13.75H10V15H8.75V13.75ZM10 15H11.25V16.25H10V15ZM10 13.75H11.25V15H10V13.75ZM11.25 13.75H12.5V15H11.25V13.75ZM12.5 13.75H13.75V15H12.5V13.75ZM13.75 15H15V16.25H13.75V15ZM16.25 15H17.5V16.25H16.25V15ZM17.5 13.75H18.75V15H17.5V13.75ZM18.75 13.75H20V15H18.75V13.75ZM20 13.75H21.25V15H20V13.75ZM18.75 16.25H20V17.5H18.75V16.25ZM16.25 27.5H17.5V28.75H16.25V27.5ZM15 27.5H16.25V28.75H15V27.5ZM15 16.25H16.25V17.5H15V16.25ZM13.75 16.25H15V17.5H13.75V16.25ZM13.75 17.5H15V18.75H13.75V17.5ZM13.75 18.75H15V20H13.75V18.75ZM27.5 17.5H28.75V18.75H27.5V17.5ZM26.25 18.75H27.5V20H26.25V18.75ZM27.5 21.25H28.75V22.5H27.5V21.25ZM21.25 16.25H22.5V17.5H21.25V16.25ZM22.5 15H23.75V16.25H22.5V15ZM27.5 15H28.75V16.25H27.5V15ZM27.5 16.25H28.75V17.5H27.5V16.25ZM26.25 16.25H27.5V17.5H26.25V16.25ZM27.5 26.25H28.75V27.5H27.5V26.25ZM26.25 27.5H27.5V28.75H26.25V27.5ZM23.75 27.5H25V28.75H23.75V27.5ZM27.5 27.5H28.75V28.75H27.5V27.5Z" fill="#777777"/>
<path fill-rule="evenodd" clip-rule="evenodd" d="M18.75 2.5H27.5V11.25H18.75V2.5ZM2.5 2.5H11.25V11.25H2.5V2.5ZM2.5 18.75H11.25V27.5H2.5V18.75ZM22.5 6.25H23.75V7.5H22.5V6.25ZM6.25 6.25H7.5V7.5H6.25V6.25ZM6.25 22.5H7.5V23.75H6.25V22.5Z" stroke="#777777" stroke-width="2"/>
</svg>
