<svg width="30" height="30" viewBox="0 0 30 30" fill="none" xmlns="http://www.w3.org/2000/svg">
<path fill-rule="evenodd" clip-rule="evenodd" d="M15 1.75001C13.2515 1.74768 11.5611 2.37732 10.2402 3.52293C8.91926 4.66854 8.05686 6.25292 7.81187 7.98417C7.56688 9.71541 7.9558 11.4769 8.90698 12.944C9.85817 14.4111 11.3075 15.4851 12.988 15.968C10.6 16.258 8.552 17.102 7.008 18.624C5.044 20.558 4.05 23.44 4.05 27.2C4.05 27.452 4.15009 27.6936 4.32825 27.8718C4.50641 28.0499 4.74805 28.15 5 28.15C5.25196 28.15 5.49359 28.0499 5.67175 27.8718C5.84991 27.6936 5.95 27.452 5.95 27.2C5.95 23.76 6.856 21.44 8.342 19.976C9.83 18.51 12.054 17.75 15 17.75C17.946 17.75 20.17 18.51 21.66 19.976C23.144 21.442 24.05 23.76 24.05 27.2C24.05 27.452 24.1501 27.6936 24.3283 27.8718C24.5064 28.0499 24.748 28.15 25 28.15C25.252 28.15 25.4936 28.0499 25.6718 27.8718C25.8499 27.6936 25.95 27.452 25.95 27.2C25.95 23.44 24.956 20.56 22.99 18.624C21.45 17.104 19.4 16.258 17.012 15.968C18.6869 15.4797 20.1297 14.4041 21.0759 12.9383C22.0221 11.4726 22.4084 9.71499 22.164 7.98759C21.9195 6.26019 21.0607 4.67874 19.7449 3.53312C18.4292 2.3875 16.7446 1.75445 15 1.75001ZM9.65 9.00001C9.65 7.5811 10.2137 6.2203 11.217 5.21698C12.2203 4.21367 13.5811 3.65001 15 3.65001C16.4189 3.65001 17.7797 4.21367 18.783 5.21698C19.7863 6.2203 20.35 7.5811 20.35 9.00001C20.35 10.4189 19.7863 11.7797 18.783 12.783C17.7797 13.7863 16.4189 14.35 15 14.35C13.5811 14.35 12.2203 13.7863 11.217 12.783C10.2137 11.7797 9.65 10.4189 9.65 9.00001Z" fill="#777777"/>
</svg>
