<svg width="28" height="28" viewBox="0 0 28 28" fill="none" xmlns="http://www.w3.org/2000/svg">
<path d="M21.0362 19.3865L26.033 24.3821L24.3822 26.033L19.3865 21.0361C17.5277 22.5262 15.2157 23.3367 12.8333 23.3333C7.03733 23.3333 2.33333 18.6293 2.33333 12.8333C2.33333 7.03731 7.03733 2.33331 12.8333 2.33331C18.6293 2.33331 23.3333 7.03731 23.3333 12.8333C23.3367 15.2156 22.5263 17.5277 21.0362 19.3865ZM18.6958 18.5208C20.1765 16.9982 21.0033 14.9571 21 12.8333C21 8.32181 17.3448 4.66665 12.8333 4.66665C8.32183 4.66665 4.66666 8.32181 4.66666 12.8333C4.66666 17.3448 8.32183 21 12.8333 21C14.9572 21.0033 16.9982 20.1764 18.5208 18.6958L18.6958 18.5208Z" fill="#3382E9"/>
</svg>
