<svg width="35" height="35" viewBox="0 0 35 35" fill="none" xmlns="http://www.w3.org/2000/svg">
<path d="M2.1875 5.46875C2.1875 4.59851 2.5332 3.76391 3.14856 3.14856C3.76391 2.5332 4.59851 2.1875 5.46875 2.1875H12.0312C12.9015 2.1875 13.7361 2.5332 14.3514 3.14856C14.9668 3.76391 15.3125 4.59851 15.3125 5.46875V12.0312C15.3125 12.9015 14.9668 13.7361 14.3514 14.3514C13.7361 14.9668 12.9015 15.3125 12.0312 15.3125H5.46875C4.59851 15.3125 3.76391 14.9668 3.14856 14.3514C2.5332 13.7361 2.1875 12.9015 2.1875 12.0312V5.46875ZM19.6875 5.46875C19.6875 4.59851 20.0332 3.76391 20.6486 3.14856C21.2639 2.5332 22.0985 2.1875 22.9688 2.1875H29.5312C30.4015 2.1875 31.2361 2.5332 31.8514 3.14856C32.4668 3.76391 32.8125 4.59851 32.8125 5.46875V12.0312C32.8125 12.9015 32.4668 13.7361 31.8514 14.3514C31.2361 14.9668 30.4015 15.3125 29.5312 15.3125H22.9688C22.0985 15.3125 21.2639 14.9668 20.6486 14.3514C20.0332 13.7361 19.6875 12.9015 19.6875 12.0312V5.46875ZM2.1875 22.9688C2.1875 22.0985 2.5332 21.2639 3.14856 20.6486C3.76391 20.0332 4.59851 19.6875 5.46875 19.6875H12.0312C12.9015 19.6875 13.7361 20.0332 14.3514 20.6486C14.9668 21.2639 15.3125 22.0985 15.3125 22.9688V29.5312C15.3125 30.4015 14.9668 31.2361 14.3514 31.8514C13.7361 32.4668 12.9015 32.8125 12.0312 32.8125H5.46875C4.59851 32.8125 3.76391 32.4668 3.14856 31.8514C2.5332 31.2361 2.1875 30.4015 2.1875 29.5312V22.9688ZM19.6875 22.9688C19.6875 22.0985 20.0332 21.2639 20.6486 20.6486C21.2639 20.0332 22.0985 19.6875 22.9688 19.6875H29.5312C30.4015 19.6875 31.2361 20.0332 31.8514 20.6486C32.4668 21.2639 32.8125 22.0985 32.8125 22.9688V29.5312C32.8125 30.4015 32.4668 31.2361 31.8514 31.8514C31.2361 32.4668 30.4015 32.8125 29.5312 32.8125H22.9688C22.0985 32.8125 21.2639 32.4668 20.6486 31.8514C20.0332 31.2361 19.6875 30.4015 19.6875 29.5312V22.9688Z" fill="#777777"/>
</svg>
