<svg width="35" height="30" viewBox="0 0 35 30" fill="none" xmlns="http://www.w3.org/2000/svg">
<path fill-rule="evenodd" clip-rule="evenodd" d="M27.8104 15.0125C28.0003 15.0355 28.183 15.0904 28.3481 15.1739C28.5132 15.2575 28.6574 15.3682 28.7726 15.4996C28.8877 15.6311 28.9715 15.7807 29.0191 15.9399C29.0667 16.0991 29.0772 16.2648 29.05 16.4275C28.6845 18.595 27.4993 20.5999 25.6763 22.1344C23.8534 23.669 21.4933 24.6484 18.9583 24.9225V26.25C18.9583 26.5815 18.8047 26.8995 18.5312 27.1339C18.2577 27.3683 17.8868 27.5 17.5 27.5C17.1132 27.5 16.7423 27.3683 16.4688 27.1339C16.1953 26.8995 16.0417 26.5815 16.0417 26.25V24.9225C13.507 24.648 11.1475 23.6683 9.32483 22.1339C7.50219 20.5994 6.31715 18.5948 5.95146 16.4275C5.89654 16.0993 5.99597 15.7658 6.22789 15.5005C6.45981 15.2351 6.80522 15.0596 7.18812 15.0125C7.57103 14.9654 7.96007 15.0507 8.26966 15.2494C8.57925 15.4482 8.78404 15.7443 8.83896 16.0725C9.14275 17.8555 10.1851 19.4853 11.7754 20.6638C13.3657 21.8423 15.3977 22.4908 17.5 22.4908C19.6023 22.4908 21.6343 21.8423 23.2246 20.6638C24.8149 19.4853 25.8572 17.8555 26.161 16.0725C26.1882 15.91 26.2525 15.7536 26.3501 15.6124C26.4478 15.4712 26.577 15.3478 26.7303 15.2494C26.8836 15.151 27.058 15.0794 27.2436 15.0387C27.4292 14.9981 27.6208 14.9892 27.8104 15.0125ZM17.5 2.5C19.4339 2.5 21.2885 3.15848 22.656 4.33058C24.0234 5.50269 24.7917 7.0924 24.7917 8.75V15C24.7917 16.6576 24.0234 18.2473 22.656 19.4194C21.2885 20.5915 19.4339 21.25 17.5 21.25C15.5661 21.25 13.7115 20.5915 12.344 19.4194C10.9766 18.2473 10.2083 16.6576 10.2083 15V8.75C10.2083 7.0924 10.9766 5.50269 12.344 4.33058C13.7115 3.15848 15.5661 2.5 17.5 2.5ZM17.5 5C16.3397 5 15.2269 5.39509 14.4064 6.09835C13.5859 6.80161 13.125 7.75544 13.125 8.75V15C13.125 15.9946 13.5859 16.9484 14.4064 17.6517C15.2269 18.3549 16.3397 18.75 17.5 18.75C18.6603 18.75 19.7731 18.3549 20.5936 17.6517C21.4141 16.9484 21.875 15.9946 21.875 15V8.75C21.875 7.75544 21.4141 6.80161 20.5936 6.09835C19.7731 5.39509 18.6603 5 17.5 5Z" fill="#3382E9"/>
</svg>
