<svg width="41" height="41" viewBox="0 0 41 41" fill="none" xmlns="http://www.w3.org/2000/svg">
<path d="M30.8014 7.83179C27.1217 4.1521 21.1295 4.1521 17.4537 7.83179L7.25842 18.0193C7.19202 18.0857 7.15686 18.1755 7.15686 18.2693C7.15686 18.363 7.19202 18.4529 7.25842 18.5193L8.69983 19.9607C8.76572 20.0263 8.8549 20.0631 8.94788 20.0631C9.04085 20.0631 9.13004 20.0263 9.19592 19.9607L19.3912 9.77319C20.6569 8.50757 22.3405 7.81226 24.1295 7.81226C25.9186 7.81226 27.6022 8.50757 28.8639 9.77319C30.1295 11.0388 30.8248 12.7224 30.8248 14.5076C30.8248 16.2966 30.1295 17.9763 28.8639 19.2419L18.4733 29.6287L16.7897 31.3123C15.2155 32.8865 12.6569 32.8865 11.0826 31.3123C10.3209 30.5505 9.90295 29.5388 9.90295 28.4607C9.90295 27.3826 10.3209 26.3708 11.0826 25.6091L21.3912 15.3044C21.653 15.0466 21.9967 14.9021 22.3639 14.9021H22.3678C22.735 14.9021 23.0748 15.0466 23.3326 15.3044C23.5944 15.5662 23.735 15.9099 23.735 16.2771C23.735 16.6404 23.5905 16.9841 23.3326 17.2419L14.9069 25.6599C14.8405 25.7263 14.8053 25.8162 14.8053 25.9099C14.8053 26.0037 14.8405 26.0935 14.9069 26.1599L16.3483 27.6013C16.4142 27.6669 16.5033 27.7037 16.5963 27.7037C16.6893 27.7037 16.7785 27.6669 16.8444 27.6013L25.2662 19.1794C26.0436 18.4021 26.4694 17.3708 26.4694 16.2732C26.4694 15.1755 26.0397 14.1404 25.2662 13.3669C23.6608 11.7615 21.0514 11.7654 19.4459 13.3669L18.4459 14.3708L9.14124 23.6716C8.50972 24.2994 8.00912 25.0464 7.66848 25.8692C7.32784 26.6919 7.15394 27.5741 7.15686 28.4646C7.15686 30.2732 7.86389 31.9724 9.14124 33.2498C10.4655 34.5701 12.1998 35.2302 13.9342 35.2302C15.6686 35.2302 17.403 34.5701 18.7233 33.2498L30.8014 21.1794C32.5787 19.3982 33.5631 17.0271 33.5631 14.5076C33.567 11.9841 32.5826 9.61304 30.8014 7.83179Z" fill="#999999"/>
</svg>
