<svg width="61" height="53" viewBox="0 0 61 53" fill="none" xmlns="http://www.w3.org/2000/svg">
<path d="M54.385 32.3366L50.5983 29.466C50.7775 28.492 50.87 27.4975 50.87 26.5031C50.87 25.5086 50.7775 24.5141 50.5983 23.5401L54.385 20.6695C54.6706 20.4527 54.8751 20.1639 54.9711 19.8416C55.0671 19.5193 55.0502 19.1787 54.9227 18.8651L54.8706 18.7318C53.8282 16.1483 52.2672 13.7534 50.263 11.6628L50.1589 11.5552C49.9158 11.3017 49.5918 11.1195 49.2295 11.0325C48.8673 10.9456 48.4838 10.958 48.1297 11.0682L43.4296 12.5496C41.6952 11.2886 39.7585 10.2941 37.6656 9.59697L36.758 5.23973C36.6895 4.91187 36.5101 4.61025 36.2437 4.37493C35.9773 4.13962 35.6364 3.98175 35.2664 3.9223L35.1103 3.89667C32.0983 3.41481 28.9302 3.41481 25.9181 3.89667L25.762 3.9223C25.392 3.98175 25.0512 4.13962 24.7847 4.37493C24.5183 4.61025 24.339 4.91187 24.2705 5.23973L23.357 9.61747C21.281 10.3148 19.3476 11.3088 17.6336 12.5599L12.8988 11.0682C12.5448 10.9572 12.161 10.9443 11.7986 11.0313C11.4361 11.1182 11.1121 11.301 10.8695 11.5552L10.7655 11.6628C8.76368 13.7549 7.20292 16.1494 6.15783 18.7318L6.1058 18.8651C5.84564 19.5058 6.05955 20.2235 6.64345 20.6695L10.4764 23.5709C10.2972 24.5346 10.2105 25.5188 10.2105 26.4979C10.2105 27.4821 10.2972 28.4664 10.4764 29.425L6.64345 32.3264C6.35783 32.5432 6.15341 32.8319 6.05737 33.1543C5.96133 33.4766 5.97822 33.8172 6.1058 34.1308L6.15783 34.2641C7.20423 36.8476 8.75361 39.2313 10.7655 41.333L10.8695 41.4407C11.1127 41.6942 11.4367 41.8764 11.799 41.9633C12.1612 42.0503 12.5446 42.0378 12.8988 41.9277L17.6336 40.436C19.3564 41.6919 21.2816 42.6863 23.357 43.3784L24.2705 47.7561C24.339 48.084 24.5183 48.3856 24.7847 48.6209C25.0512 48.8562 25.392 49.0141 25.762 49.0735L25.9181 49.0992C28.9578 49.5836 32.0706 49.5836 35.1103 49.0992L35.2664 49.0735C35.6364 49.0141 35.9773 48.8562 36.2437 48.6209C36.5101 48.3856 36.6895 48.084 36.758 47.7561L37.6656 43.3989C39.7576 42.7036 41.7053 41.7058 43.4296 40.4462L48.1297 41.9277C48.4837 42.0387 48.8674 42.0516 49.2299 41.9646C49.5924 41.8776 49.9164 41.6949 50.1589 41.4407L50.263 41.333C52.2749 39.2262 53.8242 36.8476 54.8706 34.2641L54.9227 34.1308C55.1828 33.5003 54.9689 32.7826 54.385 32.3366ZM46.4936 24.145C46.6381 24.9191 46.7133 25.7136 46.7133 26.5082C46.7133 27.3027 46.6381 28.0973 46.4936 28.8713L46.112 30.9269L50.4306 34.2025C49.776 35.5399 48.9496 36.8059 47.9678 37.9754L42.6028 36.2889L40.7875 37.6114C39.4058 38.6162 37.868 39.4056 36.203 39.9592L34.0003 40.6923L32.9655 45.6646C31.3327 45.8287 29.6842 45.8287 28.0514 45.6646L27.0166 40.682L24.8313 39.9387C23.1836 39.3851 21.6516 38.5957 20.2814 37.5961L18.4661 36.2684L13.0664 37.9703C12.0836 36.7964 11.2627 35.5302 10.6036 34.1974L14.9685 30.891L14.5927 28.8406C14.4539 28.0768 14.3788 27.2874 14.3788 26.5082C14.3788 25.7239 14.4481 24.9396 14.5927 24.1758L14.9685 22.1253L10.6036 18.8189C11.2569 17.481 12.0836 16.22 13.0664 15.0461L18.4661 16.748L20.2814 15.4203C21.6516 14.4207 23.1836 13.6313 24.8313 13.0776L27.0224 12.3446L28.0572 7.36196C29.6817 7.19792 31.341 7.19792 32.9713 7.36196L34.0061 12.3343L36.2088 13.0674C37.868 13.621 39.4116 14.4104 40.7933 15.4152L42.6086 16.7377L47.9736 15.0512C48.9564 16.2251 49.7774 17.4913 50.4364 18.8241L46.1178 22.0997L46.4936 24.145ZM30.52 16.9735C24.9006 16.9735 20.345 21.0129 20.345 25.9956C20.345 30.9782 24.9006 35.0176 30.52 35.0176C36.1394 35.0176 40.695 30.9782 40.695 25.9956C40.695 21.0129 36.1394 16.9735 30.52 16.9735ZM35.0988 30.0555C34.4982 30.5895 33.7845 31.013 32.9987 31.3015C32.2129 31.5901 31.3705 31.738 30.52 31.7369C28.7914 31.7369 27.1669 31.1371 25.9413 30.0555C25.339 29.523 24.8614 28.8902 24.536 28.1934C24.2105 27.4966 24.0437 26.7497 24.045 25.9956C24.045 24.4628 24.7214 23.0224 25.9413 21.9356C27.1669 20.8489 28.7914 20.2543 30.52 20.2543C32.2486 20.2543 33.8731 20.8489 35.0988 21.9356C35.701 22.4681 36.1786 23.101 36.5041 23.7977C36.8295 24.4945 36.9963 25.2414 36.995 25.9956C36.995 27.5283 36.3186 28.9687 35.0988 30.0555Z" fill="#6F6F6F"/>
</svg>
