<svg width="61" height="53" viewBox="0 0 61 53" fill="none" xmlns="http://www.w3.org/2000/svg">
<g clip-path="url(#clip0_7_122)">
<path fill-rule="evenodd" clip-rule="evenodd" d="M30.5199 31.1331L43.6006 42.7316C44.2947 43.3471 45.2361 43.6928 46.2178 43.6928C47.1994 43.6928 48.1408 43.3471 48.8349 42.7316C49.529 42.1162 49.9189 41.2814 49.9189 40.411C49.9189 39.5407 49.529 38.7059 48.8349 38.0905L35.7492 26.4919L48.8324 14.8934C49.1759 14.5887 49.4484 14.2269 49.6343 13.8288C49.8201 13.4307 49.9157 13.004 49.9156 12.5732C49.9155 12.1423 49.8197 11.7157 49.6336 11.3176C49.4475 10.9196 49.1749 10.5579 48.8312 10.2533C48.4875 9.94875 48.0795 9.70715 47.6305 9.54236C47.1815 9.37757 46.7004 9.2928 46.2144 9.2929C45.7285 9.29301 45.2473 9.37797 44.7984 9.54295C44.3495 9.70793 43.9417 9.9497 43.5982 10.2544L30.5199 21.853L17.4392 10.2544C17.098 9.94096 16.6899 9.69085 16.2385 9.51873C15.7872 9.3466 15.3018 9.2559 14.8105 9.25191C14.3192 9.24792 13.8319 9.33072 13.3771 9.49549C12.9223 9.66026 12.5091 9.90369 12.1615 10.2116C11.814 10.5195 11.539 10.8857 11.3528 11.2888C11.1665 11.6919 11.0727 12.1239 11.0767 12.5595C11.0808 12.9951 11.1826 13.4256 11.3763 13.826C11.57 14.2263 11.8517 14.5884 12.2049 14.8912L25.2906 26.4919L12.2074 38.0927C11.8541 38.3954 11.5725 38.7576 11.3788 39.1579C11.1851 39.5583 11.0832 39.9888 11.0792 40.4244C11.0752 40.86 11.169 41.292 11.3553 41.6951C11.5415 42.0982 11.8164 42.4644 12.164 42.7723C12.5116 43.0802 12.9248 43.3236 13.3796 43.4884C13.8344 43.6532 14.3217 43.736 14.8129 43.732C15.3042 43.728 15.7897 43.6373 16.241 43.4651C16.6923 43.293 17.1005 43.0429 17.4416 42.7294L30.5199 31.1331Z" fill="black"/>
</g>
<defs>
<clipPath id="clip0_7_122">
<rect width="59.2" height="52.4919" fill="white" transform="translate(0.919922 0.245972)"/>
</clipPath>
</defs>
</svg>
