<svg width="31" height="30" viewBox="0 0 31 30" fill="none" xmlns="http://www.w3.org/2000/svg">
<path d="M17.3094 23.4375H8.63751V6.5625H16.6063C17.5458 6.56256 18.4657 6.83152 19.2572 7.33761C20.0488 7.84371 20.679 8.56579 21.0733 9.41855C21.4677 10.2713 21.6097 11.2191 21.4826 12.15C21.3556 13.0809 20.9647 13.956 20.3563 14.6719C21.151 15.3075 21.7292 16.1738 22.0112 17.1515C22.2933 18.1293 22.2653 19.1705 21.9312 20.1317C21.5971 21.0929 20.9733 21.9269 20.1456 22.5189C19.3179 23.111 18.327 23.4319 17.3094 23.4375ZM11.45 20.625H17.2906C17.5676 20.625 17.8419 20.5704 18.0979 20.4644C18.3538 20.3584 18.5863 20.2031 18.7822 20.0072C18.9781 19.8113 19.1334 19.5788 19.2394 19.3228C19.3455 19.0669 19.4 18.7926 19.4 18.5156C19.4 18.2386 19.3455 17.9643 19.2394 17.7084C19.1334 17.4525 18.9781 17.2199 18.7822 17.0241C18.5863 16.8282 18.3538 16.6728 18.0979 16.5668C17.8419 16.4608 17.5676 16.4062 17.2906 16.4062H11.45V20.625ZM11.45 13.5938H16.6063C16.8833 13.5938 17.1576 13.5392 17.4135 13.4332C17.6694 13.3272 17.9019 13.1718 18.0978 12.9759C18.2937 12.7801 18.4491 12.5475 18.5551 12.2916C18.6611 12.0357 18.7156 11.7614 18.7156 11.4844C18.7156 11.2074 18.6611 10.9331 18.5551 10.6772C18.4491 10.4212 18.2937 10.1887 18.0978 9.99282C17.9019 9.79695 17.6694 9.64157 17.4135 9.53557C17.1576 9.42956 16.8833 9.375 16.6063 9.375H11.45V13.5938Z" fill="#898989"/>
</svg>
