<svg width="23" height="20" viewBox="0 0 23 20" fill="none" xmlns="http://www.w3.org/2000/svg">
<g clip-path="url(#clip0_21_48)">
<path d="M22.364 9.42969C20.2457 5.29648 16.0519 2.5 11.25 2.5C6.44803 2.5 2.2531 5.29844 0.135916 9.43008C0.0465575 9.60684 0 9.80213 0 10.0002C0 10.1983 0.0465575 10.3936 0.135916 10.5703C2.25428 14.7035 6.44803 17.5 11.25 17.5C16.0519 17.5 20.2469 14.7016 22.364 10.5699C22.4534 10.3932 22.5 10.1979 22.5 9.9998C22.5 9.80174 22.4534 9.60645 22.364 9.42969ZM11.25 15.625C10.1375 15.625 9.04992 15.2951 8.1249 14.677C7.19987 14.0589 6.4789 13.1804 6.05316 12.1526C5.62741 11.1248 5.51602 9.99376 5.73306 8.90262C5.9501 7.81147 6.48583 6.80919 7.2725 6.02252C8.05917 5.23585 9.06145 4.70012 10.1526 4.48308C11.2437 4.26604 12.3747 4.37743 13.4026 4.80318C14.4304 5.22892 15.3089 5.94989 15.927 6.87492C16.5451 7.79994 16.875 8.88748 16.875 10C16.8753 10.7388 16.7301 11.4704 16.4475 12.153C16.165 12.8356 15.7507 13.4559 15.2283 13.9783C14.7059 14.5007 14.0856 14.915 13.403 15.1976C12.7204 15.4801 11.9888 15.6254 11.25 15.625ZM11.25 6.25C10.9153 6.25468 10.5827 6.30448 10.2613 6.39805C10.5262 6.75808 10.6534 7.20113 10.6197 7.64685C10.5859 8.09258 10.3936 8.51146 10.0775 8.82754C9.76144 9.14362 9.34256 9.33595 8.89683 9.36967C8.45111 9.40339 8.00805 9.27626 7.64803 9.01133C7.44301 9.76664 7.48002 10.5672 7.75384 11.3004C8.02766 12.0336 8.5245 12.6624 9.17444 13.0984C9.82437 13.5344 10.5947 13.7556 11.3769 13.7309C12.1592 13.7062 12.914 13.4368 13.5351 12.9607C14.1562 12.4845 14.6124 11.8256 14.8394 11.0766C15.0664 10.3276 15.0528 9.52624 14.8005 8.78538C14.5482 8.04452 14.07 7.40142 13.433 6.94661C12.7961 6.49179 12.0326 6.24816 11.25 6.25Z" fill="#999999"/>
</g>
<defs>
<clipPath id="clip0_21_48">
<rect width="22.5" height="20" fill="white"/>
</clipPath>
</defs>
</svg>
