<svg width="41" height="41" viewBox="0 0 41 41" fill="none" xmlns="http://www.w3.org/2000/svg">
<path d="M15.985 19.5271C16.4823 19.5271 16.9592 19.3296 17.3108 18.9779C17.6624 18.6263 17.86 18.1494 17.86 17.6521C17.86 17.1548 17.6624 16.6779 17.3108 16.3263C16.9592 15.9746 16.4823 15.7771 15.985 15.7771C15.4877 15.7771 15.0108 15.9746 14.6592 16.3263C14.3075 16.6779 14.11 17.1548 14.11 17.6521C14.11 18.1494 14.3075 18.6263 14.6592 18.9779C15.0108 19.3296 15.4877 19.5271 15.985 19.5271ZM15.7 24.3196C15.591 24.1956 15.4585 24.0943 15.3101 24.0218C15.1618 23.9493 15.0006 23.9068 14.8357 23.897C14.6709 23.8871 14.5057 23.91 14.3498 23.9643C14.1939 24.0186 14.0502 24.1033 13.9272 24.2134C13.8042 24.3236 13.7042 24.457 13.633 24.606C13.5619 24.755 13.5209 24.9166 13.5126 25.0816C13.5043 25.2465 13.5287 25.4114 13.5844 25.5668C13.6402 25.7223 13.7262 25.8651 13.8375 25.9871C14.6584 26.9045 15.6637 27.6383 16.7877 28.1406C17.9116 28.6429 19.1289 28.9024 20.36 28.9021C21.5911 28.9024 22.8083 28.6429 23.9323 28.1406C25.0562 27.6383 26.0615 26.9045 26.8825 25.9871C27.1 25.7396 27.211 25.4162 27.1913 25.0873C27.1716 24.7583 27.0228 24.4505 26.7773 24.2307C26.5318 24.0109 26.2094 23.8969 25.8803 23.9136C25.5513 23.9302 25.242 24.0762 25.02 24.3196C24.4335 24.9751 23.7153 25.4994 22.9123 25.8582C22.1092 26.2171 21.2395 26.4024 20.36 26.4021C18.51 26.4021 16.8475 25.5996 15.7 24.3196ZM26.61 17.6521C26.61 18.1494 26.4124 18.6263 26.0608 18.9779C25.7092 19.3296 25.2323 19.5271 24.735 19.5271C24.2377 19.5271 23.7608 19.3296 23.4092 18.9779C23.0575 18.6263 22.86 18.1494 22.86 17.6521C22.86 17.1548 23.0575 16.6779 23.4092 16.3263C23.7608 15.9746 24.2377 15.7771 24.735 15.7771C25.2323 15.7771 25.7092 15.9746 26.0608 16.3263C26.4124 16.6779 26.61 17.1548 26.61 17.6521ZM35.36 20.1521C35.36 18.1823 34.972 16.2317 34.2182 14.4118C33.4644 12.592 32.3595 10.9384 30.9666 9.5455C29.5737 8.15262 27.9201 7.04773 26.1002 6.29391C24.2804 5.54009 22.3298 5.1521 20.36 5.1521C18.3902 5.1521 16.4396 5.54009 14.6197 6.29391C12.7998 7.04773 11.1463 8.15262 9.75338 9.5455C8.3605 10.9384 7.25561 12.592 6.50179 14.4118C5.74797 16.2317 5.35999 18.1823 5.35999 20.1521C5.35999 24.1303 6.94034 27.9457 9.75338 30.7587C12.5664 33.5717 16.3817 35.1521 20.36 35.1521C24.3382 35.1521 28.1535 33.5717 30.9666 30.7587C33.7796 27.9457 35.36 24.1303 35.36 20.1521ZM7.85999 20.1521C7.85999 16.8369 9.17695 13.6575 11.5212 11.3133C13.8654 8.96906 17.0448 7.6521 20.36 7.6521C23.6752 7.6521 26.8546 8.96906 29.1988 11.3133C31.543 13.6575 32.86 16.8369 32.86 20.1521C32.86 23.4673 31.543 26.6467 29.1988 28.9909C26.8546 31.3351 23.6752 32.6521 20.36 32.6521C17.0448 32.6521 13.8654 31.3351 11.5212 28.9909C9.17695 26.6467 7.85999 23.4673 7.85999 20.1521Z" fill="#999999"/>
</svg>
