<svg width="41" height="41" viewBox="0 0 41 41" fill="none" xmlns="http://www.w3.org/2000/svg">
<path d="M13.46 15.1521C14.8407 15.1521 15.96 14.0328 15.96 12.6521C15.96 11.2714 14.8407 10.1521 13.46 10.1521C12.0793 10.1521 10.96 11.2714 10.96 12.6521C10.96 14.0328 12.0793 15.1521 13.46 15.1521Z" stroke="#999999" stroke-width="1.25" stroke-linecap="round" stroke-linejoin="round"/>
<path d="M5.12665 20.1521C5.12665 12.6887 5.12665 8.95539 7.44498 6.63706C9.76331 4.31873 13.495 4.31873 20.96 4.31873C28.4233 4.31873 32.1566 4.31873 34.475 6.63706C36.7933 8.95539 36.7933 12.6871 36.7933 20.1521C36.7933 27.6154 36.7933 31.3487 34.475 33.6671C32.1566 35.9854 28.425 35.9854 20.96 35.9854C13.4966 35.9854 9.76331 35.9854 7.44498 33.6671C5.12665 31.3487 5.12665 27.6171 5.12665 20.1521Z" stroke="#999999" stroke-width="1.25" stroke-linecap="round" stroke-linejoin="round"/>
<path d="M9.2933 35.1521C16.58 26.4438 24.75 14.9588 36.79 22.7221" stroke="#999999" stroke-width="1.25" stroke-linecap="round" stroke-linejoin="round"/>
</svg>
