<svg width="30" height="30" viewBox="0 0 30 30" fill="none" xmlns="http://www.w3.org/2000/svg">
<path d="M24.375 28.125C22.3072 28.125 20.625 26.4193 20.625 24.3234C20.625 22.3728 22.3049 20.4914 23.2078 19.4812C23.3174 19.3582 23.4123 19.2521 23.482 19.1701C23.5917 19.0394 23.7287 18.9343 23.8833 18.8622C24.0379 18.7901 24.2064 18.7527 24.3771 18.7527C24.5477 18.7527 24.7162 18.7901 24.8708 18.8622C25.0255 18.9343 25.1624 19.0394 25.2721 19.1701C25.3383 19.2468 25.4262 19.3459 25.5275 19.459C26.4357 20.4726 28.125 22.3599 28.125 24.3252C28.125 26.4193 26.4428 28.125 24.375 28.125ZM23.3338 16.2093L9.77872 2.76677C9.20641 2.19571 8.43095 1.875 7.62247 1.875C6.81399 1.875 6.03852 2.19571 5.46622 2.76677L5.20196 3.03103C4.61486 3.60852 4.28014 4.39487 4.2709 5.21833C4.26864 5.62037 4.34648 6.01884 4.4999 6.39046C4.65332 6.76209 4.87924 7.09943 5.16446 7.38278L7.59668 9.81442L2.63672 14.7656C2.39126 15.0116 2.19743 15.3042 2.06662 15.6262C1.93581 15.9482 1.87067 16.2931 1.875 16.6406C1.87786 16.9796 1.94942 17.3146 2.08538 17.6252C2.22134 17.9357 2.41887 18.2155 2.66602 18.4476L10.3559 25.8304C10.8377 26.2923 11.48 26.5493 12.1474 26.5473C12.8149 26.5454 13.4556 26.2846 13.9348 25.8199L21.2068 18.7722C21.3384 18.6415 21.5065 18.5538 21.6891 18.5209C21.9202 18.4839 22.1541 18.467 22.3881 18.4705H22.4057C22.6679 18.4709 22.9243 18.3933 23.1422 18.2475C23.3601 18.1016 23.5296 17.8942 23.6292 17.6516C23.7287 17.4091 23.7538 17.1424 23.7012 16.8855C23.6486 16.6286 23.5207 16.3932 23.3338 16.2093ZM8.92325 8.48728L6.48985 6.05446C6.38054 5.94559 6.29381 5.81619 6.23462 5.67372C6.17544 5.53124 6.14498 5.37847 6.14498 5.22419C6.14498 5.06991 6.17544 4.91715 6.23462 4.77467C6.29381 4.63219 6.38054 4.5028 6.48985 4.39392L6.79219 4.09216C6.9014 3.9829 7.03106 3.89623 7.17377 3.8371C7.31649 3.77796 7.46945 3.74753 7.62393 3.74753C7.77841 3.74753 7.93137 3.77796 8.07409 3.8371C8.2168 3.89623 8.34646 3.9829 8.45567 4.09216L10.8984 6.51618L8.92325 8.48728Z" fill="#898989"/>
</svg>
