<svg width="41" height="41" viewBox="0 0 41 41" fill="none" xmlns="http://www.w3.org/2000/svg">
<path d="M8.49335 21.8188C8.93537 21.8188 9.3593 21.6432 9.67186 21.3306C9.98442 21.0181 10.16 20.5941 10.16 20.1521C10.16 19.7101 9.98442 19.2861 9.67186 18.9736C9.3593 18.661 8.93537 18.4854 8.49335 18.4854C8.05132 18.4854 7.6274 18.661 7.31484 18.9736C7.00228 19.2861 6.82668 19.7101 6.82668 20.1521C6.82668 20.5941 7.00228 21.0181 7.31484 21.3306C7.6274 21.6432 8.05132 21.8188 8.49335 21.8188ZM8.49335 25.1521C7.16726 25.1521 5.8955 24.6253 4.95781 23.6876C4.02013 22.75 3.49335 21.4782 3.49335 20.1521C3.49335 18.826 4.02013 17.5542 4.95781 16.6166C5.8955 15.6789 7.16726 15.1521 8.49335 15.1521C9.81943 15.1521 11.0912 15.6789 12.0289 16.6166C12.9666 17.5542 13.4933 18.826 13.4933 20.1521C13.4933 21.4782 12.9666 22.75 12.0289 23.6876C11.0912 24.6253 9.81943 25.1521 8.49335 25.1521ZM31.8267 25.1521C30.5006 25.1521 29.2288 24.6253 28.2911 23.6876C27.3535 22.75 26.8267 21.4782 26.8267 20.1521C26.8267 18.826 27.3535 17.5542 28.2911 16.6166C29.2288 15.6789 30.5006 15.1521 31.8267 15.1521C33.1528 15.1521 34.4245 15.6789 35.3622 16.6166C36.2999 17.5542 36.8267 18.826 36.8267 20.1521C36.8267 21.4782 36.2999 22.75 35.3622 23.6876C34.4245 24.6253 33.1528 25.1521 31.8267 25.1521ZM31.8267 21.8188C32.2687 21.8188 32.6926 21.6432 33.0052 21.3306C33.3178 21.0181 33.4933 20.5941 33.4933 20.1521C33.4933 19.7101 33.3178 19.2861 33.0052 18.9736C32.6926 18.661 32.2687 18.4854 31.8267 18.4854C31.3847 18.4854 30.9607 18.661 30.6482 18.9736C30.3356 19.2861 30.16 19.7101 30.16 20.1521C30.16 20.5941 30.3356 21.0181 30.6482 21.3306C30.9607 21.6432 31.3847 21.8188 31.8267 21.8188ZM20.16 25.1521C18.8339 25.1521 17.5622 24.6253 16.6245 23.6876C15.6868 22.75 15.16 21.4782 15.16 20.1521C15.16 18.826 15.6868 17.5542 16.6245 16.6166C17.5622 15.6789 18.8339 15.1521 20.16 15.1521C21.4861 15.1521 22.7579 15.6789 23.6955 16.6166C24.6332 17.5542 25.16 18.826 25.16 20.1521C25.16 21.4782 24.6332 22.75 23.6955 23.6876C22.7579 24.6253 21.4861 25.1521 20.16 25.1521ZM20.16 21.8188C20.602 21.8188 21.026 21.6432 21.3385 21.3306C21.6511 21.0181 21.8267 20.5941 21.8267 20.1521C21.8267 19.7101 21.6511 19.2861 21.3385 18.9736C21.026 18.661 20.602 18.4854 20.16 18.4854C19.718 18.4854 19.2941 18.661 18.9815 18.9736C18.6689 19.2861 18.4933 19.7101 18.4933 20.1521C18.4933 20.5941 18.6689 21.0181 18.9815 21.3306C19.2941 21.6432 19.718 21.8188 20.16 21.8188Z" fill="#999999"/>
</svg>
