<svg width="41" height="41" viewBox="0 0 41 41" fill="none" xmlns="http://www.w3.org/2000/svg">
<path d="M27.7784 18.6621L16.9884 13.2654C16.6833 13.1128 16.3443 13.0407 16.0036 13.056C15.6628 13.0713 15.3317 13.1735 15.0416 13.3529C14.7514 13.5322 14.512 13.7828 14.3461 14.0808C14.1801 14.3788 14.0931 14.7143 14.0934 15.0554V25.2487C14.0931 25.5898 14.1801 25.9253 14.3461 26.2233C14.512 26.5213 14.7514 26.7719 15.0416 26.9512C15.3317 27.1306 15.6628 27.2328 16.0036 27.2481C16.3443 27.2634 16.6833 27.1914 16.9884 27.0387L27.7784 21.6421C28.0548 21.5035 28.2873 21.2907 28.4497 21.0276C28.6122 20.7645 28.6982 20.4613 28.6982 20.1521C28.6982 19.8428 28.6122 19.5397 28.4497 19.2765C28.2873 19.0134 28.0548 18.8006 27.7784 18.6621Z" stroke="#999999" stroke-width="1.25" stroke-linecap="round" stroke-linejoin="round"/>
<path d="M20.76 35.1521C29.0443 35.1521 35.76 28.4364 35.76 20.1521C35.76 11.8678 29.0443 5.1521 20.76 5.1521C12.4757 5.1521 5.76001 11.8678 5.76001 20.1521C5.76001 28.4364 12.4757 35.1521 20.76 35.1521Z" stroke="#999999" stroke-width="1.25"/>
</svg>
