<svg width="41" height="41" viewBox="0 0 41 41" fill="none" xmlns="http://www.w3.org/2000/svg">
<path d="M23.6933 25.1521C24.1656 25.1521 24.5756 24.9788 24.9233 24.6321C25.2711 24.2855 25.4444 23.8755 25.4433 23.4021C25.4422 22.9288 25.2689 22.5194 24.9233 22.1738C24.5778 21.8283 24.1678 21.6544 23.6933 21.6521C23.2189 21.6499 22.8094 21.8238 22.465 22.1738C22.1206 22.5238 21.9467 22.9333 21.9433 23.4021C21.94 23.871 22.1139 24.281 22.465 24.6321C22.8161 24.9832 23.2255 25.1566 23.6933 25.1521ZM22.4433 19.8188H24.9433C24.9433 19.0133 25.0267 18.4233 25.1933 18.0488C25.36 17.6744 25.7489 17.181 26.36 16.5688C27.1933 15.7355 27.7489 15.0621 28.0267 14.5488C28.3044 14.0355 28.4433 13.431 28.4433 12.7355C28.4433 11.4855 28.0056 10.4649 27.13 9.67381C26.2544 8.8827 25.1089 8.48658 23.6933 8.48547C22.5544 8.48547 21.5617 8.80492 20.715 9.44381C19.8683 10.0827 19.2778 10.9299 18.9433 11.9855L21.1933 12.9021C21.4433 12.2077 21.7839 11.6871 22.215 11.3405C22.6461 10.9938 23.1389 10.8199 23.6933 10.8188C24.36 10.8188 24.9017 11.0066 25.3183 11.3821C25.735 11.7577 25.9433 12.2644 25.9433 12.9021C25.9433 13.291 25.8322 13.6594 25.61 14.0071C25.3878 14.3549 24.9989 14.7921 24.4433 15.3188C23.5267 16.1244 22.9644 16.7566 22.7567 17.2155C22.5489 17.6744 22.4444 18.5421 22.4433 19.8188ZM13.6933 30.1521C12.7767 30.1521 11.9922 29.826 11.34 29.1738C10.6878 28.5216 10.3611 27.7366 10.36 26.8188V6.81881C10.36 5.90214 10.6867 5.1177 11.34 4.46547C11.9933 3.81325 12.7778 3.48658 13.6933 3.48547H33.6933C34.61 3.48547 35.395 3.81214 36.0483 4.46547C36.7017 5.11881 37.0278 5.90325 37.0267 6.81881V26.8188C37.0267 27.7355 36.7006 28.5205 36.0483 29.1738C35.3961 29.8271 34.6111 30.1533 33.6933 30.1521H13.6933ZM13.6933 26.8188H33.6933V6.81881H13.6933V26.8188ZM7.02666 36.8188C6.11 36.8188 5.32555 36.4927 4.67333 35.8405C4.02111 35.1883 3.69444 34.4033 3.69333 33.4855V10.1521H7.02666V33.4855H30.36V36.8188H7.02666Z" fill="#999999"/>
</svg>
