<svg width="41" height="41" viewBox="0 0 41 41" fill="none" xmlns="http://www.w3.org/2000/svg">
<path d="M25.76 8.48547H30.76L28.26 11.8188L25.76 8.48547ZM9.09334 3.48547H32.4267C33.3107 3.48547 34.1586 3.83666 34.7837 4.46178C35.4088 5.08691 35.76 5.93475 35.76 6.81881V33.4855C35.76 35.3355 34.2767 36.8188 32.4267 36.8188H9.09334C8.20929 36.8188 7.36144 36.4676 6.73632 35.8425C6.1112 35.2174 5.76001 34.3695 5.76001 33.4855V6.81881C5.76001 4.98547 7.26001 3.48547 9.09334 3.48547ZM9.09334 6.81881V13.4855H32.4267V6.81881H9.09334ZM9.09334 33.4855H32.4267V16.8188H9.09334V33.4855ZM12.4267 20.1521H29.0933V23.4855H12.4267V20.1521ZM12.4267 26.8188H29.0933V30.1521H12.4267V26.8188Z" fill="#999999"/>
</svg>
