<svg width="41" height="41" viewBox="0 0 41 41" fill="none" xmlns="http://www.w3.org/2000/svg">
<path d="M36.1267 20.9854L38.46 23.3354L27.5767 34.3187L21.7934 28.4854L24.1267 26.1354L27.5767 29.6021L36.1267 20.9854ZM19.2934 6.81873C21.0615 6.81873 22.7572 7.5211 24.0074 8.77135C25.2576 10.0216 25.96 11.7173 25.96 13.4854C25.96 15.2535 25.2576 16.9492 24.0074 18.1994C22.7572 19.4497 21.0615 20.1521 19.2934 20.1521C17.5252 20.1521 15.8296 19.4497 14.5793 18.1994C13.3291 16.9492 12.6267 15.2535 12.6267 13.4854C12.6267 11.7173 13.3291 10.0216 14.5793 8.77135C15.8296 7.5211 17.5252 6.81873 19.2934 6.81873ZM19.2934 10.1521C18.4093 10.1521 17.5615 10.5032 16.9363 11.1284C16.3112 11.7535 15.96 12.6013 15.96 13.4854C15.96 14.3694 16.3112 15.2173 16.9363 15.8424C17.5615 16.4675 18.4093 16.8187 19.2934 16.8187C20.1774 16.8187 21.0253 16.4675 21.6504 15.8424C22.2755 15.2173 22.6267 14.3694 22.6267 13.4854C22.6267 12.6013 22.2755 11.7535 21.6504 11.1284C21.0253 10.5032 20.1774 10.1521 19.2934 10.1521ZM19.2934 21.8187C20.4267 21.8187 21.7934 21.9687 23.31 22.2521L20.5267 25.0354L19.2934 24.9854C14.3434 24.9854 9.12669 27.4187 9.12669 28.4854V30.3187H19.46L22.6267 33.4854H5.96002V28.4854C5.96002 24.0521 14.8434 21.8187 19.2934 21.8187Z" fill="#999999"/>
</svg>
