<svg width="41" height="41" viewBox="0 0 41 41" fill="none" xmlns="http://www.w3.org/2000/svg">
<path d="M7.22661 6.81881C7.22661 5.93475 7.5778 5.08691 8.20292 4.46178C8.82804 3.83666 9.67589 3.48547 10.5599 3.48547H23.8933C24.3353 3.48557 24.7591 3.66122 25.0716 3.97381L33.4049 12.3071C33.7175 12.6196 33.8932 13.0435 33.8933 13.4855V33.4855C33.8933 34.3695 33.5421 35.2174 32.917 35.8425C32.2918 36.4676 31.444 36.8188 30.5599 36.8188H10.5599C9.67589 36.8188 8.82804 36.4676 8.20292 35.8425C7.5778 35.2174 7.22661 34.3695 7.22661 33.4855V6.81881ZM29.8699 13.4855L23.8933 7.50881V13.4855H29.8699ZM20.5599 6.81881H10.5599V33.4855H30.5599V16.8188H22.2266C21.7846 16.8188 21.3607 16.6432 21.0481 16.3307C20.7355 16.0181 20.5599 15.5942 20.5599 15.1521V6.81881ZM26.7383 20.6405C27.0507 20.953 27.2263 21.3769 27.2263 21.8188C27.2263 22.2607 27.0507 22.6846 26.7383 22.9971L20.0716 29.6638C19.7591 29.9763 19.3352 30.1518 18.8933 30.1518C18.4513 30.1518 18.0275 29.9763 17.7149 29.6638L14.3816 26.3305C14.2224 26.1767 14.0955 25.9928 14.0081 25.7895C13.9208 25.5861 13.8748 25.3674 13.8729 25.1461C13.8709 24.9248 13.9131 24.7054 13.9969 24.5005C14.0807 24.2957 14.2045 24.1096 14.361 23.9531C14.5174 23.7967 14.7035 23.6729 14.9084 23.5891C15.1132 23.5053 15.3326 23.4631 15.5539 23.4651C15.7752 23.467 15.9939 23.513 16.1973 23.6003C16.4006 23.6877 16.5845 23.8146 16.7383 23.9738L18.8933 26.1288L24.3816 20.6405C24.6942 20.328 25.118 20.1525 25.5599 20.1525C26.0019 20.1525 26.4257 20.328 26.7383 20.6405Z" fill="#999999"/>
</svg>
