<svg width="31" height="30" viewBox="0 0 31 30" fill="none" xmlns="http://www.w3.org/2000/svg">
<g clip-path="url(#clip0_7_112)">
<path d="M23.1 23.75C23.4186 23.7504 23.725 23.8724 23.9567 24.0911C24.1884 24.3098 24.3278 24.6087 24.3465 24.9267C24.3651 25.2448 24.2617 25.558 24.0572 25.8023C23.8527 26.0466 23.5626 26.2036 23.2462 26.2413L23.1 26.25H8.09999C7.78139 26.2496 7.47495 26.1277 7.24328 25.9089C7.01161 25.6902 6.8722 25.3913 6.85353 25.0733C6.83486 24.7552 6.93834 24.442 7.14283 24.1977C7.34731 23.9534 7.63737 23.7964 7.95374 23.7588L8.09999 23.75H23.1ZM21.85 3.75C22.1562 3.75004 22.4517 3.86245 22.6805 4.06589C22.9093 4.26934 23.0554 4.54969 23.0912 4.85375L23.1 5V15C23.102 16.9661 22.3319 18.8543 20.9554 20.2582C19.579 21.6621 17.7064 22.4694 15.7406 22.5062C13.7749 22.5431 11.8733 21.8066 10.4452 20.4553C9.01713 19.104 8.17675 17.246 8.10499 15.2813L8.09999 15V5C8.10035 4.6814 8.22234 4.37496 8.44105 4.14329C8.65977 3.91162 8.95869 3.77221 9.27674 3.75353C9.59479 3.73486 9.90797 3.83834 10.1523 4.04283C10.3966 4.24732 10.5536 4.53738 10.5912 4.85375L10.6 5V15C10.6 16.3044 11.1097 17.5572 12.0205 18.4911C12.9313 19.4249 14.1709 19.9659 15.475 19.9985C16.779 20.0311 18.0441 19.5528 19.0005 18.6657C19.9568 17.7786 20.5285 16.5528 20.5937 15.25L20.6 15V5C20.6 4.66848 20.7317 4.35054 20.9661 4.11612C21.2005 3.8817 21.5185 3.75 21.85 3.75Z" fill="#898989"/>
</g>
<defs>
<clipPath id="clip0_7_112">
<rect width="30" height="30" fill="white" transform="translate(0.600006)"/>
</clipPath>
</defs>
</svg>
