<svg width="25" height="25" viewBox="0 0 25 25" fill="none" xmlns="http://www.w3.org/2000/svg">
<g clip-path="url(#clip0_21_38)">
<path d="M12.5 17.7083C13.0525 17.7083 13.5824 17.9278 13.9731 18.3185C14.3638 18.7092 14.5833 19.2391 14.5833 19.7917C14.5833 20.3442 14.3638 20.8741 13.9731 21.2648C13.5824 21.6555 13.0525 21.875 12.5 21.875C11.9474 21.875 11.4175 21.6555 11.0268 21.2648C10.6361 20.8741 10.4166 20.3442 10.4166 19.7917C10.4166 19.2391 10.6361 18.7092 11.0268 18.3185C11.4175 17.9278 11.9474 17.7083 12.5 17.7083ZM12.5 10.4167C13.0525 10.4167 13.5824 10.6362 13.9731 11.0269C14.3638 11.4176 14.5833 11.9475 14.5833 12.5C14.5833 13.0525 14.3638 13.5824 13.9731 13.9731C13.5824 14.3638 13.0525 14.5833 12.5 14.5833C11.9474 14.5833 11.4175 14.3638 11.0268 13.9731C10.6361 13.5824 10.4166 13.0525 10.4166 12.5C10.4166 11.9475 10.6361 11.4176 11.0268 11.0269C11.4175 10.6362 11.9474 10.4167 12.5 10.4167ZM12.5 3.125C13.0525 3.125 13.5824 3.34449 13.9731 3.73519C14.3638 4.12589 14.5833 4.6558 14.5833 5.20833C14.5833 5.76087 14.3638 6.29077 13.9731 6.68147C13.5824 7.07217 13.0525 7.29167 12.5 7.29167C11.9474 7.29167 11.4175 7.07217 11.0268 6.68147C10.6361 6.29077 10.4166 5.76087 10.4166 5.20833C10.4166 4.6558 10.6361 4.12589 11.0268 3.73519C11.4175 3.34449 11.9474 3.125 12.5 3.125Z" fill="#222222"/>
</g>
<defs>
<clipPath id="clip0_21_38">
<rect width="25" height="25" fill="white"/>
</clipPath>
</defs>
</svg>
