<svg width="41" height="41" viewBox="0 0 41 41" fill="none" xmlns="http://www.w3.org/2000/svg">
<path d="M26.8267 6.81873C27.2687 6.81873 27.6926 6.99432 28.0052 7.30688C28.3177 7.61944 28.4933 8.04336 28.4933 8.48539V15.4854L37.1817 9.40206C37.3066 9.31449 37.4532 9.26289 37.6054 9.25289C37.7577 9.2429 37.9097 9.27489 38.045 9.34538C38.1803 9.41587 38.2937 9.52216 38.3727 9.65265C38.4518 9.78314 38.4935 9.93282 38.4933 10.0854V30.2187C38.4935 30.3713 38.4518 30.521 38.3727 30.6515C38.2937 30.782 38.1803 30.8882 38.045 30.9587C37.9097 31.0292 37.7577 31.0612 37.6054 31.0512C37.4532 31.0412 37.3066 30.9896 37.1817 30.9021L28.4933 24.8187V31.8187C28.4933 32.2608 28.3177 32.6847 28.0052 32.9972C27.6926 33.3098 27.2687 33.4854 26.8267 33.4854H3.49334C3.05131 33.4854 2.62739 33.3098 2.31483 32.9972C2.00227 32.6847 1.82668 32.2608 1.82668 31.8187V8.48539C1.82668 8.04336 2.00227 7.61944 2.31483 7.30688C2.62739 6.99432 3.05131 6.81873 3.49334 6.81873H26.8267ZM25.16 10.1521H5.16001V30.1521H25.16V10.1521ZM12.4933 14.8671C12.6202 14.8667 12.7445 14.9026 12.8517 14.9704L20.11 19.5887C20.2047 19.6489 20.2826 19.732 20.3366 19.8304C20.3905 19.9287 20.4188 20.0391 20.4188 20.1512C20.4188 20.2634 20.3905 20.3738 20.3366 20.4721C20.2826 20.5704 20.2047 20.6535 20.11 20.7137L12.8517 25.3354C12.7506 25.3998 12.634 25.4358 12.5141 25.4396C12.3943 25.4433 12.2757 25.4147 12.1708 25.3567C12.0659 25.2987 11.9785 25.2134 11.918 25.11C11.8574 25.0065 11.8259 24.8886 11.8267 24.7687V15.5354C11.8267 15.3586 11.8969 15.189 12.0219 15.064C12.147 14.939 12.3165 14.8671 12.4933 14.8671ZM35.16 14.8854L28.4933 19.5521V20.7487L35.16 25.4154V14.8854Z" fill="#999999"/>
</svg>
