<svg width="41" height="41" viewBox="0 0 41 41" fill="none" xmlns="http://www.w3.org/2000/svg">
<path d="M3.4933 20.1521C3.4933 12.2955 3.4933 8.36714 5.9333 5.92547C8.37663 3.48547 12.3033 3.48547 20.16 3.48547C28.0166 3.48547 31.945 3.48547 34.385 5.92547C36.8266 8.36881 36.8266 12.2955 36.8266 20.1521C36.8266 28.0088 36.8266 31.9371 34.385 34.3771C31.9466 36.8188 28.0166 36.8188 20.16 36.8188C12.3033 36.8188 8.37497 36.8188 5.9333 34.3771C3.4933 31.9388 3.4933 28.0088 3.4933 20.1521Z" stroke="#999999" stroke-width="1.875"/>
<path d="M10.16 26.4855L12.065 28.4855L16.8266 23.4855M10.16 14.8188L12.065 16.8188L16.8266 11.8188" stroke="#999999" stroke-width="1.875" stroke-linecap="round" stroke-linejoin="round"/>
<path d="M21.8266 15.1521H30.16M21.8266 26.8188H30.16" stroke="#999999" stroke-width="1.875" stroke-linecap="round"/>
</svg>
