<svg width="31" height="30" viewBox="0 0 31 30" fill="none" xmlns="http://www.w3.org/2000/svg">
<path d="M7.04999 15H24.55M20.8 8.12503C20.5165 7.57498 19.8669 7.08959 18.9581 6.74878C18.0493 6.40797 16.9354 6.23207 15.8 6.25003H14.55C13.3897 6.25003 12.2769 6.71097 11.4564 7.53144C10.6359 8.35191 10.175 9.46471 10.175 10.625C10.175 11.7854 10.6359 12.8982 11.4564 13.7186C12.2769 14.5391 13.3897 15 14.55 15H17.05C18.2103 15 19.3231 15.461 20.1436 16.2814C20.9641 17.1019 21.425 18.2147 21.425 19.375C21.425 20.5354 20.9641 21.6482 20.1436 22.4686C19.3231 23.2891 18.2103 23.75 17.05 23.75H15.175C14.0395 23.768 12.9257 23.5921 12.0169 23.2513C11.108 22.9105 10.4584 22.4251 10.175 21.875" stroke="#898989" stroke-width="1.66667" stroke-linecap="round" stroke-linejoin="round"/>
</svg>
