<svg width="41" height="41" viewBox="0 0 41 41" fill="none" xmlns="http://www.w3.org/2000/svg">
<path d="M32.4267 6.81881H29.0933V5.15214C29.0933 4.71011 28.9178 4.28619 28.6052 3.97363C28.2926 3.66107 27.8687 3.48547 27.4267 3.48547C26.9847 3.48547 26.5607 3.66107 26.2482 3.97363C25.9356 4.28619 25.76 4.71011 25.76 5.15214V6.81881H15.76V5.15214C15.76 4.71011 15.5844 4.28619 15.2719 3.97363C14.9593 3.66107 14.5354 3.48547 14.0933 3.48547C13.6513 3.48547 13.2274 3.66107 12.9148 3.97363C12.6023 4.28619 12.4267 4.71011 12.4267 5.15214V6.81881H9.09335C7.76726 6.81881 6.49549 7.34559 5.55781 8.28327C4.62013 9.22095 4.09335 10.4927 4.09335 11.8188V31.8188C4.09335 33.1449 4.62013 34.4167 5.55781 35.3543C6.49549 36.292 7.76726 36.8188 9.09335 36.8188H32.4267C33.7528 36.8188 35.0245 36.292 35.9622 35.3543C36.8999 34.4167 37.4267 33.1449 37.4267 31.8188V11.8188C37.4267 10.4927 36.8999 9.22095 35.9622 8.28327C35.0245 7.34559 33.7528 6.81881 32.4267 6.81881ZM34.0933 31.8188C34.0933 32.2608 33.9178 32.6848 33.6052 32.9973C33.2926 33.3099 32.8687 33.4855 32.4267 33.4855H9.09335C8.65132 33.4855 8.2274 33.3099 7.91483 32.9973C7.60227 32.6848 7.42668 32.2608 7.42668 31.8188V20.1521H34.0933V31.8188ZM34.0933 16.8188H7.42668V11.8188C7.42668 11.3768 7.60227 10.9529 7.91483 10.6403C8.2274 10.3277 8.65132 10.1521 9.09335 10.1521H12.4267V11.8188C12.4267 12.2608 12.6023 12.6848 12.9148 12.9973C13.2274 13.3099 13.6513 13.4855 14.0933 13.4855C14.5354 13.4855 14.9593 13.3099 15.2719 12.9973C15.5844 12.6848 15.76 12.2608 15.76 11.8188V10.1521H25.76V11.8188C25.76 12.2608 25.9356 12.6848 26.2482 12.9973C26.5607 13.3099 26.9847 13.4855 27.4267 13.4855C27.8687 13.4855 28.2926 13.3099 28.6052 12.9973C28.9178 12.6848 29.0933 12.2608 29.0933 11.8188V10.1521H32.4267C32.8687 10.1521 33.2926 10.3277 33.6052 10.6403C33.9178 10.9529 34.0933 11.3768 34.0933 11.8188V16.8188Z" fill="#999999"/>
</svg>
