<svg width="430" height="48" viewBox="0 0 430 48" fill="none" xmlns="http://www.w3.org/2000/svg">
<mask id="path-1-inside-1_20_264" fill="white">
<path d="M0 0H430V48H0V0Z"/>
</mask>
<path d="M0 0H430V48H0V0Z" fill="#D9D9D9" fill-opacity="0.51"/>
<path d="M0 0.5H430V-0.5H0V0.5Z" fill="black" fill-opacity="0.4" mask="url(#path-1-inside-1_20_264)"/>
<path d="M57.7813 23.9999C57.7813 24.1355 57.7319 24.2656 57.644 24.3615C57.5561 24.4574 57.4368 24.5112 57.3125 24.5112H37.8195L45.4566 32.8426C45.5446 32.9386 45.594 33.0687 45.594 33.2044C45.594 33.3401 45.5446 33.4703 45.4566 33.5662C45.3687 33.6622 45.2494 33.7161 45.125 33.7161C45.0006 33.7161 44.8813 33.6622 44.7934 33.5662L36.3559 24.3617C36.3123 24.3142 36.2777 24.2578 36.2541 24.1957C36.2305 24.1336 36.2184 24.0671 36.2184 23.9999C36.2184 23.9327 36.2305 23.8661 36.2541 23.8041C36.2777 23.742 36.3123 23.6856 36.3559 23.6381L44.7934 14.4335C44.8369 14.386 44.8886 14.3484 44.9455 14.3226C45.0024 14.2969 45.0634 14.2837 45.125 14.2837C45.1866 14.2837 45.2476 14.2969 45.3045 14.3226C45.3614 14.3484 45.4131 14.386 45.4566 14.4335C45.5002 14.4811 45.5347 14.5375 45.5583 14.5995C45.5819 14.6616 45.594 14.7281 45.594 14.7953C45.594 14.8625 45.5819 14.9291 45.5583 14.9911C45.5347 15.0532 45.5002 15.1096 45.4566 15.1571L37.8195 23.4885H57.3125C57.4368 23.4885 57.5561 23.5424 57.644 23.6383C57.7319 23.7342 57.7813 23.8643 57.7813 23.9999Z" fill="black"/>
<path d="M98.2187 23.9999C98.2187 24.1355 98.2681 24.2656 98.356 24.3615C98.4439 24.4574 98.5632 24.5112 98.6875 24.5112H118.18L110.543 32.8426C110.455 32.9386 110.406 33.0687 110.406 33.2044C110.406 33.3401 110.455 33.4703 110.543 33.5662C110.631 33.6622 110.751 33.7161 110.875 33.7161C110.999 33.7161 111.119 33.6622 111.207 33.5662L119.644 24.3617C119.688 24.3142 119.722 24.2578 119.746 24.1957C119.769 24.1336 119.782 24.0671 119.782 23.9999C119.782 23.9327 119.769 23.8661 119.746 23.8041C119.722 23.742 119.688 23.6856 119.644 23.6381L111.207 14.4335C111.163 14.386 111.111 14.3484 111.054 14.3226C110.998 14.2969 110.937 14.2837 110.875 14.2837C110.813 14.2837 110.752 14.2969 110.696 14.3226C110.639 14.3484 110.587 14.386 110.543 14.4335C110.5 14.4811 110.465 14.5375 110.442 14.5995C110.418 14.6616 110.406 14.7281 110.406 14.7953C110.406 14.8625 110.418 14.9291 110.442 14.9911C110.465 15.0532 110.5 15.1096 110.543 15.1571L118.18 23.4885H98.6875C98.5632 23.4885 98.4439 23.5424 98.356 23.6383C98.2681 23.7342 98.2187 23.8643 98.2187 23.9999Z" fill="black"/>
<path d="M395.934 33.0261C396.003 33.0963 396.059 33.181 396.097 33.2751C396.136 33.3692 396.156 33.4707 396.158 33.5737C396.16 33.6767 396.142 33.779 396.107 33.8745C396.072 33.9701 396.019 34.0568 395.952 34.1297C395.885 34.2025 395.806 34.2599 395.718 34.2985C395.631 34.3371 395.537 34.356 395.443 34.3542C395.348 34.3524 395.255 34.3298 395.169 34.2879C395.083 34.246 395.005 34.1855 394.941 34.1102L387 25.449L379.059 34.1102C378.926 34.2457 378.75 34.3194 378.568 34.3159C378.386 34.3124 378.212 34.2319 378.083 34.0914C377.954 33.9508 377.88 33.7613 377.877 33.5625C377.874 33.3638 377.941 33.1715 378.066 33.0261L386.005 24.3636L378.066 15.7011C377.941 15.5557 377.874 15.3634 377.877 15.1646C377.88 14.9659 377.954 14.7763 378.083 14.6358C378.212 14.4953 378.386 14.4148 378.568 14.4113C378.75 14.4077 378.926 14.4815 379.059 14.617L387 23.2782L394.941 14.617C395.074 14.4815 395.25 14.4077 395.432 14.4113C395.615 14.4148 395.788 14.4953 395.917 14.6358C396.046 14.7763 396.12 14.9659 396.123 15.1646C396.126 15.3634 396.059 15.5557 395.934 15.7011L387.995 24.3636L395.934 33.0261Z" fill="black"/>
</svg>
