<svg width="30" height="30" viewBox="0 0 30 30" fill="none" xmlns="http://www.w3.org/2000/svg">
<g clip-path="url(#clip0_185_2)">
<path d="M15 0C23.2843 0 30 6.71572 30 15C30 23.2843 23.2843 30 15 30C6.71572 30 0 23.2843 0 15C0 6.71572 6.71572 0 15 0ZM13.9709 6.50025C9.95762 6.50025 6.70532 9.7544 6.70532 13.7677C6.70532 17.781 9.95762 21.0333 13.9709 21.0333C15.1855 21.0333 16.3301 20.7362 17.3364 20.2094C17.3354 20.214 17.3338 20.2194 17.3328 20.224L20.6103 23.4998L23.2947 20.8136L20.1343 17.6514C20.1291 17.649 20.123 17.6482 20.1178 17.6459C20.8275 16.5236 21.2384 15.1937 21.2384 13.7677C21.2384 9.75438 17.9843 6.50025 13.9709 6.50025ZM13.9709 9.7284C16.2013 9.7284 18.0103 11.5374 18.0103 13.7677C18.0103 15.998 16.2013 17.8052 13.9709 17.8052C11.7406 17.8052 9.93347 15.998 9.93347 13.7677C9.93347 11.5374 11.7406 9.7284 13.9709 9.7284Z" fill="#545454"/>
</g>
<defs>
<clipPath id="clip0_185_2">
<rect width="30" height="30" fill="white" transform="matrix(-1 0 0 1 30 0)"/>
</clipPath>
</defs>
</svg>
