<svg width="31" height="31" viewBox="0 0 31 31" fill="none" xmlns="http://www.w3.org/2000/svg">
<path d="M7.0625 14.5625H25.8125C26.0611 14.5625 26.2996 14.6613 26.4754 14.8371C26.6512 15.0129 26.75 15.2514 26.75 15.5C26.75 15.7486 26.6512 15.9871 26.4754 16.1629C26.2996 16.3387 26.0611 16.4375 25.8125 16.4375H7.0625C6.81386 16.4375 6.5754 16.3387 6.39959 16.1629C6.22377 15.9871 6.125 15.7486 6.125 15.5C6.125 15.2514 6.22377 15.0129 6.39959 14.8371C6.5754 14.6613 6.81386 14.5625 7.0625 14.5625Z" fill="black"/>
<path d="M7.45065 15.5L15.2263 23.2737C15.4023 23.4498 15.5012 23.6885 15.5012 23.9375C15.5012 24.1864 15.4023 24.4252 15.2263 24.6012C15.0502 24.7773 14.8115 24.8762 14.5625 24.8762C14.3136 24.8762 14.0748 24.7773 13.8988 24.6012L5.46128 16.1637C5.37397 16.0767 5.3047 15.9732 5.25744 15.8593C5.21018 15.7454 5.18585 15.6233 5.18585 15.5C5.18585 15.3767 5.21018 15.2546 5.25744 15.1407C5.3047 15.0268 5.37397 14.9233 5.46128 14.8362L13.8988 6.39874C14.0748 6.22271 14.3136 6.12381 14.5625 6.12381C14.8115 6.12381 15.0502 6.22271 15.2263 6.39874C15.4023 6.57478 15.5012 6.81354 15.5012 7.06249C15.5012 7.31145 15.4023 7.55021 15.2263 7.72624L7.45065 15.5Z" fill="black"/>
</svg>
