<svg width="30" height="30" viewBox="0 0 30 30" fill="none" xmlns="http://www.w3.org/2000/svg">
<path d="M17.5988 1.875C17.7972 1.87501 17.9906 1.93801 18.151 2.05493C18.3114 2.17185 18.4305 2.33666 18.4913 2.52562L19.5225 5.73C19.9556 5.94187 20.37 6.18 20.7656 6.44812L24.0581 5.73938C24.2523 5.69793 24.4545 5.71917 24.6358 5.80004C24.8171 5.88091 24.968 6.01723 25.0669 6.18938L27.6656 10.6875C27.7649 10.8595 27.8069 11.0587 27.7857 11.2561C27.7644 11.4536 27.681 11.6392 27.5475 11.7862L25.2881 14.28C25.321 14.7582 25.321 15.2381 25.2881 15.7162L27.5475 18.2137C27.681 18.3608 27.7644 18.5464 27.7857 18.7439C27.8069 18.9413 27.7649 19.1405 27.6656 19.3125L25.0669 23.8125C24.9678 23.9843 24.8167 24.1202 24.6354 24.2008C24.4542 24.2813 24.2521 24.3022 24.0581 24.2606L20.7656 23.5519C20.3719 23.8181 19.9556 24.0581 19.5244 24.27L18.4913 27.4744C18.4305 27.6633 18.3114 27.8281 18.151 27.9451C17.9906 28.062 17.7972 28.125 17.5988 28.125H12.4013C12.2028 28.125 12.0094 28.062 11.849 27.9451C11.6886 27.8281 11.5695 27.6633 11.5088 27.4744L10.4794 24.2719C10.0474 24.0606 9.63079 23.8194 9.2325 23.55L5.94188 24.2606C5.74775 24.3021 5.54548 24.2808 5.36419 24.2C5.18291 24.1191 5.03198 23.9828 4.93313 23.8106L2.33438 19.3125C2.23514 19.1405 2.19311 18.9413 2.21434 18.7439C2.23557 18.5464 2.31897 18.3608 2.4525 18.2137L4.71188 15.7162C4.67914 15.2393 4.67914 14.7607 4.71188 14.2838L2.4525 11.7862C2.31897 11.6392 2.23557 11.4536 2.21434 11.2561C2.19311 11.0587 2.23514 10.8595 2.33438 10.6875L4.93313 6.1875C5.03225 6.0157 5.1833 5.87976 5.36456 5.79924C5.54582 5.71872 5.74795 5.69776 5.94188 5.73938L9.2325 6.45C9.63 6.18188 10.0463 5.94 10.4794 5.72813L11.5106 2.52562C11.5712 2.33727 11.6897 2.1729 11.8494 2.05603C12.009 1.93917 12.2015 1.8758 12.3994 1.875H17.5969H17.5988ZM16.9125 3.75H13.0875L12.0225 7.06313L11.3044 7.41375C10.9513 7.5865 10.6105 7.78321 10.2844 8.0025L9.62063 8.4525L6.21563 7.7175L4.30313 11.0325L6.6375 13.6163L6.58125 14.4113C6.5543 14.8033 6.5543 15.1967 6.58125 15.5887L6.6375 16.3837L4.29938 18.9675L6.21375 22.2825L9.61875 21.5494L10.2825 21.9975C10.6087 22.2168 10.9495 22.4135 11.3025 22.5862L12.0206 22.9369L13.0875 26.25H16.9163L17.985 22.935L18.7013 22.5862C19.0539 22.4139 19.3941 22.2172 19.7194 21.9975L20.3813 21.5494L23.7881 22.2825L25.7006 18.9675L23.3644 16.3837L23.4206 15.5887C23.4477 15.1961 23.4477 14.802 23.4206 14.4094L23.3644 13.6144L25.7025 11.0325L23.7881 7.7175L20.3813 8.44875L19.7194 8.0025C19.3941 7.78281 19.0539 7.58608 18.7013 7.41375L17.985 7.065L16.9144 3.75H16.9125ZM15 9.375C16.4918 9.375 17.9226 9.96763 18.9775 11.0225C20.0324 12.0774 20.625 13.5082 20.625 15C20.625 16.4918 20.0324 17.9226 18.9775 18.9775C17.9226 20.0324 16.4918 20.625 15 20.625C13.5082 20.625 12.0774 20.0324 11.0225 18.9775C9.96764 17.9226 9.375 16.4918 9.375 15C9.375 13.5082 9.96764 12.0774 11.0225 11.0225C12.0774 9.96763 13.5082 9.375 15 9.375ZM15 11.25C14.0054 11.25 13.0516 11.6451 12.3484 12.3483C11.6451 13.0516 11.25 14.0054 11.25 15C11.25 15.9946 11.6451 16.9484 12.3484 17.6516C13.0516 18.3549 14.0054 18.75 15 18.75C15.9946 18.75 16.9484 18.3549 17.6517 17.6516C18.3549 16.9484 18.75 15.9946 18.75 15C18.75 14.0054 18.3549 13.0516 17.6517 12.3483C16.9484 11.6451 15.9946 11.25 15 11.25Z" fill="black"/>
</svg>
