<svg width="36" height="35" viewBox="0 0 36 35" fill="none" xmlns="http://www.w3.org/2000/svg">
<path d="M1 8C1 3.85786 4.35786 0.5 8.5 0.5H27.5C31.6421 0.5 35 3.85786 35 8V27C35 31.1421 31.6421 34.5 27.5 34.5H8.5C4.35786 34.5 1 31.1421 1 27V8Z" stroke="black"/>
<path fill-rule="evenodd" clip-rule="evenodd" d="M21.4813 22.3075C19.7965 23.6536 17.6602 24.3036 15.5112 24.1238C13.3621 23.944 11.3635 22.9482 9.92574 21.3409C8.48798 19.7335 7.72026 17.6367 7.78025 15.481C7.84023 13.3253 8.72336 11.2744 10.2483 9.74946C11.7732 8.22455 13.8241 7.34142 15.9798 7.28144C18.1355 7.22145 20.2324 7.98917 21.8397 9.42693C23.447 10.8647 24.4429 12.8633 24.6226 15.0123C24.8024 17.1614 24.1524 19.2977 22.8063 20.9825L29.2513 27.4262C29.3434 27.5121 29.4173 27.6156 29.4685 27.7306C29.5198 27.8456 29.5473 27.9697 29.5495 28.0956C29.5518 28.2215 29.5286 28.3465 29.4815 28.4632C29.4343 28.58 29.3641 28.686 29.2751 28.775C29.1861 28.8641 29.08 28.9342 28.9633 28.9814C28.8466 29.0285 28.7215 29.0517 28.5956 29.0495C28.4698 29.0473 28.3456 29.0197 28.2306 28.9685C28.1156 28.9172 28.0121 28.8433 27.9263 28.7512L21.4813 22.3075ZM11.5738 20.355C10.6563 19.4374 10.0315 18.2685 9.77819 16.996C9.52489 15.7234 9.65452 14.4043 10.1507 13.2054C10.6469 12.0064 11.4873 10.9815 12.5658 10.2601C13.6443 9.53871 14.9125 9.15322 16.21 9.15234C17.5075 9.15147 18.7762 9.53526 19.8557 10.2552C20.9352 10.9752 21.777 11.999 22.2748 13.1972C22.7726 14.3955 22.904 15.7144 22.6524 16.9873C22.4008 18.2602 21.7775 19.43 20.8613 20.3487L20.855 20.355L20.8488 20.36C19.6177 21.5883 17.9493 22.2777 16.2103 22.2767C14.4712 22.2758 12.8036 21.5846 11.5738 20.355Z" fill="#0FA958"/>
</svg>
