<svg width="366" height="58" viewBox="0 0 366 58" fill="none" xmlns="http://www.w3.org/2000/svg">
<g clip-path="url(#clip0_114_2319)">
<path d="M104.563 25.8531H117.686V18.9377H104.563V15.0566H117.827V8H95.3904V36.7908H118.109V29.7342H104.563V25.8531Z" fill="#03CF5D"/>
<path d="M42.1722 25.8531H55.2954V18.9377H42.1722V15.0566H55.4365V8H33V36.7908H55.7187V29.7342H42.1722V25.8531Z" fill="#03CF5D"/>
<path d="M76.0584 26.9309L69.2851 8H59.6896L70.9784 36.7908H81.1383L92.4271 8H82.8316L76.0584 26.9309Z" fill="#03CF5D"/>
<path d="M19.6143 23.4092L8.88992 8H0V36.7908H9.31325V21.3816L20.0376 36.7908H28.9276V8H19.6143V23.4092Z" fill="#03CF5D"/>
<path d="M142.722 26.9139L143.595 26.5485C146.941 25.148 148.642 22.1176 148.642 18.2717C148.642 14.6348 147.316 11.9443 144.7 10.2748C142.269 8.72282 139.115 8 134.776 8H122.625V36.7908H131.656V28.7463H134.901L140.405 36.7908H150L142.722 26.9139ZM136.453 21.4075H131.515V15.3388H136.453C138.129 15.3388 139.487 16.6974 139.487 18.3731C139.487 20.049 138.129 21.4075 136.453 21.4075Z" fill="#03CF5D"/>
</g>
<defs>
<clipPath id="clip0_114_2319">
<rect width="150" height="28.7908" fill="white" transform="translate(0 8)"/>
</clipPath>
</defs>
</svg>
