<svg width="30" height="30" viewBox="0 0 30 30" fill="none" xmlns="http://www.w3.org/2000/svg">
<path d="M15.0962 23.75C12.6537 23.75 10.5845 22.9029 8.88869 21.2087C7.19369 19.5137 6.34619 17.4454 6.34619 15.0037C6.34619 12.5621 7.19327 10.4929 8.88744 8.79625C10.5816 7.09958 12.6512 6.25083 15.0962 6.25C16.582 6.25 17.9729 6.60292 19.2687 7.30875C20.5645 8.01458 21.6095 9 22.4037 10.265V6.25H23.6537V12.7875H17.1162V11.5375H21.7412C21.0904 10.2917 20.1745 9.30708 18.9937 8.58375C17.8129 7.86042 16.5137 7.49917 15.0962 7.5C13.0129 7.5 11.242 8.22917 9.78369 9.6875C8.32536 11.1458 7.59619 12.9167 7.59619 15C7.59619 17.0833 8.32536 18.8542 9.78369 20.3125C11.242 21.7708 13.0129 22.5 15.0962 22.5C16.7004 22.5 18.1483 22.0417 19.4399 21.125C20.7316 20.2083 21.6379 19 22.1587 17.5H23.4849C22.9341 19.3717 21.887 20.8812 20.3437 22.0287C18.8004 23.1762 17.0512 23.75 15.0962 23.75Z" fill="black"/>
</svg>
