<svg width="150" height="29" viewBox="0 0 150 29" fill="none" xmlns="http://www.w3.org/2000/svg">
<g clip-path="url(#clip0_121_176)">
<path d="M104.563 17.8531H117.686V10.9377H104.563V7.05656H117.827V0H95.3904V28.7908H118.109V21.7342H104.563V17.8531Z" fill="#03CF5D"/>
<path d="M42.1722 17.8531H55.2954V10.9377H42.1722V7.05656H55.4365V0H33V28.7908H55.7187V21.7342H42.1722V17.8531Z" fill="#03CF5D"/>
<path d="M76.0584 18.9309L69.2851 0H59.6896L70.9784 28.7908H81.1383L92.4271 0H82.8316L76.0584 18.9309Z" fill="#03CF5D"/>
<path d="M19.6143 15.4092L8.88992 0H0V28.7908H9.31325V13.3816L20.0376 28.7908H28.9276V0H19.6143V15.4092Z" fill="#03CF5D"/>
<path d="M142.722 18.9139L143.595 18.5485C146.941 17.148 148.642 14.1176 148.642 10.2717C148.642 6.63481 147.316 3.94431 144.7 2.27485C142.269 0.722822 139.115 0 134.776 0H122.625V28.7908H131.656V20.7463H134.901L140.405 28.7908H150L142.722 18.9139ZM136.453 13.4075H131.515V7.33883H136.453C138.129 7.33883 139.487 8.69735 139.487 10.3731C139.487 12.049 138.129 13.4075 136.453 13.4075Z" fill="#03CF5D"/>
</g>
<defs>
<clipPath id="clip0_121_176">
<rect width="150" height="28.7908" fill="white"/>
</clipPath>
</defs>
</svg>
