<svg width="274" height="59" viewBox="0 0 274 59" fill="none" xmlns="http://www.w3.org/2000/svg">
<g clip-path="url(#clip0_80_199)">
<path d="M191.001 36.4657H214.973V22.5343H191.001V14.7157H215.23V0.5H174.246V58.5H215.746V44.2843H191.001V36.4657Z" fill="#03CF5D"/>
<path d="M77.0345 36.4657H101.006V22.5343H77.0345V14.7157H101.264V0.5H60.28V58.5H101.78V44.2843H77.0345V36.4657Z" fill="#03CF5D"/>
<path d="M138.933 38.637L126.561 0.5H109.033L129.654 58.5H148.213L168.833 0.5H151.306L138.933 38.637Z" fill="#03CF5D"/>
<path d="M35.8288 31.5423L16.2389 0.5H0V58.5H17.0122V27.4578L36.602 58.5H52.841V0.5H35.8288V31.5423Z" fill="#03CF5D"/>
<path d="M260.706 38.6027L262.301 37.8666C268.412 35.0451 271.52 28.9404 271.52 21.1927C271.52 13.866 269.097 8.44594 264.319 5.08275C259.877 1.95615 254.117 0.5 246.192 0.5H223.994V58.5H240.491V42.2942H246.42L256.472 58.5H274L260.706 38.6027ZM249.255 27.5098H240.233V15.2843H249.255C252.316 15.2843 254.797 18.0211 254.797 21.3971C254.797 24.7731 252.316 27.5098 249.255 27.5098Z" fill="#03CF5D"/>
</g>
<defs>
<clipPath id="clip0_80_199">
<rect width="274" height="58" fill="white" transform="translate(0 0.5)"/>
</clipPath>
</defs>
</svg>
