<svg width="274" height="58" viewBox="0 0 274 58" fill="none" xmlns="http://www.w3.org/2000/svg">
<g clip-path="url(#clip0_80_192)">
<path d="M191.001 35.9657H214.973V22.0343H191.001V14.2157H215.23V0H174.246V58H215.746V43.7843H191.001V35.9657Z" fill="#03CF5D"/>
<path d="M77.0345 35.9657H101.006V22.0343H77.0345V14.2157H101.264V0H60.28V58H101.78V43.7843H77.0345V35.9657Z" fill="#03CF5D"/>
<path d="M138.933 38.137L126.561 0H109.033L129.654 58H148.213L168.833 0H151.306L138.933 38.137Z" fill="#03CF5D"/>
<path d="M35.8288 31.0423L16.2389 0H0V58H17.0122V26.9578L36.602 58H52.841V0H35.8288V31.0423Z" fill="#03CF5D"/>
<path d="M260.706 38.1027L262.301 37.3666C268.412 34.5451 271.52 28.4404 271.52 20.6927C271.52 13.366 269.097 7.94594 264.319 4.58275C259.877 1.45615 254.117 0 246.192 0H223.994V58H240.491V41.7942H246.42L256.472 58H274L260.706 38.1027ZM249.255 27.0098H240.233V14.7843H249.255C252.316 14.7843 254.797 17.5211 254.797 20.8971C254.797 24.2731 252.316 27.0098 249.255 27.0098Z" fill="#03CF5D"/>
</g>
<defs>
<clipPath id="clip0_80_192">
<rect width="274" height="58" fill="white"/>
</clipPath>
</defs>
</svg>
