<svg width="276" height="53" viewBox="0 0 276 53" fill="none" xmlns="http://www.w3.org/2000/svg">
<g clip-path="url(#clip0_106_155)">
<path d="M192.395 32.8652H216.542V20.1348H192.395V12.9902H216.801V0H175.518V53H217.321V40.0098H192.395V32.8652Z" fill="#03CF5D"/>
<path d="M77.5968 32.8652H101.743V20.1348H77.5968V12.9902H102.003V0H60.72V53H102.522V40.0098H77.5968V32.8652Z" fill="#03CF5D"/>
<path d="M139.947 34.8493L127.485 0H109.829L130.6 53H149.295L170.066 0H152.41L139.947 34.8493Z" fill="#03CF5D"/>
<path d="M36.0903 28.3662L16.3575 0H0V53H17.1364V24.6338L36.8692 53H53.2267V0H36.0903V28.3662Z" fill="#03CF5D"/>
<path d="M262.609 34.818L264.215 34.1454C270.371 31.5671 273.502 25.9886 273.502 18.9088C273.502 12.2138 271.061 7.26095 266.248 4.18769C261.774 1.33062 255.972 0 247.989 0H225.629V53H242.246V38.1912H248.218L258.344 53H276L262.609 34.818ZM251.074 24.6814H241.987V13.5098H251.074C254.157 13.5098 256.657 16.0107 256.657 19.0956C256.657 22.1806 254.157 24.6814 251.074 24.6814Z" fill="#03CF5D"/>
</g>
<defs>
<clipPath id="clip0_106_155">
<rect width="276" height="53" fill="white"/>
</clipPath>
</defs>
</svg>
