<svg width="30" height="30" viewBox="0 0 30 30" fill="none" xmlns="http://www.w3.org/2000/svg">
<path d="M1.25 15C1.25 7.40625 7.40625 1.25 15 1.25C22.5938 1.25 28.75 7.40625 28.75 15C28.75 22.5938 22.5938 28.75 15 28.75C7.40625 28.75 1.25 22.5938 1.25 15ZM11.295 9.97C11.1172 9.80449 10.8821 9.71436 10.6392 9.71856C10.3963 9.72275 10.1645 9.82095 9.9925 9.9925C9.82095 10.1645 9.72275 10.3963 9.71856 10.6392C9.71436 10.8821 9.80449 11.1172 9.97 11.295L13.6737 15L9.97 18.7038C9.84659 18.8183 9.75638 18.9641 9.70886 19.1257C9.66134 19.2872 9.65828 19.4586 9.7 19.6218C9.74172 19.7849 9.82667 19.9338 9.9459 20.0527C10.0651 20.1716 10.2142 20.2562 10.3775 20.2975C10.5405 20.3393 10.7117 20.3364 10.8731 20.2891C11.0346 20.2418 11.1803 20.1518 11.295 20.0288L15 16.325L18.7038 20.03C18.8805 20.2009 19.1173 20.2955 19.3631 20.2934C19.6089 20.2914 19.8441 20.1929 20.018 20.0192C20.1919 19.8455 20.2906 19.6104 20.2928 19.3646C20.2951 19.1188 20.2007 18.8819 20.03 18.705L16.3263 15L20.03 11.295C20.1534 11.1804 20.2436 11.0347 20.2911 10.8731C20.3387 10.7115 20.3417 10.5401 20.3 10.377C20.2583 10.2138 20.1733 10.065 20.0541 9.94603C19.9349 9.82711 19.7858 9.74254 19.6225 9.70125C19.4595 9.65948 19.2883 9.66239 19.1269 9.70969C18.9654 9.75698 18.8197 9.8469 18.705 9.97L15 13.6737L11.295 9.97Z" fill="#545454"/>
</svg>
