<svg width="30" height="30" viewBox="0 0 30 30" fill="none" xmlns="http://www.w3.org/2000/svg">
<path d="M4.21875 15C4.21875 15.1243 4.26813 15.2436 4.35604 15.3315C4.44395 15.4194 4.56318 15.4688 4.6875 15.4688H24.1805L16.5434 23.1059C16.4554 23.1938 16.406 23.3131 16.406 23.4375C16.406 23.5619 16.4554 23.6812 16.5434 23.7692C16.6313 23.8571 16.7506 23.9065 16.875 23.9065C16.9994 23.9065 17.1187 23.8571 17.2066 23.7692L25.6441 15.3317C25.6877 15.2881 25.7223 15.2364 25.7459 15.1795C25.7695 15.1226 25.7816 15.0616 25.7816 15C25.7816 14.9384 25.7695 14.8774 25.7459 14.8205C25.7223 14.7636 25.6877 14.7119 25.6441 14.6684L17.2066 6.23088C17.1631 6.18732 17.1114 6.15278 17.0545 6.12921C16.9976 6.10564 16.9366 6.09351 16.875 6.09351C16.8134 6.09351 16.7524 6.10564 16.6955 6.12921C16.6386 6.15278 16.5869 6.18732 16.5434 6.23088C16.4998 6.27443 16.4653 6.32613 16.4417 6.38303C16.4181 6.43994 16.406 6.50093 16.406 6.56252C16.406 6.62411 16.4181 6.6851 16.4417 6.742C16.4653 6.7989 16.4998 6.85061 16.5434 6.89416L24.1805 14.5313H4.6875C4.56318 14.5313 4.44395 14.5807 4.35604 14.6686C4.26813 14.7565 4.21875 14.8757 4.21875 15Z" fill="black"/>
</svg>
