<svg width="30" height="30" viewBox="0 0 30 30" fill="none" xmlns="http://www.w3.org/2000/svg">
<path d="M25.7813 15C25.7813 15.1243 25.7319 15.2436 25.644 15.3315C25.5561 15.4194 25.4368 15.4688 25.3125 15.4688H5.81953L13.4566 23.1059C13.5446 23.1938 13.594 23.3131 13.594 23.4375C13.594 23.5619 13.5446 23.6812 13.4566 23.7692C13.3687 23.8571 13.2494 23.9065 13.125 23.9065C13.0006 23.9065 12.8813 23.8571 12.7934 23.7692L4.35586 15.3317C4.31228 15.2881 4.2777 15.2364 4.25412 15.1795C4.23053 15.1226 4.21838 15.0616 4.21838 15C4.21838 14.9384 4.23053 14.8774 4.25412 14.8205C4.2777 14.7636 4.31228 14.7119 4.35586 14.6684L12.7934 6.23088C12.8369 6.18732 12.8886 6.15278 12.9455 6.12921C13.0024 6.10564 13.0634 6.09351 13.125 6.09351C13.1866 6.09351 13.2476 6.10564 13.3045 6.12921C13.3614 6.15278 13.4131 6.18732 13.4566 6.23088C13.5002 6.27443 13.5347 6.32613 13.5583 6.38303C13.5819 6.43994 13.594 6.50093 13.594 6.56252C13.594 6.62411 13.5819 6.6851 13.5583 6.742C13.5347 6.7989 13.5002 6.85061 13.4566 6.89416L5.81953 14.5313H25.3125C25.4368 14.5313 25.5561 14.5807 25.644 14.6686C25.7319 14.7565 25.7813 14.8757 25.7813 15Z" fill="black"/>
</svg>
