<svg width="30" height="30" viewBox="0 0 30 30" fill="none" xmlns="http://www.w3.org/2000/svg">
<path d="M24.1008 22.7742C24.1879 22.8613 24.257 22.9647 24.3042 23.0785C24.3513 23.1923 24.3756 23.3143 24.3756 23.4375C24.3756 23.5607 24.3513 23.6827 24.3042 23.7965C24.257 23.9103 24.1879 24.0137 24.1008 24.1008C24.0137 24.1879 23.9103 24.257 23.7965 24.3041C23.6827 24.3513 23.5607 24.3755 23.4375 24.3755C23.3144 24.3755 23.1924 24.3513 23.0786 24.3041C22.9648 24.257 22.8614 24.1879 22.7743 24.1008L15 16.3254L7.22581 24.1008C7.0499 24.2767 6.81131 24.3755 6.56253 24.3755C6.31375 24.3755 6.07516 24.2767 5.89925 24.1008C5.72334 23.9249 5.62451 23.6863 5.62451 23.4375C5.62451 23.1887 5.72334 22.9501 5.89925 22.7742L13.6746 15L5.89925 7.22578C5.72334 7.04987 5.62451 6.81128 5.62451 6.5625C5.62451 6.31372 5.72334 6.07513 5.89925 5.89922C6.07516 5.72331 6.31375 5.62448 6.56253 5.62448C6.81131 5.62448 7.0499 5.72331 7.22581 5.89922L15 13.6746L22.7743 5.89922C22.9502 5.72331 23.1888 5.62448 23.4375 5.62448C23.6863 5.62448 23.9249 5.72331 24.1008 5.89922C24.2767 6.07513 24.3756 6.31372 24.3756 6.5625C24.3756 6.81128 24.2767 7.04987 24.1008 7.22578L16.3254 15L24.1008 22.7742Z" fill="#545454"/>
</svg>
