<svg width="68" height="66" viewBox="0 0 68 66" fill="none" xmlns="http://www.w3.org/2000/svg">
<path d="M56.3637 10.9159C53.5149 8.09915 49.4921 7.65601 44.7421 7.65601H22.9518C18.259 7.65601 14.2362 8.09797 11.3862 10.9159C8.53737 13.7327 8.1178 17.6833 8.1178 22.2962V43.6213C8.1178 48.345 8.53618 52.2673 11.3862 55.0841C14.235 57.9009 18.259 58.344 23.0352 58.344H44.7421C49.4921 58.344 53.5149 57.902 56.3637 55.0841C59.2137 52.2673 59.6321 48.345 59.6321 43.6213V22.3787C59.6321 17.655 59.2137 13.7044 56.3637 10.9159ZM55.1348 21.6056V44.3673C55.1348 47.2395 54.7713 50.1671 53.0966 51.8524C51.3921 53.5095 48.374 53.8961 45.4966 53.8961H22.2533C19.3759 53.8961 16.359 53.5095 14.6831 51.8524C12.9786 50.1671 12.6151 47.2395 12.6151 44.3661V21.6893C12.6151 18.79 12.9786 15.8058 14.6545 14.1488C16.359 12.4634 19.4033 12.1051 22.3367 12.1051H45.4966C48.374 12.1051 51.3909 12.4917 53.0954 14.1488C54.7713 15.8341 55.1348 18.7605 55.1348 21.6056ZM33.875 47.7369C34.993 47.7369 35.887 46.88 35.887 45.7757V34.9753H46.8102C47.927 34.9753 48.821 34.036 48.821 33.0141C48.821 31.9369 47.927 31.0247 46.8102 31.0247H35.887V20.1972C35.887 19.0917 34.993 18.236 33.875 18.236C33.6134 18.2322 33.3538 18.2804 33.1114 18.3776C32.869 18.4748 32.6488 18.6191 32.4639 18.802C32.2789 18.9848 32.133 19.2025 32.0347 19.4422C31.9363 19.6819 31.8877 19.9386 31.8915 20.1972V31.0247H20.9684C19.8503 31.0247 18.9563 31.9369 18.9563 33.0141C18.9563 34.036 19.8503 34.9753 20.9684 34.9753H31.8915V45.7757C31.8915 46.88 32.7581 47.7369 33.875 47.7369Z" fill="black"/>
</svg>
