<svg width="66" height="66" viewBox="0 0 66 66" fill="none" xmlns="http://www.w3.org/2000/svg">
<path d="M55.2361 10.9159C52.4193 8.09915 48.4416 7.65601 43.745 7.65601H22.1995C17.5595 7.65601 13.5818 8.09797 10.7639 10.9159C7.94708 13.7327 7.53223 17.6833 7.53223 22.2962V43.6213C7.53223 48.345 7.94591 52.2673 10.7639 55.0841C13.5807 57.9009 17.5595 58.344 22.282 58.344H43.745C48.4416 58.344 52.4193 57.902 55.2361 55.0841C58.0541 52.2673 58.4677 48.345 58.4677 43.6213V22.3787C58.4677 17.655 58.0541 13.7044 55.2361 10.9159ZM54.021 21.6056V44.3673C54.021 47.2395 53.6615 50.1671 52.0056 51.8524C50.3203 53.5095 47.3361 53.8961 44.4911 53.8961H21.5089C18.6638 53.8961 15.6809 53.5095 14.0238 51.8524C12.3384 50.1671 11.979 47.2395 11.979 44.3661V21.6893C11.979 18.79 12.3384 15.8058 13.9955 14.1488C15.6809 12.4634 18.6909 12.1051 21.5914 12.1051H44.4911C47.3361 12.1051 50.3191 12.4917 52.0044 14.1488C53.6615 15.8341 54.021 18.7605 54.021 21.6056ZM33 47.7369C34.1055 47.7369 34.9894 46.88 34.9894 45.7757V34.9753H45.7898C46.8942 34.9753 47.7781 34.036 47.7781 33.0141C47.7781 31.9369 46.8942 31.0247 45.7898 31.0247H34.9894V20.1972C34.9894 19.0917 34.1055 18.236 33 18.236C32.7414 18.2322 32.4847 18.2804 32.245 18.3776C32.0053 18.4748 31.7876 18.6191 31.6047 18.802C31.4219 18.9848 31.2776 19.2025 31.1804 19.4422C31.0831 19.6819 31.035 19.9386 31.0388 20.1972V31.0247H20.2384C19.1329 31.0247 18.249 31.9369 18.249 33.0141C18.249 34.036 19.1329 34.9753 20.2384 34.9753H31.0388V45.7757C31.0388 46.88 31.8957 47.7369 33 47.7369Z" fill="black"/>
</svg>
