<svg width="110" height="115" viewBox="0 0 110 115" fill="none" xmlns="http://www.w3.org/2000/svg">
<g clip-path="url(#clip0_45_236)">
<g clip-path="url(#clip1_45_236)">
<path d="M83.4531 0.5H25.5469C11.4377 0.5 0 12.4624 0 27.2188V87.7812C0 102.538 11.4377 114.5 25.5469 114.5H83.4531C97.5623 114.5 109 102.538 109 87.7812V27.2188C109 12.4624 97.5623 0.5 83.4531 0.5Z" fill="url(#paint0_radial_45_236)"/>
<path d="M83.4531 0.5H25.5469C11.4377 0.5 0 12.4624 0 27.2188V87.7812C0 102.538 11.4377 114.5 25.5469 114.5H83.4531C97.5623 114.5 109 102.538 109 87.7812V27.2188C109 12.4624 97.5623 0.5 83.4531 0.5Z" fill="url(#paint1_radial_45_236)"/>
<path d="M54.5038 12.9688C42.9405 12.9688 41.489 13.0217 36.9476 13.2377C32.4147 13.455 29.3206 14.2054 26.6135 15.3066C23.8127 16.444 21.4372 17.9656 19.0707 20.4415C16.7021 22.917 15.2472 25.4014 14.1564 28.3294C13.1004 31.1615 12.3821 34.399 12.1782 39.1375C11.9751 43.8877 11.9219 45.4062 11.9219 57.5004C11.9219 69.5947 11.973 71.1079 12.179 75.8576C12.3877 80.5984 13.1051 83.8344 14.1572 86.6657C15.2455 89.595 16.7004 92.0794 19.0678 94.5545C21.4338 97.0317 23.8093 98.5569 26.6079 99.6942C29.3172 100.796 32.4117 101.546 36.9438 101.763C41.4856 101.979 42.9358 102.032 54.4987 102.032C66.0634 102.032 67.5102 101.979 72.0516 101.763C76.5844 101.546 79.682 100.796 82.3912 99.6942C85.1907 98.5569 87.5628 97.0317 89.9284 94.5545C92.297 92.0794 93.7515 89.595 94.8428 86.6671C95.8893 83.8344 96.6081 80.5975 96.821 75.8584C97.0249 71.1087 97.0781 69.5947 97.0781 57.5004C97.0781 45.4062 97.0249 43.8886 96.821 39.1384C96.6081 34.3976 95.8893 31.162 94.8428 28.3307C93.7515 25.4014 92.297 22.917 89.9284 20.4415C87.5602 17.9647 85.1916 16.4431 82.3887 15.3071C79.6743 14.2054 76.5785 13.4546 72.0456 13.2377C67.5038 13.0217 66.0578 12.9688 54.4906 12.9688H54.5038ZM50.6842 20.9937C51.818 20.9919 53.083 20.9937 54.5038 20.9937C65.8726 20.9937 67.2198 21.0365 71.7092 21.2498C75.8606 21.4484 78.1138 22.1738 79.6147 22.7834C81.6018 23.5903 83.0184 24.5553 84.5078 26.1144C85.998 27.673 86.9203 29.1572 87.6939 31.2355C88.2768 32.803 88.9713 35.1596 89.1603 39.5014C89.3643 44.1958 89.4085 45.6057 89.4085 57.4902C89.4085 69.3747 89.3643 70.785 89.1603 75.479C88.9704 79.8208 88.2768 82.1774 87.6939 83.7454C86.9224 85.8236 85.998 87.3034 84.5078 88.8611C83.0176 90.4197 81.6027 91.3843 79.6147 92.1916C78.1155 92.8039 75.8606 93.5276 71.7092 93.7262C67.2206 93.9395 65.8726 93.9858 54.5038 93.9858C43.1346 93.9858 41.787 93.9395 37.2989 93.7262C33.1475 93.5258 30.8943 92.8004 29.3921 92.1907C27.4054 91.3834 25.9859 90.4188 24.4956 88.8602C23.0054 87.3016 22.0831 85.821 21.3095 83.7418C20.7266 82.1739 20.0322 79.8173 19.8431 75.4755C19.6392 70.781 19.5983 69.3711 19.5983 57.4791C19.5983 45.5874 19.6392 44.1847 19.8431 39.4902C20.033 35.1484 20.7266 32.7918 21.3095 31.2221C22.0814 29.1438 23.0054 27.6596 24.496 26.101C25.9863 24.5424 27.4054 23.5774 29.3925 22.7687C30.8934 22.1564 33.1475 21.4328 37.2989 21.2333C41.2267 21.0476 42.7489 20.9919 50.6842 20.9826V20.9937ZM77.232 28.3877C74.4112 28.3877 72.1227 30.779 72.1227 33.7297C72.1227 36.6799 74.4112 39.0734 77.232 39.0734C80.0528 39.0734 82.3414 36.6799 82.3414 33.7297C82.3414 30.7795 80.0528 28.3859 77.232 28.3859V28.3877ZM54.5038 34.6314C42.4287 34.6314 32.6383 44.8709 32.6383 57.5004C32.6383 70.13 42.4287 80.3646 54.5038 80.3646C66.5794 80.3646 76.3664 70.13 76.3664 57.5004C76.3664 44.8714 66.5786 34.6314 54.503 34.6314H54.5038ZM54.5038 42.6564C62.342 42.6564 68.6968 49.3018 68.6968 57.5004C68.6968 65.6982 62.342 72.3445 54.5038 72.3445C46.6652 72.3445 40.3113 65.6982 40.3113 57.5004C40.3113 49.3018 46.6652 42.6564 54.5038 42.6564Z" fill="white"/>
</g>
</g>
<defs>
<radialGradient id="paint0_radial_45_236" cx="0" cy="0" r="1" gradientUnits="userSpaceOnUse" gradientTransform="translate(28.9531 123.28) rotate(-90) scale(112.982 100.474)">
<stop stop-color="#FFDD55"/>
<stop offset="0.1" stop-color="#FFDD55"/>
<stop offset="0.5" stop-color="#FF543E"/>
<stop offset="1" stop-color="#C837AB"/>
</radialGradient>
<radialGradient id="paint1_radial_45_236" cx="0" cy="0" r="1" gradientUnits="userSpaceOnUse" gradientTransform="translate(-18.2579 8.71201) rotate(79.1654) scale(50.4203 199.377)">
<stop stop-color="#3771C8"/>
<stop offset="0.128" stop-color="#3771C8"/>
<stop offset="1" stop-color="#6600FF" stop-opacity="0"/>
</radialGradient>
<clipPath id="clip0_45_236">
<rect width="110" height="114" fill="white" transform="translate(0 0.5)"/>
</clipPath>
<clipPath id="clip1_45_236">
<rect width="109" height="114" fill="white" transform="translate(0 0.5)"/>
</clipPath>
</defs>
</svg>
