<svg width="33" height="33" viewBox="0 0 33 33" fill="none" xmlns="http://www.w3.org/2000/svg">
<path d="M16.5 28.875C18.9475 28.875 21.3401 28.1492 23.3752 26.7894C25.4102 25.4297 26.9964 23.4969 27.933 21.2357C28.8696 18.9745 29.1147 16.4863 28.6372 14.0858C28.1597 11.6852 26.9811 9.48023 25.2504 7.74956C23.5198 6.01888 21.3148 4.84028 18.9142 4.36279C16.5137 3.8853 14.0255 4.13036 11.7643 5.067C9.50306 6.00363 7.57035 7.58977 6.21056 9.62482C4.85078 11.6599 4.125 14.0525 4.125 16.5C4.125 18.546 4.62 20.4751 5.5 22.1746L4.125 28.875L10.8254 27.5C12.5249 28.38 14.4554 28.875 16.5 28.875Z" stroke="black" stroke-width="2.75" stroke-linecap="round" stroke-linejoin="round"/>
</svg>
