<svg width="68" height="66" viewBox="0 0 68 66" fill="none" xmlns="http://www.w3.org/2000/svg">
<path d="M55.2625 57.75L37.7406 40.425C36.35 41.525 34.7508 42.3958 32.943 43.0375C31.1352 43.6792 29.2115 44 27.1719 44C22.1193 44 17.8436 42.2693 14.3448 38.808C10.8459 35.3467 9.09561 31.119 9.09375 26.125C9.0919 21.131 10.8422 16.9033 14.3448 13.442C17.8473 9.98067 22.123 8.25 27.1719 8.25C32.2208 8.25 36.4974 9.98067 40.0018 13.442C43.5062 16.9033 45.2556 21.131 45.25 26.125C45.25 28.1417 44.9255 30.0437 44.2766 31.8312C43.6276 33.6187 42.7469 35.2 41.6344 36.575L59.1562 53.9L55.2625 57.75ZM27.1719 38.5C30.6484 38.5 33.604 37.2973 36.0385 34.892C38.473 32.4867 39.6894 29.5643 39.6875 26.125C39.6856 22.6857 38.4693 19.7643 36.0385 17.3608C33.6077 14.9573 30.6521 13.7537 27.1719 13.75C23.6916 13.7463 20.737 14.9499 18.308 17.3608C15.8791 19.7716 14.6618 22.693 14.6563 26.125C14.6507 29.557 15.8679 32.4793 18.308 34.892C20.7481 37.3047 23.7027 38.5073 27.1719 38.5Z" fill="black"/>
</svg>
