<svg width="66" height="66" viewBox="0 0 66 66" fill="none" xmlns="http://www.w3.org/2000/svg">
<path d="M53.9 57.75L36.575 40.425C35.2 41.525 33.6188 42.3958 31.8313 43.0375C30.0438 43.6792 28.1417 44 26.125 44C21.1292 44 16.9015 42.2693 13.442 38.808C9.9825 35.3467 8.25183 31.119 8.25 26.125C8.24817 21.131 9.97883 16.9033 13.442 13.442C16.9052 9.98067 21.1328 8.25 26.125 8.25C31.1172 8.25 35.3458 9.98067 38.8108 13.442C42.2758 16.9033 44.0055 21.131 44 26.125C44 28.1417 43.6792 30.0437 43.0375 31.8312C42.3958 33.6187 41.525 35.2 40.425 36.575L57.75 53.9L53.9 57.75ZM26.125 38.5C29.5625 38.5 32.4848 37.2973 34.892 34.892C37.2992 32.4867 38.5018 29.5643 38.5 26.125C38.4982 22.6857 37.2955 19.7643 34.892 17.3608C32.4885 14.9573 29.5662 13.7537 26.125 13.75C22.6838 13.7463 19.7624 14.9499 17.3608 17.3608C14.9591 19.7716 13.7555 22.693 13.75 26.125C13.7445 29.557 14.9481 32.4793 17.3608 34.892C19.7734 37.3047 22.6948 38.5073 26.125 38.5Z" fill="black"/>
</svg>
